<?xml version="1.0" standalone="no"?>
<!DOCTYPE svg PUBLIC "-//W3C//DTD SVG 1.1//EN" "http://www.w3.org/Graphics/SVG/1.1/DTD/svg11.dtd" >
<svg>
<metadata>
Created by FontForge 20110222 at Thu Aug 28 10:51:15 2014
 By deploy user
Copyright (c) 2010 by Hannes von Doehren. All rights reserved.
</metadata>
<defs>
<font id="ReklameScript-Regular" horiz-adv-x="550" >
  <font-face 
    font-family="Reklame Script Regular"
    font-weight="300"
    font-stretch="normal"
    units-per-em="1000"
    panose-1="3 6 5 2 4 6 7 8 13 5"
    ascent="760"
    descent="-240"
    x-height="488"
    cap-height="715"
    bbox="-142.3 -318 1280.86 1020"
    underline-thickness="50"
    underline-position="-50"
    unicode-range="U+0020-FB02"
  />
<missing-glyph horiz-adv-x="678" 
d="M209 435l31 -31q40 29 40 34l-9 10q17 44 50.5 68t70.5 24q22 0 22 -23q0 -34 -25.5 -72t-59.5 -77.5t-45 -65.5q5 -15 22.5 -28t23.5 -6q13 23 48.5 70t57.5 86.5t22 71.5t-26 60t-60 28q-54 0 -102.5 -43t-60.5 -106zM276 153q0 -15 13.5 -25.5t29.5 -10.5
q21 0 32 22.5t11 41.5q0 17 -9.5 25.5t-20.5 8.5q-27 0 -41.5 -21.5t-14.5 -40.5zM100 0v700h478v-700h-478z" />
    <glyph glyph-name="fi" unicode="fi" horiz-adv-x="462" 
d="M284 79q0 110 51 335q-148 -8 -187 -19l-1 -6q30 -34 43.5 -51t27.5 -45t18.5 -60.5t4.5 -80.5q0 -125 -48.5 -214.5t-99.5 -111.5q-9 -4 -19 -4q-62 0 -62 111q0 37 5 90q9 94 29 199.5t22 126.5l-29 28q-10 10 -19 28t-9 32t6 17q1 0 68 15q8 48 20.5 157t15.5 129
q15 4 31 4q50 0 50 -42q0 -65 -37 -236q155 19 214 19q19 0 43 -14.5t20 -30.5q-27 -96 -51 -212t-24 -170q0 -26 8.5 -40.5t21.5 -14.5q22 0 38.5 17t25.5 43t13.5 48t5.5 41q2 0 4 0.5t8.5 0t11.5 -2.5t9 -9.5t4 -18.5q0 -37 -12.5 -75t-48 -70.5t-86.5 -32.5
q-86 0 -86 120zM98 15q-7 -61 -7 -82q0 -41 17 -41q5 0 13.5 8t20 26t21.5 43t17 65t7 85q0 148 -51 213q-2 -21 -16.5 -132.5t-21.5 -184.5zM410 568q-15 0 -28.5 16t-13.5 47q0 13 3 30t9.5 36.5t20 32.5t30.5 13q21 0 29.5 -8t3.5 -30q30 -16 30 -46q0 -31 -21 -61
t-63 -30z" />
    <glyph glyph-name="fl" unicode="fl" horiz-adv-x="419" 
d="M287 0q-4 9 1 90q8 135 41 359q-22 -2 -179 -35l-1 -5q52 -58 72 -110.5t20 -146.5q0 -73 -19 -138.5t-46.5 -105.5t-55 -63t-46.5 -23q-62 0 -62 111q0 37 5 90q9 94 29 210t22 136l-29 28q-10 10 -19 28t-9 32t6 17q1 0 68 15q8 47 20.5 146t15.5 120q15 4 31 4
q50 0 50 -42q0 -45 -37 -216q119 21 138 21q18 0 34 -21q19 129 41 238q2 9 15 9q19 0 42.5 -16t21.5 -29q-70 -413 -85 -657q-4 -54 -5 -81q-8 -12 -42 4.5t-38 30.5zM98 15q-7 -61 -7 -82q0 -41 17 -41q5 0 13.5 8t20 26t21.5 43t17 65t7 85q0 148 -51 213
q-2 -21 -16.5 -132.5t-21.5 -184.5z" />
    <glyph glyph-name="f_f" unicode="ff" horiz-adv-x="528" 
d="M68 349l-29 28q-28 28 -28 49q0 14 6 17q1 0 68 15q8 48 18 152.5t13 124.5q15 4 31 4q50 0 50 -42q0 -56 -39 -236q147 26 191 32q8 47 20.5 144t15.5 118q15 4 31 4q50 0 50 -42q0 -37 -37 -208q119 21 158 21q19 0 33 -19.5t14 -38.5q0 -13 -19 -15q-82 -9 -202 -32
v-8q51 -57 71.5 -113.5t20.5 -151.5q0 -73 -19 -138.5t-46.5 -105.5t-55 -63t-46.5 -23q-62 0 -62 111q0 37 5 90q8 93 30 237.5t23 154.5q-94 -12 -185 -28v-8q48 -54 67.5 -111.5t19.5 -135.5q0 -73 -19 -138.5t-46.5 -105.5t-55 -63t-46.5 -23q-62 0 -62 111q0 37 5 90
q9 94 31.5 209.5t24.5 136.5zM362 15q-7 -61 -7 -82q0 -41 17 -41q5 0 13.5 8t20 26t21.5 43t17 65t7 85q0 148 -51 213q-2 -21 -16.5 -132.5t-21.5 -184.5zM93 -5q-7 -61 -7 -82q0 -41 17 -41q5 0 13.5 8t20 26t21.5 43t17 65t7 85q0 162 -46 220q-2 -21 -19 -136t-24 -188
z" />
    <glyph glyph-name="a_a" unicode="aa" horiz-adv-x="766" 
d="M637 46h-5q-13 -29 -42.5 -51t-63.5 -22q-72 0 -108 80q-37 -73 -92 -73q-31 0 -50.5 22t-21.5 44h-5q-13 -29 -42.5 -51t-63.5 -22q-57 0 -93.5 54t-36.5 144q0 137 57 229t146 92q45 0 71.5 -36.5t26.5 -67.5l-1 -11q34 -11 28 -35q-4 -16 -11.5 -42.5t-10.5 -36.5
t-7.5 -28t-6 -27t-3.5 -24t-2.5 -28.5t-0.5 -30.5q0 -77 42 -77t61 59q-6 30 -6 64q0 141 58 251t145 110q47 0 72.5 -23.5t25.5 -50.5l-1 -11q1 0 10.5 -2t16.5 -4t12 -7.5t3 -13.5q-56 -202 -56 -295q0 -77 42 -77q35 0 50.5 34t22.5 91h8t13 -7t8 -20q0 -50 -33 -108
t-84 -58q-31 0 -50.5 22t-21.5 44zM97 127q0 -47 8.5 -66.5t27.5 -19.5q27 0 53.5 49t41 100t18.5 86q12 72 7.5 113.5t-38.5 41.5t-62.5 -55t-42 -124t-13.5 -125zM480 127q0 -47 8.5 -66.5t27.5 -19.5q38 0 75.5 115t37.5 160q-32 6 -46 22q34 47 34 100q0 33 -19 33
q-49 0 -83.5 -123t-34.5 -221z" />
    <glyph glyph-name="d_d" unicode="dd" horiz-adv-x="706" 
d="M587 54h-3q-13 -36 -39.5 -70t-56.5 -34q-68 0 -100 80q-35 -70 -85 -70q-30 0 -49.5 30.5t-19.5 63.5h-3q-13 -36 -39.5 -70t-56.5 -34q-61 0 -90.5 60.5t-29.5 137.5q0 104 39 202.5t110 125.5q22 9 47 9q14 0 28 -6t21 -12l7 -6q7 38 15 108.5t14 119t11 53.5q3 3 9 3
q27 0 49 -14t18 -29q-15 -56 -50.5 -320.5t-35.5 -305.5q0 -48 33 -48q24 0 43 58q-5 26 -5 62q0 109 41 221t113 141q21 8 42 8q14 0 28 -6t21 -12l7 -6q7 37 15.5 102t14.5 106t10 45q3 3 9 3q28 0 49 -9.5t18 -24.5q-13 -69 -49.5 -327.5t-36.5 -292.5q0 -48 33 -48
q23 0 39 37t22 88h8t13 -7t8 -20q0 -50 -33 -108t-84 -58q-31 0 -50 21.5t-19 52.5zM443 88q0 -66 22 -66q35 0 83 120t48 164q-19 4 -30 20q25 84 25 107q0 35 -18 35q-50 0 -90 -131t-40 -249zM90 88q0 -66 22 -66q34 0 76.5 102.5t54.5 168.5q12 53 9.5 97.5t-32.5 44.5
q-34 0 -65 -57.5t-48 -137.5t-17 -152z" />
    <glyph glyph-name="e_e" unicode="ee" horiz-adv-x="528" 
d="M0 126q0 83 24 172.5t64.5 151t82.5 61.5q33 0 57.5 -29.5t24.5 -92.5q0 -104 -29 -174t-85 -70q-19 0 -33.5 10.5t-19.5 20.5l-5 11q-18 -37 -18 -95q0 -82 69 -82q128 0 140 282q3 12 18 15q25 99 64.5 166.5t80.5 67.5q33 0 57.5 -29.5t24.5 -92.5q0 -104 -29 -174
t-85 -70q-19 0 -34.5 7.5t-21.5 15.5l-6 8q-14 -42 -14 -123q0 -82 69 -82q53 0 96 67.5t43 123.5q0 11 14 11q12 0 20.5 -13.5t8.5 -34.5q0 -47 -17 -99t-56.5 -93.5t-91.5 -41.5q-45 0 -82.5 30.5t-55.5 84.5q-39 -106 -126 -106q-61 0 -105 53t-44 143zM353 249
q9 -14 29 -14q25 0 45 66.5t20 138.5q0 47 -12 47q-7 0 -15 -18q-51 -115 -67 -220zM97 235q5 -25 25 -25q25 0 43 63.5t18 136.5q0 47 -12 47q-7 0 -15 -18q-43 -96 -59 -204z" />
    <glyph glyph-name="g_g" unicode="gg" horiz-adv-x="676" 
d="M76 -93q20 -46 41 -59q34 14 67 79.5t48 145.5q-2 -2 -9.5 -12.5t-12 -16.5t-13.5 -15.5t-16.5 -15t-17 -9.5t-18.5 -4q-59 0 -94 50t-35 136q0 130 57 222t147 92q79 0 97 -72l5 -43q23 -12 18 -48q-2 -14 -9.5 -69.5t-17.5 -115t-24 -123.5q-27 -115 -67 -175.5
t-83 -60.5q-42 0 -75.5 17t-43.5 39q-10 23 7 43.5t49 14.5zM92 144q0 -41 14 -63t34 -22q37 0 68.5 70.5t44.5 165.5q21 148 -40 148q-33 0 -62 -55t-44 -123.5t-15 -120.5zM372 -96q8 -19 32.5 -41.5t41.5 -32.5q34 15 68 85t49 155q-1 -1 -8 -11.5t-10.5 -14.5t-11 -14
t-13.5 -15t-14 -11.5t-16 -9t-16 -2.5q-60 0 -96 53.5t-36 144.5q0 140 58.5 238t150.5 98q86 0 86 -77l-1 -14q6 0 15 -1.5t18.5 -8.5t8.5 -17q-3 -23 -11.5 -94.5t-19.5 -147t-26 -143.5q-27 -123 -68.5 -187.5t-84.5 -64.5q-53 0 -98.5 23t-55.5 47q-10 26 7 47.5
t51 15.5zM420 146q0 -44 14 -67.5t35 -23.5q38 0 74 85.5t42 166.5q-13 -1 -27 15q16 36 16 102q0 17 -8 29t-22 12q-34 0 -64 -59t-45 -131.5t-15 -128.5z" />
    <glyph glyph-name="l_l" unicode="ll" horiz-adv-x="310" 
d="M23 -42q-11 20 -10.5 57t11.5 45q7 125 35.5 334t54.5 305q2 9 15 9q19 0 43.5 -16.5t20.5 -28.5q-24 -76 -49.5 -274t-35.5 -373q-4 -54 -5 -81q-9 -11 -40.5 -0.5t-39.5 23.5zM178 0q-4 9 1 90q7 114 35 316t55 333q2 9 15 9q19 0 42.5 -16t21.5 -29q-70 -413 -85 -657
q-4 -54 -5 -81q-8 -12 -42 4.5t-38 30.5z" />
    <glyph glyph-name="m_m" unicode="mm" horiz-adv-x="990" 
d="M693 314h-9q-79 -225 -78 -331q-13 -15 -34 -15q-44 0 -60 61q-30 -56 -80 -56q-87 0 -87 153q0 25 28 168h-10q-40 -86 -86 -320q-13 -15 -34 -15q-33 0 -43.5 20.5t-11.5 78.5q0 37 4 91t11.5 121.5t9.5 88.5h-9q-94 -267 -93 -376q-13 -15 -34 -15q-67 0 -67 130
q0 82 12 174t28 150.5t27 58.5q23 0 42.5 -12t17.5 -23q-5 -27 -20 -90.5t-21.5 -102.5t-6.5 -68h4q92 268 119 333q4 9 22 9q24 0 45 -11.5t19 -33.5q-2 -26 -20 -143.5t-19 -162.5h4q63 183 127 307q4 9 22 9q24 0 48 -14t22 -36q-3 -44 -32 -154t-29 -171q0 -76 41 -76
q23 0 43 89q2 81 15 172t28.5 150.5t26.5 59.5q23 0 42.5 -12t17.5 -23q-4 -20 -16 -75.5t-18 -85.5t-11.5 -69t-5.5 -62h4q74 217 104 288q4 9 22 9q24 0 45 -11.5t19 -33.5q-1 -9 -12 -111.5t-12 -149.5h4q8 23 34 105.5t47 137.5t46 104q4 9 22 9q24 0 48 -14t22 -36
q-3 -42 -32 -172.5t-29 -192.5q0 -76 41 -76q37 0 61 79q2 0 6 -1t10 -8t6 -18q0 -38 -32.5 -79t-80.5 -41q-87 0 -87 153q0 45 30 198h-12q-32 -69 -60 -185.5t-27 -184.5q-13 -15 -34 -15q-32 0 -42.5 28t-11.5 91q-2 126 10 256z" />
    <glyph glyph-name="n_n" unicode="nn" horiz-adv-x="660" 
d="M536 324h-12q-34 -74 -64 -180.5t-29 -172.5q-13 -15 -34 -15q-47 0 -55 80q-32 -63 -75 -63q-87 0 -87 153q0 65 26 198h-12q-34 -74 -64 -180.5t-29 -172.5q-13 -15 -34 -15q-57 0 -57 130q0 171 26.5 302.5t70.5 131.5q8 0 14.5 -1.5t12.5 -8t5 -17.5q-4 -29 -27 -140
t-23 -168h4q57 168 125 298q4 9 22 9q24 0 48.5 -14.5t21.5 -35.5q-2 -14 -17 -74t-26 -126t-11 -125q0 -76 41 -76q25 0 43 92q3 159 25 263t62 104q8 0 14.5 -1.5t12.5 -8t5 -17.5q-2 -19 -21 -124.5t-19 -163.5h4q84 246 132 338q4 9 22 9q24 0 48 -14t22 -36
q-3 -39 -32 -164.5t-29 -200.5q0 -76 41 -76q37 0 61 79q2 0 6 -1t10 -8t6 -18q0 -38 -32.5 -79t-80.5 -41q-87 0 -87 153q0 65 26 198z" />
    <glyph glyph-name="o_o" unicode="oo" horiz-adv-x="646" 
d="M439 395q-11 -12 -23.5 -93t-12.5 -147q0 -47 15 -82.5t43 -35.5q36 0 63.5 47.5t40 115t18 120t5.5 82.5q0 61 -34 61q-12 0 -21 -4q-21 15 -13.5 35.5t28.5 20.5q50 0 76 -52t26 -148q0 -46 -9 -101.5t-28 -113t-54 -95.5t-80 -38q-72 0 -107 76.5t-32 171.5
q1 70 25 147q-5 -1 -17 -1q-17 0 -32 3q7 -36 6 -78q-1 -41 -9.5 -86.5t-26 -96t-51.5 -83.5t-79 -33q-73 0 -108 68t-32 160q3 96 43 178.5t88 96.5q22 -12 26 -25q14 42 35 42q31 0 57.5 -25.5t42.5 -70.5q20 -12 47 -12q1 0 22 3q42 112 93 127q22 -12 26 -25
q1 -37 -15 -65.5t-42 -43.5zM80 175q0 -118 58 -118q32 0 58 37t39.5 90.5t20.5 97t8 72.5q0 3 0.5 12.5t0.5 14.5q-65 22 -86 54q-43 -31 -71 -103t-28 -157z" />
    <glyph glyph-name="s_s" unicode="ss" horiz-adv-x="570" 
d="M361 359l1 -4q8 -3 21.5 -9t47.5 -28t60 -48.5t47.5 -70t21.5 -92.5q0 -81 -36.5 -119.5t-93.5 -38.5q-49 0 -92.5 36t-62.5 86q-2 -60 -39 -99t-88 -39q-64 0 -116 57.5t-52 131.5q0 34 18 75t42 41q10 0 27.5 -15t17.5 -22q0 -19 -21.5 -68.5t-21.5 -51.5q0 -9 5 -25
t22.5 -34.5t43.5 -18.5q45 0 69 28.5t24 71.5q0 77 -50 133t-110 85q-29 24 -26 66q3 27 107 73t125 46q8 0 20.5 -15.5t12.5 -28.5q0 -26 -30.5 -50t-52.5 -24q-5 0 -16.5 4t-16.5 4q-17 -1 -44.5 -16t-34.5 -23l1 -4q6 -3 15.5 -9.5t35 -27t47.5 -43.5t44.5 -59t32.5 -73
q3 28 15.5 48.5t33.5 20.5q10 0 27.5 -15t17.5 -22q0 -19 -16.5 -54.5t-16.5 -37.5q0 -7 5 -19t22.5 -25.5t43.5 -13.5q46 0 69.5 30.5t23.5 83.5q0 70 -57.5 119.5t-116.5 56.5q-13 11 -20.5 33.5t-5.5 42.5q3 27 127 67t149 40q8 0 20.5 -15.5t12.5 -28.5q0 -27 -36 -60
t-57 -33q-5 0 -11.5 13.5t-11.5 13.5q-21 -1 -69.5 -11t-53.5 -16z" />
    <glyph glyph-name="t_t" unicode="tt" horiz-adv-x="592" 
d="M38 415q-18 -4 -31.5 22t-2.5 36q14 11 111 30q27 97 43 108q12 8 40.5 -10t25.5 -27l-21 -56l48 8q68 12 74 2q14 -22 17 -39q21 6 65 15q30 115 47 127q12 8 40.5 -10t25.5 -27l-20 -74q28 4 47 6q16 3 29.5 2.5t17.5 -9.5q3 -7 12 -8t15 -7q5 -5 13 -17t8 -16
q0 -15 -15 -15q-54 -1 -148 -16q-64 -248 -64 -361q0 -42 32 -42q44 0 92.5 42t51.5 82q1 -2 9 0t17.5 -11t9.5 -40q0 -50 -54.5 -98t-104.5 -48q-48 0 -83.5 42.5t-40.5 110.5q-19 -58 -66.5 -105.5t-105.5 -47.5q-52 0 -88.5 49t-36.5 125q0 97 48 291zM343 415
q-15 -4 -31 14.5t-16 34.5q-47 -4 -117 -18q-60 -197 -60 -367q0 -42 32 -42q58 0 104 62t50 111q29 5 41 -23q8 91 42 238z" />
    <glyph glyph-name=".notdef" horiz-adv-x="678" 
d="M209 435l31 -31q40 29 40 34l-9 10q17 44 50.5 68t70.5 24q22 0 22 -23q0 -34 -25.5 -72t-59.5 -77.5t-45 -65.5q5 -15 22.5 -28t23.5 -6q13 23 48.5 70t57.5 86.5t22 71.5t-26 60t-60 28q-54 0 -102.5 -43t-60.5 -106zM276 153q0 -15 13.5 -25.5t29.5 -10.5
q21 0 32 22.5t11 41.5q0 17 -9.5 25.5t-20.5 8.5q-27 0 -41.5 -21.5t-14.5 -40.5zM100 0v700h478v-700h-478z" />
    <glyph glyph-name=".null" horiz-adv-x="0" 
 />
    <glyph glyph-name="nonmarkingreturn" horiz-adv-x="333" 
 />
    <glyph glyph-name="space" unicode=" " horiz-adv-x="200" 
 />
    <glyph glyph-name="exclam" unicode="!" horiz-adv-x="272" 
d="M134 272q4 112 17.5 254.5t31.5 212.5q1 6 6 10t9 4q9 0 27 -7.5t31 -17.5q5 -4 0.5 -14t-1.5 -14q3 -3 10.5 -10t10 -12t0.5 -13q-6 -26 -20.5 -86t-20 -86t-15 -73t-15.5 -90t-11 -93q-8 -12 -34.5 4.5t-25.5 30.5zM70 30q0 29 22.5 57.5t67.5 28.5q16 0 30 -15t14 -44
q0 -12 -3 -28.5t-10 -35t-20.5 -31t-32.5 -12.5q-24 0 -46 27.5t-22 52.5z" />
    <glyph glyph-name="quotedbl" unicode="&#x22;" horiz-adv-x="388" 
d="M146 548l7 -9q8 -11 -25 -79q-8 -11 -23 -8t-29.5 14.5t-14.5 20.5q9 120 21 231q3 5 21.5 1.5t38.5 -17.5t19 -28q-13 -115 -15 -126zM215 490q2 22 23 221q3 5 21.5 1.5t38.5 -17.5t19 -28q-3 -27 -14.5 -96.5t-15.5 -107.5q-2 -19 -37 -4q-33 16 -35 31z" />
    <glyph glyph-name="numbersign" unicode="#" horiz-adv-x="509" 
d="M252 586l-12 2l-15 -79q70 14 111 19q19 117 33 164q1 2 1.5 9t2 10t6.5 6t15 3q30 0 49 -21q-10 -41 -31 -162q29 2 44.5 -2t29.5 -21l4.5 -4.5t6.5 -7t6.5 -8t4.5 -7.5t0 -6q-6 -8 -108 -21l-21 -142h25q10 -1 28 -32q22 -40 0 -40q-43 -2 -64 -5q-21 -147 -26 -201
q-2 -12 -16 -12t-34.5 10.5t-25.5 16.5q6 63 22 172q-61 -13 -112 -25q-19 -146 -20 -235q-1 -24 -52 2q-23 11 -28 18q7 93 21 196q-9 -3 -27 -7q-19 -4 -40 27q-17 27 -5 33q42 15 84 27q1 7 24 148l-28 -8q-12 -3 -26.5 11t-19 29t1.5 20q38 15 87 29q26 135 48 220
q21 2 41 -8t21 -25q6 -94 -6 -93zM300 309l22 141q-45 -7 -111 -20q-17 -106 -23 -145q60 16 112 24z" />
    <glyph glyph-name="dollar" unicode="$" horiz-adv-x="501" 
d="M89 138q0 -30 20 -55.5t58 -27.5q33 217 65 390q-34 32 -70.5 51.5t-60.5 21.5q-6 1 -19 22t-13 27q-1 19 30.5 40.5t79 39.5t101.5 32q11 50 23 89q32 8 35 -28l-10 -51q64 12 98 9q13 -1 34 -20.5t21 -28.5q0 -30 -39.5 -66.5t-61.5 -36.5q-9 0 -9 10q0 4 17.5 28.5
t17.5 29.5q-1 7 -28 4.5t-66 -12.5l-26 -144q135 -133 135 -289q0 -86 -58 -134t-137 -48q-10 0 -15 1q-2 -11 -4 -35q14 4 17 -6q5 -19 -34 -85q-15 -24 -45 19q2 24 15 116q-63 21 -101.5 74.5t-38.5 108.5q0 36 19.5 69t50.5 33q46 0 55 -32q-19 -17 -37.5 -51t-18.5 -65
zM274 399q-38 -217 -55 -339q54 13 88 54.5t34 102.5q0 96 -67 182zM243 500l18 91q-68 -20 -92 -40q41 -24 74 -51z" />
    <glyph glyph-name="percent" unicode="%" horiz-adv-x="750" 
d="M170 -65q1 7 3.5 31t4.5 37t5.5 30.5t8.5 26t11 8.5q3 0 7 -1.5t5 -1.5t3 2q129 278 261 538q-21 -20 -67 -20q-20 0 -41.5 9t-30.5 21q6 -14 6 -62q0 -22 -6 -57t-21 -81t-48.5 -78t-78.5 -32q-46 0 -77 30.5t-42.5 70.5t-11.5 86q0 93 54 160t126 67q19 0 30 -15
q1 0 5 4t8 6.5t6 2.5q8 0 24.5 -21.5t42 -43.5t56.5 -22q22 0 43 7t31 14l10 7q1 2 13.5 23t23.5 32t22 11q10 0 23 -10.5t13 -21.5q0 -17 -13.5 -42.5t-30.5 -31.5q-49 -68 -187 -387t-149 -339q-13 0 -27.5 14.5t-14.5 28.5zM176 366q43 0 76 95.5t29 165.5q-3 3 -8 7.5
t-7 6.5l-5.5 5.5t-4.5 6.5t-3 7.5t-3 10.5q-48 0 -83.5 -63t-35.5 -152q0 -90 45 -90zM417 115q0 80 39 158t84 89q21 -9 24 -19q14 9 33 9q62 0 87 -44.5t25 -107.5q0 -110 -43.5 -186t-117.5 -76q-65 0 -98 53.5t-33 123.5zM487 91q0 -99 45 -99q27 0 49 34t33.5 81
t17 85.5t5.5 59.5q0 52 -27 52q-31 0 -51 -34t-26 -73q0 -1 -2 -1q-13 0 -22 7q-22 -45 -22 -112z" />
    <glyph glyph-name="ampersand" unicode="&#x26;" horiz-adv-x="540" 
d="M10 154q4 81 165 233q-75 154 -71 215q3 56 61 93t140 37q55 0 99 -47t40 -116q-1 -12 -6 -26t-17 -30t-22 -28.5t-30 -32t-31 -29.5t-35 -32t-32 -29l-13 -12q40 -74 87 -148q88 88 114 140q34 9 54 -10.5t19 -40.5q-1 -22 -40 -68.5t-96 -97.5q39 -53 54 -71
q7 14 16 14q7 0 12.5 -6t9 -16.5t5.5 -20t4.5 -23t3.5 -18.5q-6 -8 -21 -18t-29 -13q-28 16 -103 131q-125 -100 -184 -100q-65 0 -111 55t-43 115zM122 56q61 0 178 104q-46 75 -86 150q-126 -121 -131 -205q-1 -24 10 -36.5t29 -12.5zM175 563q-3 -36 44 -135
q159 148 161 192q1 18 -13 27.5t-32 9.5q-54 0 -106 -27.5t-54 -66.5z" />
    <glyph glyph-name="quotesingle" unicode="'" horiz-adv-x="234" 
d="M61 488q2 22 23 221q3 5 21.5 1.5t38.5 -17.5t19 -28q-3 -27 -15 -96.5t-16 -107.5q-2 -20 -38 -3q-31 15 -33 30z" />
    <glyph glyph-name="parenleft" unicode="(" horiz-adv-x="230" 
d="M260 684l-2 -14q-180 -140 -180 -406q0 -126 108 -285q2 -32 -30 -38q-146 185 -146 383q0 132 52.5 230.5t123.5 154.5q10 8 33.5 -1.5t40.5 -23.5z" />
    <glyph glyph-name="parenright" unicode=")" horiz-adv-x="290" 
d="M38 -52l2 14q86 67 133 180.5t47 245.5q0 126 -108 285q-2 32 30 38q146 -185 146 -383q0 -134 -53.5 -242.5t-122.5 -162.5q-10 -8 -33.5 1.5t-40.5 23.5z" />
    <glyph glyph-name="asterisk" unicode="*" horiz-adv-x="403" 
d="M143 434l10 95q-12 -2 -34.5 -7.5t-30.5 -7.5q-12 -3 -26.5 14.5t-19 34.5t2.5 23q11 4 26.5 7t38.5 6t34 5q-8 9 -33 31t-37 37q-15 17 1.5 33t37.5 9l60 -71q13 98 15 104q6 22 33 17.5t42 -24.5q-3 -17 -10.5 -59t-10.5 -61q13 0 41 6.5t50 3.5q11 -1 27 -38
q21 -46 -1 -46h-46.5t-45.5 -1l66 -71q18 -19 -9 -26q-19 -6 -38 1l-63 72q-3 -19 -3 -56t-1 -50q-6 -22 -31 -12.5t-45 31.5z" />
    <glyph glyph-name="plus" unicode="+" horiz-adv-x="403" 
d="M88 225q-12 -3 -26.5 14.5t-19 34.5t2.5 23q43 15 119 27q11 81 24 134q6 22 33 17.5t42 -24.5q-11 -72 -17 -116q37 4 46 5q3 0 5.5 9t4.5 9q6 1 17.5 -8t13.5 -9q11 -1 27 -38q21 -46 -1 -46q-42 -1 -125 -9q-8 -57 -15 -122q-6 -22 -31 -12.5t-45 31.5l11 92
q-43 -7 -66 -12z" />
    <glyph glyph-name="comma" unicode="," horiz-adv-x="244" 
d="M76 30q0 30 20 59t64 29q21 0 39 -23t18 -62q0 -84 -27.5 -144.5t-65.5 -83.5q-22 -15 -44.5 -3t-28.5 45q75 47 97 141q-22 -5 -47 4t-25 38z" />
    <glyph glyph-name="hyphen" unicode="-" horiz-adv-x="403" 
d="M88 220q-12 -3 -26.5 15.5t-19 37t2.5 24.5q49 18 146 30t135 9q10 -1 27 -40q21 -49 -1 -49q-160 -4 -264 -27z" />
    <glyph glyph-name="period" unicode="." horiz-adv-x="244" 
d="M80 30q0 29 22.5 57.5t67.5 28.5q16 0 30 -15t14 -44q0 -12 -3 -28.5t-10 -35t-20.5 -31t-32.5 -12.5q-22 0 -31.5 8t-4.5 28q-32 13 -32 44z" />
    <glyph glyph-name="slash" unicode="/" horiz-adv-x="405" 
d="M22 6q5 15 15.5 12t11.5 -1q34 73 115 276t136.5 315.5t88.5 112.5q14 0 25.5 -9.5t9.5 -22.5q-44 -47 -128 -238t-161 -386.5t-92 -222.5q-12 -1 -27.5 14.5t-14.5 28.5q1 9 3.5 31t4 35t5 29t8.5 26z" />
    <glyph glyph-name="zero" unicode="0" horiz-adv-x="373" 
d="M-5 224q0 116 30 226.5t73 178.5t85 78q5 -2 9 -4.5t5.5 -4.5t4.5 -7.5t4 -7.5q24 17 48 17q124 0 124 -204q0 -91 -12.5 -180.5t-38.5 -175.5t-74.5 -139t-113.5 -53q-51 0 -84.5 42t-46.5 101.5t-13 132.5zM63 158q0 -67 15.5 -97t51.5 -30q55 0 99 88.5t65 205
t21 223.5q0 93 -42 93q-55 0 -96 -123q0 -1 -2 -1q-5 0 -20.5 5.5t-18.5 10.5q-73 -207 -73 -375z" />
    <glyph glyph-name="one" unicode="1" horiz-adv-x="313" 
d="M-9 -9q1 9 55 33.5t81 32.5q-1 1 -6 4t-8 6t-3 7q8 68 31.5 238.5t29.5 224.5q-118 -96 -129 -96q-12 0 -24 11.5t-18 23.5l-5 12q0 5 9 12.5t25 18t24 17.5q60 48 196 175q25 -21 43 -53q-1 -11 -14 -27.5t-16 -25.5q-8 -22 -34 -208.5t-37 -321.5q66 23 105 23
q5 0 21 -26t16 -29v-13q-189 -47 -297 -87q-8 -3 -27 15t-18 33z" />
    <glyph glyph-name="two" unicode="2" horiz-adv-x="374" 
d="M0 23l14 18q-4 6 -2 10l117 167q3 4 36.5 51.5t44 63.5t37.5 60.5t37.5 71t21 64.5t10.5 70q0 18 -10 28t-25 10q-60 0 -118.5 -45t-87.5 -118l15 -15q0 -6 -9.5 -14.5t-30.5 -24t-24 -17.5l-46 39q20 106 99 185t165 79q55 0 97.5 -45.5t42.5 -97.5q0 -83 -52 -178.5
t-138 -208.5l-79 -104l189 45q8 21 27 21q9 0 22.5 -30.5t13.5 -49.5q0 -16 -23 -21q-26 -6 -99.5 -21t-122.5 -26.5t-64 -19.5q-18 2 -37.5 18.5t-20.5 34.5z" />
    <glyph glyph-name="three" unicode="3" horiz-adv-x="370" 
d="M267 423v-3q46 0 82 -30.5t36 -86.5q0 -62 -26.5 -123t-67.5 -104.5t-90.5 -70t-94.5 -26.5q-33 0 -72.5 42t-43.5 84q1 1 3 2.5t7.5 6t9.5 7t10 4.5t8 -2q12 -11 30 -35t31 -34q66 0 143 82t77 191q0 21 -12.5 32.5t-32.5 11.5q-19 0 -34 -4q-18 -14 -64 -31
q-12 5 -32.5 20.5t-29.5 26.5q5 12 26 27.5t44 20.5q84 73 84 169q0 44 -37 44q-18 0 -33.5 -5t-30 -18.5t-23.5 -22t-22 -32t-16.5 -30t-16.5 -34t-13 -28.5q-15 -1 -38 18t-23 30q0 20 15 52t40 64t63.5 55.5t78.5 23.5q44 0 75 -31t42 -63.5t11 -56.5q0 -40 -16 -75.5
t-32 -51.5z" />
    <glyph glyph-name="four" unicode="4" horiz-adv-x="375" 
d="M58 210l-62 77q-2 29 34 198t58 224q2 5 19 -2.5t33.5 -20.5t17.5 -22q-56 -207 -84 -370q8 0 73.5 20t74.5 26q34 212 50 366q15 4 43.5 -11t30.5 -34l-34 -292q1 0 14.5 3.5t15.5 3.5q8 -4 27 -34t21 -44l-101 -29q-5 -27 -17.5 -131t-23.5 -156q-3 -6 -12 -6
q-8 0 -34.5 14.5t-27.5 21.5v3l32 231l-2 1q-3 -1 -64 -17t-82 -20z" />
    <glyph glyph-name="five" unicode="5" horiz-adv-x="330" 
d="M91 584l-8 -81q43 28 101 28q66 0 108 -60t42 -148q0 -141 -71 -242.5t-169 -101.5q-32 0 -76 51.5t-48 94.5q4 3 9.5 7t17 8.5t15.5 0.5q12 -11 34 -45t35 -44q70 24 127.5 106t57.5 212q0 38 -16 60.5t-45 22.5q-47 0 -131 -44q-33 28 -58 69q0 20 4 77t4 74q0 3 -2 19
t-2 20q0 14 25.5 25t45.5 11l1 -24q6 2 45 10t78 18t63 18q3 -2 21.5 -13t28 -20t12.5 -20l-5 -21q-25 -10 -244 -68z" />
    <glyph glyph-name="six" unicode="6" horiz-adv-x="371" 
d="M-5 240q0 112 40.5 223t97.5 177.5t106 66.5q45 0 88.5 -42t48.5 -86q-3 -3 -8.5 -7t-17 -9t-16.5 -1q-12 11 -30.5 39t-31.5 38q-44 -11 -105.5 -106t-75.5 -163q25 24 42.5 38t46.5 29t55 15q48 0 89 -48t41 -93q0 -70 -27.5 -147t-76.5 -132t-101 -55
q-44 0 -77.5 23.5t-52 62.5t-27 83.5t-8.5 93.5zM79 167q0 -120 46 -120q42 0 81 50.5t60.5 118t21.5 123.5q0 40 -29 40q-37 0 -70.5 -27.5t-54 -55t-26.5 -27.5q-14 0 -24 7q-5 -35 -5 -109z" />
    <glyph glyph-name="seven" unicode="7" horiz-adv-x="385" 
d="M106 303q-19 -4 -38 22t-8 36q17 15 130 36l111 235q-131 -35 -229 -38q26 -92 26 -127q0 -27 -12 -27q-40 15 -51 34q-16 66 -54 182q-3 9 8 14.5t23 5.5q92 0 197 15.5t149 41.5q34 -27 47 -76l-32 -16l7 -8q-51 -84 -108 -223l35 4q16 3 29.5 2.5t17.5 -9.5
q3 -7 12 -8t15 -7q5 -5 13 -17t8 -16q0 -15 -15 -15q-54 -1 -148 -16q-56 -140 -139 -383q-10 -10 -41.5 6t-35.5 32q36 116 130 330z" />
    <glyph glyph-name="eight" unicode="8" horiz-adv-x="362" 
d="M-20 156q0 81 169 246q-7 8 -32 35.5t-31.5 35.5t-23 29t-21.5 33t-10.5 30.5t-5.5 36.5q0 36 38.5 66.5t94.5 47t112 16.5q9 -2 9.5 -18.5t1.5 -17.5q10 5 19 5q28 0 51.5 -45t23.5 -78q0 -37 -39 -94t-95 -111q83 -93 106 -131q35 -56 35 -107q0 -39 -46 -74
t-102 -52.5t-97 -17.5q-64 0 -110.5 52.5t-46.5 112.5zM59 111q0 -24 11.5 -36.5t29.5 -12.5q53 0 126 35.5t73 74.5q0 32 -19.5 66t-74.5 100q-146 -146 -146 -227zM104 558q0 -26 81 -121q123 127 123 176q0 18 -14.5 27.5t-32.5 9.5q-54 0 -105.5 -26.5t-51.5 -65.5z" />
    <glyph glyph-name="nine" unicode="9" horiz-adv-x="375" 
d="M-5 106l8 8t16 10.5t16 1.5q12 -11 33.5 -40.5t35.5 -40.5q49 12 106 91t75 167q-27 -25 -43.5 -39t-46.5 -29.5t-56 -15.5q-49 0 -91.5 49t-42.5 96q0 74 25.5 152t75.5 135t110 57q45 0 79 -26.5t51.5 -69t25.5 -86.5t8 -89q0 -115 -40 -225t-96 -174t-107 -64
q-46 0 -91.5 43t-50.5 89zM110 293q38 0 74 28.5t59.5 57t29.5 28.5q12 0 22 -7q5 36 5 89q0 54 -10 98.5t-32 44.5q-40 0 -75 -30.5t-56.5 -76.5t-34 -96.5t-12.5 -94.5q0 -41 30 -41z" />
    <glyph glyph-name="colon" unicode=":" horiz-adv-x="244" 
d="M151 347q-32 13 -32 44q0 29 22.5 57.5t67.5 28.5q16 0 30 -15t14 -44q0 -12 -3 -28.5t-10 -35t-20.5 -31t-32.5 -12.5q-22 0 -31.5 8t-4.5 28zM80 61q0 29 22.5 57.5t67.5 28.5q16 0 30 -15t14 -44q0 -12 -3 -28.5t-10 -35t-20.5 -31t-32.5 -12.5q-24 0 -46 27.5
t-22 52.5z" />
    <glyph glyph-name="semicolon" unicode=";" horiz-adv-x="244" 
d="M150 347q-32 13 -32 44q0 29 22.5 57.5t67.5 28.5q16 0 30 -15t14 -44q0 -12 -3 -28.5t-10 -35t-20.5 -31t-32.5 -12.5q-22 0 -31.5 8t-4.5 28zM76 30q0 30 20 59t64 29q21 0 39 -23t18 -62q0 -84 -27.5 -144.5t-65.5 -83.5q-22 -15 -44.5 -3t-28.5 45q75 47 97 141
q-22 -5 -47 4t-25 38z" />
    <glyph glyph-name="less" unicode="&#x3c;" horiz-adv-x="308" 
d="M40 257l2 30q51 70 115.5 138.5t80.5 68.5q13 0 33 -23t16 -37q-24 -17 -72.5 -71t-90.5 -115q27 -52 73.5 -115.5t51.5 -70.5q16 -23 -2 -33l-19 -11q-17 -10 -31 10q-5 7 -27.5 37t-35.5 47.5t-32.5 45.5t-34.5 52.5t-27 46.5z" />
    <glyph glyph-name="equal" unicode="=" horiz-adv-x="446" 
d="M141 335q-12 -3 -27 12.5t-19.5 31t1.5 21.5q27 12 100.5 28.5t92.5 16.5q26 0 36 -5t25 -24q30 -38 0 -39q-54 -2 -209 -42zM85 254q114 47 208 47q10 0 28 -33q22 -43 1 -44q-71 1 -191 -35q-12 -4 -27.5 11.5t-20.5 31.5t2 22z" />
    <glyph glyph-name="greater" unicode="&#x3e;" horiz-adv-x="280" 
d="M260 278l-5 -33q-10 -13 -52 -76.5t-72.5 -102.5t-43.5 -37q-13 -1 -33 23.5t-12 36.5q74 115 135 200q-61 113 -106 168q-13 15 2 34l14 17q3 5 14.5 1t21.5 -17q73 -100 137 -214z" />
    <glyph glyph-name="question" unicode="?" horiz-adv-x="399" 
d="M101 439l-51 49q20 104 98.5 174t166.5 70q55 0 97.5 -45.5t42.5 -97.5q0 -53 -35.5 -116.5t-93.5 -140.5t-79 -115q-10 -11 -38.5 10t-36.5 45q15 35 53 83t71.5 86t60.5 87.5t27 93.5q0 18 -10 28t-25 10q-61 0 -115.5 -39t-83.5 -111l15 -15q0 -6 -9.5 -14.5
t-30.5 -24t-24 -17.5zM131 20q0 31 23 66.5t67 35.5q17 0 32.5 -13.5t15.5 -41.5q0 -17 -6 -39.5t-23 -44t-41 -21.5q-26 0 -47 17t-21 41z" />
    <glyph glyph-name="at" unicode="@" horiz-adv-x="710" 
d="M425 114h-5q-14 -29 -40.5 -49.5t-60.5 -20.5q-57 0 -93.5 51.5t-36.5 136.5q0 133 55.5 224t147.5 91q36 0 62 -18.5t26 -60.5q0 -11 -1.5 -21.5t-2.5 -15.5l-2 -5q0 -1 11 -3t21.5 -7.5t9.5 -15.5q-9 -56 -29.5 -136t-21.5 -92q-3 -36 10 -64t41 -28q48 0 80 93.5
t32 189.5q0 130 -52.5 207.5t-160.5 77.5q-86 0 -151.5 -41t-103 -112t-56 -157t-18.5 -185q0 -113 57.5 -181.5t134.5 -68.5q29 0 55.5 8t43.5 19.5t30.5 23t19.5 19.5l6 8q16 -12 21 -30t-2.5 -35.5t-24.5 -33t-47.5 -25.5t-68.5 -10q-87 0 -155.5 53.5t-102 133
t-33.5 166.5q0 97 22 185t65.5 160.5t116 115.5t164.5 43q141 0 221.5 -104.5t80.5 -262.5q0 -47 -8.5 -97.5t-25.5 -99.5t-48.5 -80t-71.5 -31q-29 0 -51 9t-33.5 24t-17.5 27t-9 25zM273 191q0 -82 36 -82q38 0 72.5 95.5t34.5 137.5q-33 5 -46 20q33 45 33 95
q0 32 -19 32q-33 0 -60 -55t-39 -122t-12 -121z" />
    <glyph glyph-name="A" unicode="A" horiz-adv-x="397" 
d="M271 96l14 3q-2 103 0 157q-63 -2 -163 -22q-54 -157 -75 -302q-5 -18 -42.5 -4.5t-44.5 24.5q9 99 66 261q-17 1 -29.5 28.5t-1.5 36.5q13 10 67 26q63 151 137.5 269.5t139.5 154.5q24 -3 36.5 -8.5t21.5 -19.5q-26 -122 -33 -278t-2.5 -253.5t12.5 -178.5
q-7 -13 -42.5 -2t-43.5 28q-18 40 -17 80zM313 610q-85 -113 -157 -285q24 5 49 7q53 5 57 -7q3 -7 11.5 -8t13.5 -6q7 163 30 298z" />
    <glyph glyph-name="B" unicode="B" horiz-adv-x="463" 
d="M52 -85q0 5 1 7q-24 3 -28 10q-4 6 -6 11.5t-3 9t0.5 9t2 7.5t3.5 8.5t4 8.5q3 0 33 -4q22 182 50.5 380t41.5 240q6 26 31.5 26.5t46.5 -19.5q-12 -46 -37 -224q10 0 28 -2q67 23 106 72t39 113q0 46 -33.5 72t-84.5 26q-123 0 -186 -95q-1 -1 2.5 -5t2.5 -6
q-30 -45 -39 -45q-8 0 -36 15.5t-29 24.5q3 7 8.5 18t26.5 39.5t47.5 50t72 39.5t98.5 18q102 0 165 -56t63 -133q0 -55 -32 -101t-91 -75q60 -28 96.5 -76.5t36.5 -107.5q0 -108 -91 -179t-216 -71h-10q-2 -14 -2 -21q-2 -12 -16 -12t-38 10.5t-28 16.5zM230 325
q-15 -3 -47 -7q-31 -251 -41 -339q101 11 162 74t61 160q0 54 -38 82t-97 30z" />
    <glyph glyph-name="C" unicode="C" horiz-adv-x="391" 
d="M10 231q0 91 32 202t93.5 197.5t131.5 86.5q45 0 81 -42.5t36 -98.5q0 -59 -33.5 -122.5t-55.5 -63.5q-11 0 -26.5 17.5t-21.5 33.5q6 10 16 27t27 64.5t19 87.5q0 15 -11 24t-23 9q-22 0 -55 -43.5t-63.5 -109t-52 -151.5t-21.5 -161t25 -117t66 -42t73 27t50 70.5
t28 81.5t15 78q11 1 18 1q33 0 33 -66q0 -53 -18 -113.5t-62 -110.5t-102 -50q-92 0 -145.5 77.5t-53.5 206.5z" />
    <glyph glyph-name="D" unicode="D" horiz-adv-x="493" 
d="M59 106q27 -122 133 -122q99 0 164.5 122t65.5 323q0 87 -34.5 140.5t-98.5 60.5q-49 -267 -86 -590q-1 -12 -16 -12q-14 0 -37.5 10.5t-27.5 16.5q28 255 91 566q-25 -10 -43.5 -29t-29.5 -47t-16.5 -48.5t-11.5 -53.5q0 -1 -4 -1q-6 0 -14.5 1.5t-21.5 4.5t-22 11
t-11 19q0 4 1.5 11.5t6.5 28.5t13 40.5t23 43.5t34 42t48 30.5t64 14.5q0 1 1 3q0 2 1 9t2.5 10t7 6t14.5 3q30 0 49 -21q-2 -12 -4 -16q92 -22 147.5 -105.5t55.5 -198.5q0 -212 -78 -335t-203 -123q-97 0 -172.5 73t-79.5 157q13 18 38.5 32t38.5 1q10 -10 20 -32.5
t12 -37.5q0 -3 -3 -4t-7 -0.5t-7.5 0t-2.5 -3.5z" />
    <glyph glyph-name="E" unicode="E" horiz-adv-x="366" 
d="M73 555q-12 -3 -26.5 11t-19 29t1.5 20q59 24 110 37q15 41 25 60q48 -7 63 -22q-4 -12 -5 -18q58 13 108 17q62 5 84 -22t22 -33q0 -5 -25 -25.5t-38 -29.5q-15 -9 -31 -6q-6 1 -5 5q1 5 5 14t8 15l3 6q-63 -6 -154 -27q-23 -92 -41 -201q47 8 61 9q62 5 74 -10
q5 -7 13.5 -14.5t13 -12t4.5 -8.5q0 -21 -14 -21q-64 -1 -163 -23q-13 -103 -19 -231q180 51 256 45q10 -1 28 -32q22 -40 0 -40q-87 -2 -288 -51v-29q-5 -14 -26 -8t-43 20q-1 0 -2.5 -0.5t-2.5 -1.5q-19 -4 -40 27q-17 27 -5 33l41 13q4 101 19 236q-12 -3 -26 8.5
t-18.5 25t0.5 20.5q10 9 54 23q15 109 38 202z" />
    <glyph glyph-name="F" unicode="F" horiz-adv-x="405" 
d="M50 551q-12 -3 -26.5 12.5t-19 30.5t2.5 21q54 22 160 41q12 40 22 62q39 -6 60 -28q-4 -17 -5 -22q107 15 190 21q64 5 76 -10q35 -44 35 -50t-6 -11t-15 -5q-135 -5 -299 -29q-21 -99 -40 -220q84 19 121 22q52 5 57 -7q3 -7 12.5 -8t14.5 -7q21 -26 21 -33
q0 -21 -15 -21q-74 -3 -225 -34q-23 -155 -40 -344q-5 -18 -38.5 -4.5t-41.5 24.5q14 133 39 305q-1 0 -3 -0.5t-3 -0.5q-19 -4 -36.5 25t-6.5 39q11 9 62 24q22 139 42 227q-42 -8 -95 -20z" />
    <glyph glyph-name="G" unicode="G" horiz-adv-x="404" 
d="M177 297q0 23 32 31t59 -2q57 23 114 23q26 0 36 -11q4 -4 13.5 -15t13.5 -16.5t4 -9.5q0 -21 -14 -21q-42 -1 -89 -8q38 -40 38 -105q0 -30 -12 -66t-34 -70t-59 -57t-82 -23q-91 0 -144 77.5t-53 206.5q0 91 31.5 202t92.5 197.5t131 86.5q45 0 82.5 -43t37.5 -98
q0 -41 -13 -79t-28.5 -58.5t-25.5 -20.5q-14 0 -37 18t-23 28q0 2 13 21.5t26 53.5t13 71q0 21 -12 32t-25 11q-22 0 -55 -43.5t-62.5 -109t-51 -151.5t-21.5 -161t24 -117t65 -42q67 0 108.5 48t41.5 119q0 38 -18 64q-70 -15 -73 -15q-15 -3 -29.5 17t-14.5 35z" />
    <glyph glyph-name="H" unicode="H" horiz-adv-x="446" 
d="M207 624l-13 -5q-25 -113 -47 -245q162 29 173 19l18 -19q33 226 62 337q7 26 28 28q34 3 58 -21q-37 -188 -68.5 -415.5t-31.5 -327.5q0 -23 -51 -1q-25 10 -30 17q-32 55 -18 83q2 4 9 0t7 2q10 106 28 245q-73 -4 -196 -26q-34 -220 -34 -368q0 -24 -54 2
q-24 11 -29 18q3 124 32 332l-43 -9q-19 -4 -36 23t-7 37q11 7 97 27q37 231 74 355q63 -9 75 -22q2 -51 -3 -66z" />
    <glyph glyph-name="I" unicode="I" horiz-adv-x="357" 
d="M109 99q29 257 90 516q-50 -10 -125 -28q-12 -3 -26.5 12.5t-19 30.5t2.5 21q128 52 291 64q62 5 84 -22q21 -26 21 -33q0 -5 -17.5 -19.5t-27.5 -19.5q-11 -6 -22.5 4t-16.5 10l-68 -8q-52 -249 -87 -528q90 18 156 14q10 -1 27 -34q21 -42 -1 -42q-123 -3 -352 -60
q-12 -3 -26.5 11.5t-19 30t2.5 22.5q8 5 20.5 16t21 15.5t14.5 0.5q3 -2 5.5 -4t4 -3.5l2.5 -2.5t2 -1q56 17 83 23q-15 9 -19 14z" />
    <glyph glyph-name="J" unicode="J" horiz-adv-x="403" 
d="M-10 119q0 59 20 129q5 5 18.5 7t35 -10.5t35.5 -35.5q19 -33 14 -44q-2 -5 -13.5 1.5t-14.5 0.5q-11 -22 -11 -82q0 -42 17.5 -70t47.5 -28q84 0 123 149.5t31 479.5v5q-114 -21 -160 -35q-16 -5 -32.5 17t-16.5 43q0 6 5 8q80 28 226.5 49t159.5 7l15 -16
q15 -15 20 -22l-10 -16q-8 -2 -38 -5.5t-45 -6.5q-18 -4 -62 -12q9 -5 17 -13q5 -252 -15 -406.5t-64.5 -223t-116.5 -68.5q-75 0 -130.5 60.5t-55.5 137.5z" />
    <glyph glyph-name="K" unicode="K" horiz-adv-x="408" 
d="M4 -4q46 515 105 685l1 5l2.5 5l2.5 5t3.5 5t4.5 3.5t6.5 3.5t7.5 1q31 3 55 -21q-31 -123 -55 -267q65 71 171.5 158t151.5 87q13 0 21.5 -9t4.5 -23q-23 -23 -95.5 -82t-137.5 -116.5t-90 -91.5q28 -37 114.5 -136.5t140.5 -174.5q11 -16 0 -33q-5 -8 -13.5 -13.5
t-17 -9.5t-10.5 -6q-16 -11 -32 10q-48 62 -132 159.5t-99 115.5q-11 -98 -18 -208q1 0 3 0.5t6.5 0.5t6.5 -1.5t4.5 -4.5t-1.5 -9l-23 -59q-10 -16 -45 -3t-43 24z" />
    <glyph glyph-name="L" unicode="L" horiz-adv-x="307" 
d="M-15 9q38 12 46 14q19 175 50.5 389.5t55.5 299.5q15 11 40.5 0t40.5 -26q-24 -110 -58 -306t-49 -334q146 37 237 32q10 -1 28 -34q22 -42 0 -42q-120 -3 -272 -39q-1 -10 -1 -28q-6 -14 -26 -8.5t-42 19.5q-4 0 -5 -1q-12 -3 -27 12.5t-20 31t2 20.5z" />
    <glyph glyph-name="M" unicode="M" horiz-adv-x="613" 
d="M306 235h7q38 152 104.5 340t95.5 188q14 0 34.5 -6.5t27.5 -16.5q-30 -444 37 -805q1 -6 -13 -8t-35.5 2.5t-37.5 14.5q-22 14 -34 247t-3 401q-155 -369 -159 -582q-4 -9 -24 -9t-38 11t-22 30q-25 246 -25 350q0 76 7 159l-4 5q-35 -59 -80.5 -207.5t-67.5 -309.5
q0 -7 4 -9t9 -1.5t8 -2.5t2 -11q-2 -12 -7 -25.5t-13.5 -31.5t-11.5 -26q-11 -16 -42.5 -3.5t-38.5 23.5q1 108 40 273.5t101.5 313t121.5 188.5q34 -6 52 -36q-10 -102 -7 -247t12 -209z" />
    <glyph glyph-name="N" unicode="N" horiz-adv-x="446" 
d="M304 149h8q12 142 65 376.5t84 234.5q15 0 37.5 -6.5t32.5 -16.5q-46 -124 -76.5 -234t-46 -214.5t-21 -157.5t-13.5 -155q-2 -9 -24 -9t-43.5 11t-29.5 31q-34 136 -64.5 306.5t-36.5 240.5l-6 5q-27 -58 -49 -218.5t-20 -336.5q1 -7 7 -5.5t13 -2.5q6 -5 -1 -18.5
t-17 -29t-10 -22.5q0 -24 -54 2q-23 11 -28 18q-6 189 36.5 448t109.5 328q39 -6 63 -36q10 -114 37.5 -297.5t46.5 -241.5z" />
    <glyph glyph-name="O" unicode="O" horiz-adv-x="428" 
d="M10 271q0 134 58 275.5t123 160.5q5 -1 8.5 -3t6.5 -5t4.5 -4t4.5 -6t4 -6q26 17 55 17q164 0 164 -247q0 -46 -6 -104t-22.5 -131t-41 -131.5t-68 -98.5t-97.5 -40q-50 0 -88.5 29t-60.5 77.5t-33 103.5t-11 113zM74 224q0 -89 26 -146t74 -57q54 0 94.5 64.5t59.5 156
t27.5 163.5t8.5 116q0 51 -16 87t-49 36q-31 0 -56 -18.5t-41.5 -49.5t-27 -62.5t-17.5 -67.5q0 -1 -3 -1q-6 0 -18.5 5.5t-17.5 10.5l-4 -11q-4 -10 -11 -31t-13.5 -48.5t-11 -66.5t-4.5 -80z" />
    <glyph glyph-name="P" unicode="P" horiz-adv-x="418" 
d="M55 -42q16 144 39 295q-47 6 -63 13q-15 6 -12 24.5t20 29.5q2 0 10.5 -3.5t22.5 -6t31 -2.5q38 245 53 294q0 2 1 9t2.5 10t7 6t14.5 3q34 0 53 -21q-18 -70 -49 -293q85 20 135 79t50 143q0 58 -40 92t-103 34q-142 0 -179 -112q-2 -3 -6 -3q-8 0 -36 18.5t-29 28.5
q1 5 4.5 13.5t19 30t37 37.5t62.5 29.5t93 13.5q107 0 181 -55t74 -149q0 -101 -75 -177t-197 -87l-28 -206q-1 -6 3.5 -7t11 0t10 -2.5t0.5 -13.5q-10 -31 -35 -77q-7 -12 -16 -12q-15 0 -39 9t-28 15z" />
    <glyph glyph-name="Q" unicode="Q" horiz-adv-x="435" 
d="M17 282q0 133 53.5 270t117.5 155q26 -8 38 -23q26 16 55 16q164 0 164 -241q0 -88 -22 -204.5t-71 -194.5q33 -51 68 -116q9 -18 0 -33q-5 -8 -11 -13t-13 -9.5t-8 -5.5q-19 -13 -32 10q-27 48 -60 103q-40 -29 -86 -29q-99 0 -146 86.5t-47 228.5zM184 165
q-16 20 5 38.5t50 27.5l62 -92q36 82 52 199t16 188q0 50 -15 85t-48 35q-49 0 -81 -37.5t-42 -81.5q0 -1 -3 -1q-6 0 -18.5 5t-17.5 10l-6 -15q-6 -16 -15.5 -46t-19 -67.5t-16 -87.5t-6.5 -99q0 -83 29.5 -135.5t78.5 -52.5q36 0 64 28q-35 55 -69 99z" />
    <glyph glyph-name="R" unicode="R" horiz-adv-x="414" 
d="M16 -31q13 116 44.5 321t54.5 332q-58 -27 -79 -92q-2 -3 -6 -3q-8 0 -36 18.5t-29 28.5q1 4 3.5 11t15 25t29 33.5t47.5 30t70 20.5l4 16q0 2 1 9t2.5 10t7 6t14.5 3q34 0 53 -21q-4 -11 -5 -20q95 -9 162 -72t67 -146q0 -88 -51 -142t-141 -68q95 -108 145 -177l9 4
q7 3 13 -1t11 -15.5t8 -19t6 -22.5l4 -15q7 -24 0 -33q-6 -8 -22.5 -20t-27.5 -13q-190 250 -249 310h-3l-29 -210q-1 -7 3 -21.5t2 -31.5q-9 -59 -31 -59q-15 0 -39 9t-28 15zM197 641q-26 -149 -49 -310q95 -2 152.5 43.5t57.5 137.5q0 58 -40 94t-103 36q-12 0 -18 -1z
" />
    <glyph glyph-name="S" unicode="S" horiz-adv-x="401" 
d="M49 96q0 -34 22 -61.5t63 -27.5q71 0 119 47.5t48 126.5q0 54 -18.5 106t-47 89.5t-62 66.5t-63 44.5t-49.5 16.5q-6 1 -19 23.5t-13 29.5q-1 31 67.5 66.5t154 56.5t135.5 17q13 -1 34 -22t21 -30q0 -33 -39.5 -72t-61.5 -39q-9 0 -9 11q0 4 17.5 30t17.5 32
q0 11 -47.5 -1t-103 -35.5t-76.5 -41.5q18 -10 42 -27t61 -54t66.5 -79.5t51 -105t21.5 -129.5q0 -93 -58.5 -144.5t-136.5 -51.5q-89 0 -147.5 66t-58.5 141q0 38 19.5 74t50.5 36q46 0 55 -34q-19 -19 -37.5 -55.5t-18.5 -69.5z" />
    <glyph glyph-name="T" unicode="T" horiz-adv-x="385" 
d="M53 560q-12 -3 -26.5 12.5t-19 30.5t2.5 21q70 29 206 48q1 3 13 46q45 -7 65 -28l-2 -8l82 7q64 5 76 -10q35 -44 35 -50t-6 -11t-15 -5q-82 -2 -187 -13q-47 -258 -77 -543q1 0 12 4t14 4t8 -4q3 -10 -8 -36.5t-24 -48.5l-12 -21q-10 -17 -43.5 -4.5t-41.5 24.5
q40 362 92 614q-68 -10 -144 -29z" />
    <glyph glyph-name="U" unicode="U" horiz-adv-x="423" 
d="M84 124q0 -124 63 -124q29 0 50.5 20.5t36 58t25.5 98t19.5 133t18.5 168.5q13 126 21 197q0 1 0.5 4.5t0.5 5t0.5 4.5t1.5 4.5t3 3.5t4.5 3t6 2t8.5 1q15 0 34.5 -8t27.5 -17q-6 -62 -28.5 -249.5t-27.5 -271.5q-4 -66 6 -91t33 -25q9 0 17 2.5t14 9t10 11t8 14.5
t5.5 14.5t5 15.5t3.5 12q2 0 6 -1t10 -8t6 -18q0 -40 -26 -80t-73 -40q-25 0 -39.5 18.5t-26.5 52.5q-10 -41 -47 -75.5t-94 -34.5q-157 0 -157 241q0 107 27 274t50 254q6 14 40 7t46 -20q-30 -106 -59.5 -282.5t-29.5 -283.5z" />
    <glyph glyph-name="V" unicode="V" horiz-adv-x="302" 
d="M284 627q1 2 -7.5 9.5t-6.5 11.5q11 24 36 50.5t35 26.5q12 0 26.5 -7t14.5 -16q-66 -153 -144 -413.5t-73 -369.5q-9 -14 -28 -14q-29 0 -62 24.5t-34 58.5t-13.5 204.5t-20 321t0.5 186.5q4 18 23 18q15 0 39.5 -10t24.5 -22q-8 -167 -2 -324.5t18 -269.5h7
q7 41 64.5 232.5t101.5 302.5z" />
    <glyph glyph-name="W" unicode="W" horiz-adv-x="568" 
d="M306 434h-7q-26 -62 -59.5 -228.5t-40.5 -261.5q-7 -13 -55 4q-43 48 -64 196t-17.5 310t25.5 271q6 4 24 3t36 -11t16 -23q-26 -222 -22 -376.5t28 -217.5l5 5q29 236 142 532q8 14 46 0.5t40 -21.5q-47 -244 14 -524q26 170 83.5 393t82.5 237q8 4 25 -1.5t29.5 -15
t9.5 -14.5q-124 -322 -188 -778q-44 -8 -74 9q-25 14 -49 190t-30 322z" />
    <glyph glyph-name="X" unicode="X" horiz-adv-x="431" 
d="M437 -9l-28 -14q-22 -10 -31 10q-38 85 -138 272l-116 -180l41 4q25 -1 24 -11q0 -8 -34 -29.5t-68 -38.5l-34 -18q-15 -1 -46 19t-24 32q191 301 203 320q-90 160 -124 205q-55 71 -50 96q4 21 25 26q20 5 36 -16q39 -52 152 -251q187 284 215 284q15 0 39.5 -18.5
t20.5 -31.5q-45 -62 -221 -331l115 -208q1 -2 10 -0.5t10 0.5q14 -11 24.5 -63t-1.5 -58z" />
    <glyph glyph-name="Y" unicode="Y" horiz-adv-x="381" 
d="M28 6q6 14 21 11.5t16 -0.5q40 88 100 232q-96 227 -134 303q-3 5 -14 1.5t-14 0.5q-9 14 -17.5 55.5t-3.5 48.5q33 46 59 8q35 -51 160 -329q78 184 130 284t84 100q16 0 36.5 -9.5t18.5 -22.5q-44 -47 -128 -238t-161 -386.5t-92 -222.5q-8 -1 -28 6t-37.5 18t-16.5 19
q13 101 21 121z" />
    <glyph glyph-name="Z" unicode="Z" horiz-adv-x="341" 
d="M61 305q-14 -2 -29 10t-20 25t1 20q25 17 145 42q99 163 144 217q-44 -1 -143.5 -21t-131.5 -36q-2 -1 -5.5 4t-7 14t-7 18.5t-6 19t-2.5 14.5q-1 33 160 63.5t208 27.5q12 -1 23 -21t11 -32q-29 -32 -166 -256q9 1 24 1q35 1 43 -16q4 -8 14 -9.5t16 -7.5q1 -1 6 -7
t8 -10.5t5.5 -10.5t-2.5 -9t-17 -2q-55 2 -147 -13q-139 -233 -146 -270q60 19 153.5 33.5t150.5 10.5q16 -3 27 -31.5t11 -40.5q0 -8 -33 -14t-99 -14t-112 -18q-85 -16 -140 -40q-16 -1 -24.5 12t-9.5 23.5t-2 30.5q0 57 144 302z" />
    <glyph glyph-name="bracketleft" unicode="[" horiz-adv-x="331" 
d="M40 -165q3 142 34.5 391t64.5 401q-13 12 -3.5 37.5t21.5 28.5q104 30 193 30q12 0 30 -35q21 -37 4 -37q-75 0 -172 -19q-71 -400 -88 -721q66 14 126 14q10 0 28 -32q20 -39 0 -40q-62 0 -158 -20q-7 -1 -20 -5.5t-20 -6t-18 1t-22 12.5z" />
    <glyph glyph-name="backslash" unicode="\" horiz-adv-x="405" 
d="M313 -158q-11 28 -57 223t-99.5 386t-90.5 238q0 13 13 22.5t27 9.5q33 0 70.5 -113t86.5 -315t72 -276q0 -2 11 1t14 -12q4 -13 5 -31t-1 -51.5t-2 -38.5q-1 -13 -19 -28.5t-30 -14.5z" />
    <glyph glyph-name="bracketright" unicode="]" horiz-adv-x="330" 
d="M-53 -120q43 8 102.5 13t69.5 6q71 400 88 721q-64 -2 -123 -12q-6 -1 -19.5 15.5t-19 32.5t7.5 22q19 4 52.5 9t76 10.5t59.5 8.5q6 2 13.5 0t11 -2t8.5 -4t6.5 -5t5 -5t4.5 -5q-4 -24 -29 -250t-50 -410.5t-37 -186.5q-24 -4 -69.5 -9.5t-75 -10.5t-48.5 -10
q-7 -2 -20 16t-18.5 34.5t4.5 21.5z" />
    <glyph glyph-name="asciicircum" unicode="^" horiz-adv-x="280" 
d="M23 500l-17 14l-3 2l-4.5 4.5l-4 4t-4 5t-2 6t0.5 7t3 7.5q25 38 66.5 88.5t77.5 78.5l43 -11q39 -29 86.5 -83.5t59.5 -78.5q7 -13 -9 -37q-12 -17 -21 -8q-13 14 -41.5 46.5t-49.5 54.5t-39 38q-81 -93 -104 -133q-9 -11 -19.5 -11t-18.5 6z" />
    <glyph glyph-name="underscore" unicode="_" horiz-adv-x="403" 
d="M31 -40q48 17 172.5 25t168.5 5q11 -1 27 -32q21 -39 -1 -39q-244 -6 -324 -18q-20 -3 -39 28q-17 27 -4 31z" />
    <glyph glyph-name="grave" unicode="`" 
d="M294 591l-93 134q-6 7 -3 16.5t14 13.5q12 5 32 5.5t31 -10.5l24 -48l31 -62t16 -31q3 -6 -1 -12.5t-11 -9.5q-29 -12 -40 4z" />
    <glyph glyph-name="a" unicode="a" horiz-adv-x="383" 
d="M254 46h-5q-13 -29 -42.5 -51t-63.5 -22q-57 0 -93.5 54t-36.5 144q0 141 58 251t145 110q47 0 72.5 -23.5t25.5 -50.5l-1 -11q1 0 10.5 -2t16.5 -4t12 -7.5t3 -13.5q-56 -202 -56 -295q0 -77 42 -77q35 0 50.5 34t22.5 91h8t13 -7t8 -20q0 -50 -33 -108t-84 -58
q-31 0 -50.5 22t-21.5 44zM97 127q0 -47 8.5 -66.5t27.5 -19.5q38 0 75.5 115t37.5 160q-32 6 -46 22q34 47 34 100q0 33 -19 33q-49 0 -83.5 -123t-34.5 -221z" />
    <glyph glyph-name="b" unicode="b" horiz-adv-x="334" 
d="M13 175q0 73 23 212t49 245.5t35 106.5q18 0 42.5 -12.5t24.5 -21.5q-63 -254 -68 -282q21 46 47 69.5t49 23.5q46 0 82.5 -54t36.5 -111q0 -36 -9 -94.5t-26.5 -126.5t-52 -115.5t-78.5 -47.5q-75 0 -115 54t-40 154zM110 230l-13 2l-2 -13q-2 -13 -5 -42t-3 -61
q0 -31 11.5 -51.5t32.5 -20.5q39 0 67.5 51t40.5 121t17 115.5t5 61.5t-0.5 23t-2.5 18t-7.5 15.5t-15.5 4.5q-21 0 -42.5 -26t-37.5 -65t-26.5 -72t-16.5 -60q0 -1 -2 -1z" />
    <glyph glyph-name="c" unicode="c" horiz-adv-x="301" 
d="M11 167q0 69 19 143.5t63.5 134t103.5 59.5q39 0 69.5 -31t30.5 -71q0 -66 -22 -102t-52 -36q-44 0 -44 48v6q34 37 34 103q0 24 -18 24q-39 0 -70 -97t-31 -213q0 -122 70 -122q38 0 72.5 35.5t53 78t21.5 76.5q10 1 16 1q31 0 31 -56q0 -17 -9 -47t-27 -66t-55 -62
t-85 -26q-76 0 -123.5 61t-47.5 159z" />
    <glyph glyph-name="d" unicode="d" horiz-adv-x="353" 
d="M234 54h-3q-13 -36 -39.5 -70t-56.5 -34q-61 0 -90.5 60.5t-29.5 137.5q0 56 12 118t35 119.5t62 95t87 37.5q14 0 28 -6t21 -12l7 -6q10 54 33 236q2 20 16 20q28 0 49 -9.5t18 -24.5q-13 -69 -49.5 -327.5t-36.5 -292.5q0 -48 33 -48q23 0 39 37t22 88h8t13 -7t8 -20
q0 -50 -33 -108t-84 -58q-31 0 -50 21.5t-19 52.5zM90 88q0 -66 22 -66q35 0 83 120t48 164q-19 4 -30 20q25 84 25 107q0 35 -18 35q-50 0 -90 -131t-40 -249z" />
    <glyph glyph-name="e" unicode="e" horiz-adv-x="264" 
d="M0 117q0 84 24 182.5t64.5 170t82.5 71.5q33 0 57.5 -29.5t24.5 -92.5q0 -104 -29 -174t-85 -70q-19 0 -33.5 10.5t-19.5 20.5l-5 11q-18 -53 -18 -134q0 -82 69 -82q53 0 96 67.5t43 123.5q0 11 14 11q12 0 20.5 -13.5t8.5 -34.5q0 -47 -17 -99t-56.5 -93.5t-91.5 -41.5
q-61 0 -105 53t-44 143zM93 260q5 -25 25 -25q25 0 45 66.5t20 138.5q0 47 -12 47q-7 0 -15 -18q-48 -107 -63 -209z" />
    <glyph glyph-name="f" unicode="f" horiz-adv-x="264" 
d="M68 369l-29 28q-10 10 -19 28t-9 32t6 17q1 0 68 15q8 47 20.5 146t15.5 120q15 4 31 4q50 0 50 -42q0 -45 -37 -216q119 21 158 21q19 0 33 -19.5t14 -38.5q0 -13 -19 -15q-82 -9 -202 -32l-1 -5q52 -58 72.5 -112t20.5 -148q0 -73 -19 -138.5t-46.5 -105.5t-55 -63
t-46.5 -23q-62 0 -62 111q0 37 5 90q9 94 29 210t22 136zM98 15q-7 -61 -7 -82q0 -41 17 -41q5 0 13.5 8t20 26t21.5 43t17 65t7 85q0 148 -51 213q-2 -21 -16.5 -132.5t-21.5 -184.5z" />
    <glyph glyph-name="g" unicode="g" horiz-adv-x="347" 
d="M44 -96q8 -19 32.5 -41.5t40.5 -32.5q34 15 68 85t49 155q-1 -1 -8 -11.5t-10.5 -14.5t-11 -14t-13.5 -15t-14 -11.5t-16 -9t-16 -2.5q-60 0 -96 53.5t-36 144.5q0 140 58.5 238t150.5 98q86 0 86 -77l-1 -14q6 0 15 -1.5t18.5 -8.5t8.5 -17q-3 -23 -11.5 -94.5
t-19.5 -147t-26 -143.5q-27 -123 -68.5 -187.5t-84.5 -64.5q-53 0 -98 23t-55 47q-10 26 7 47.5t51 15.5zM91 146q0 -44 14 -67.5t35 -23.5q38 0 74 85.5t42 166.5q-13 -1 -27 15q16 36 16 102q0 17 -8 29t-22 12q-34 0 -64 -59t-45 -131.5t-15 -128.5z" />
    <glyph glyph-name="h" unicode="h" horiz-adv-x="388" 
d="M236 343l-12 2q-20 -27 -62 -154t-48 -213q-4 -9 -25 -9q-25 0 -48.5 22.5t-23.5 39.5q0 111 29 401.5t54 319.5q11 13 45 0.5t34 -32.5q0 -26 -4 -50t-12.5 -55t-11.5 -47q-10 -49 -28 -191.5t-18 -174.5l9 -2q0 1 9.5 27t14 39t15.5 43t18.5 48t19 45t21 43.5t20 33
t19.5 24.5t17 8q22 0 50 -14t28 -29q0 -16 -25 -150.5t-25 -208.5q0 -72 44 -72q21 0 41 32.5t33 76.5q3 0 8 -0.5t13 -8t8 -23.5q0 -51 -41 -93t-91 -42q-36 0 -61 28.5t-34 64t-9 73.5q0 43 10.5 107t18.5 91z" />
    <glyph glyph-name="i" unicode="i" horiz-adv-x="198" 
d="M146 568q-15 0 -28.5 16t-13.5 47q0 13 3 30t9.5 36.5t20 32.5t30.5 13q21 0 29.5 -8t3.5 -30q30 -16 30 -46q0 -31 -21 -61t-63 -30zM20 79q0 70 24 200.5t43 199.5q4 13 18 13q37 0 61 -14q16 -9 12 -23q-76 -280 -75 -382q0 -26 8.5 -40.5t21.5 -14.5q22 0 38.5 17
t25.5 43t13.5 48t5.5 41q2 0 4 0.5t8.5 0t11.5 -2.5t9 -9.5t4 -18.5q0 -37 -12.5 -75t-48 -70.5t-86.5 -32.5q-86 0 -86 120z" />
    <glyph glyph-name="j" unicode="j" horiz-adv-x="154" 
d="M119 583q-14 0 -27 14.5t-13 41.5q0 30 14.5 65t45.5 35q20 0 33 -11t14 -32q11 -5 12.5 -9t1.5 -23q0 -28 -20 -54.5t-61 -26.5zM73 436q3 44 12 51q5 4 12 4q44 0 70 -23q-6 -45 -13 -115t-13 -131t-14 -131t-19 -125t-25 -101.5t-35 -72t-47 -25.5q-68 0 -119 19
q-27 10 -24 40t31 34q44 -27 97 -39q27 23 51 215t36 400z" />
    <glyph glyph-name="k" unicode="k" horiz-adv-x="332" 
d="M15 5q-2 58 0 152q2 69 13.5 165t34 244t23.5 157q3 27 18 27q34 0 58 -14q11 -6 12 -14t-2 -19q-12 -65 -35 -209t-25 -155q53 64 120.5 124t114.5 60q13 0 21.5 -9t4.5 -23q-161 -131 -223 -215q21 -29 66.5 -86.5t83 -108.5t75.5 -109q15 -23 0 -33q-8 -6 -45 -17
q-22 -6 -32 10q-109 175 -198 276q-9 -102 -3 -211q1 -34 -14 -32l-24.5 3.5t-20.5 3.5q-14 5 -17.5 10.5t-5.5 22.5z" />
    <glyph glyph-name="l" unicode="l" horiz-adv-x="155" 
d="M23 0q-4 9 1 90q7 114 35 316t55 333q2 9 15 9q19 0 42.5 -16t21.5 -29q-70 -413 -85 -657q-4 -54 -5 -81q-8 -12 -42 4.5t-38 30.5z" />
    <glyph glyph-name="m" unicode="m" horiz-adv-x="495" 
d="M198 314h-9q-79 -225 -78 -331q-13 -15 -34 -15q-67 0 -67 130q0 82 12.5 181.5t29.5 166t28 66.5q23 0 42.5 -12t17.5 -23q-4 -20 -16 -75.5t-18 -85.5t-11.5 -69t-5.5 -62h4q74 217 104 288q4 9 22 9q24 0 45 -11.5t19 -33.5q-1 -9 -12 -111.5t-12 -149.5h4
q8 23 34 105.5t47 137.5t46 104q4 9 22 9q24 0 48 -14t22 -36q-3 -42 -32 -172.5t-29 -192.5q0 -76 41 -76q37 0 61 79q2 0 6 -1t10 -8t6 -18q0 -38 -32.5 -79t-80.5 -41q-87 0 -87 153q0 45 30 198h-12q-32 -69 -60 -185.5t-27 -184.5q-13 -15 -34 -15q-32 0 -42.5 28
t-11.5 91q-2 126 10 256z" />
    <glyph glyph-name="n" unicode="n" horiz-adv-x="330" 
d="M206 324h-12q-34 -74 -64 -180.5t-29 -172.5q-13 -15 -34 -15q-57 0 -57 130q0 175 22 294.5t65 119.5q8 0 14.5 -1.5t12.5 -8t5 -17.5q-2 -19 -21 -124.5t-19 -163.5h4q84 246 132 338q4 9 22 9q24 0 48 -14t22 -36q-3 -39 -32 -164.5t-29 -200.5q0 -76 41 -76
q37 0 61 79q2 0 6 -1t10 -8t6 -18q0 -38 -32.5 -79t-80.5 -41q-87 0 -87 153q0 65 26 198z" />
    <glyph glyph-name="o" unicode="o" horiz-adv-x="323" 
d="M16 215q4 100 44.5 200t86.5 114q22 -12 26 -25q14 12 35 12q38 0 63 -16t37 -46t16 -63t3 -76q-2 -48 -11 -102t-27 -112.5t-53 -96t-80 -37.5q-49 0 -83 40t-46.5 94t-10.5 114zM80 175q-2 -59 13 -98.5t45 -39.5q32 0 58 41.5t39.5 100.5t20.5 107t8 77q2 71 -11 89
q-9 11 -22 11q-20 0 -40.5 -27.5t-35.5 -68t-24.5 -75.5t-14.5 -61q-1 -3 -12.5 1t-16.5 8q-6 -28 -7 -65z" />
    <glyph glyph-name="p" unicode="p" horiz-adv-x="338" 
d="M70 22q-5 -42 -13 -129.5t-11 -106.5q-1 -10 -3.5 -12t-8.5 -3t-30 6t-36 15q-2 1 -2.5 8.5t1 22t3 30.5t5 41t6.5 46.5t8 54.5t8.5 57t9 61t9.5 61q3 107 20.5 221t36.5 114q17 0 37 -12.5t19 -21.5l-2 -22q44 63 91 63q38 0 63 -16t37 -46t16 -63t3 -76
q-2 -48 -11 -102t-27 -112.5t-53 -96t-80 -37.5q-68 0 -94 76zM93 175q-2 -61 12 -99.5t43 -38.5q32 0 58 41.5t39.5 100.5t20.5 107t8 77q2 71 -11 89q-9 11 -22 11q-20 0 -40.5 -27.5t-35.5 -68t-24.5 -75.5t-14.5 -61q-1 -3 -10.5 1t-14.5 8q-7 -32 -8 -65z" />
    <glyph glyph-name="q" unicode="q" horiz-adv-x="339" 
d="M13 171q0 142 59 248.5t150 106.5q86 0 86 -77l-1 -14q6 0 15.5 -1.5t20.5 -8.5t10 -17q-21 -141 -53 -263q-18 -123 -37 -277q0 -3 2.5 -4.5t6.5 -2t7 -2t3 -3.5q1 -17 -6.5 -39t-15.5 -36l-8 -14q-40 -3 -67 15q-20 13 21 234q-30 -43 -63 -43q-57 0 -93.5 54
t-36.5 144zM97 127q0 -47 8.5 -66.5t27.5 -19.5q38 0 75.5 112t37.5 157q-19 3 -33 19q25 41 25 97q0 39 -23 39q-49 0 -83.5 -120t-34.5 -218z" />
    <glyph glyph-name="r" unicode="r" horiz-adv-x="270" 
d="M115 297l7 -3q12 29 22.5 65.5t22.5 83t15 55.5q11 37 62 25q32 -8 32 -35q0 -14 -21.5 -71t-21.5 -98q0 -11 9 -20.5t21 -9.5q18 0 31 14.5t19 29.5t8 15q6 0 11 -4t5 -9q-2 -31 -25.5 -61.5t-59.5 -30.5q-41 0 -58 22.5t-20 60.5q-1 -3 -10.5 -31t-15 -43.5
t-14.5 -49.5t-14 -62.5t-9.5 -68t-4.5 -78.5q-17 -10 -52.5 4.5t-35.5 31.5q0 9 3 34t8 89.5t8 159.5q1 33 1.5 50t2.5 44t4.5 41.5t6.5 30t10.5 22.5t14.5 7q12 0 26 -5.5t23 -11.5l8 -6q-1 -26 -9 -91t-10 -96z" />
    <glyph glyph-name="s" unicode="s" horiz-adv-x="285" 
d="M90 367l1 -4q7 -3 19.5 -9.5t44.5 -30.5t56 -51t44 -71.5t20 -93.5q0 -81 -36.5 -119.5t-93.5 -38.5q-62 0 -113.5 56t-51.5 117q0 34 18 75t42 41q10 0 27.5 -15t17.5 -22q0 -19 -21.5 -68.5t-21.5 -51.5q0 -7 5 -19t22.5 -25.5t43.5 -13.5q46 0 69.5 30.5t23.5 83.5
q0 71 -52 124t-108 60q-13 11 -20.5 33.5t-5.5 42.5q3 27 122 78t140 51q8 0 20.5 -15.5t12.5 -28.5q0 -27 -36 -60t-57 -33q-5 0 -11.5 13.5t-11.5 13.5q-18 -1 -60 -21.5t-49 -27.5z" />
    <glyph glyph-name="t" unicode="t" horiz-adv-x="296" 
d="M47 415q-19 -4 -36.5 22t-6.5 36q16 13 107 31q30 115 47 127q12 8 40.5 -10t25.5 -27l-20 -74q28 4 47 6q16 3 29.5 2.5t17.5 -9.5q3 -7 12 -8t15 -7q5 -5 13 -17t8 -16q0 -15 -15 -15q-54 -1 -148 -16q-64 -248 -64 -361q0 -42 32 -42q44 0 92.5 42t51.5 82q1 -2 9 0
t17.5 -11t9.5 -40q0 -50 -54.5 -98t-104.5 -48q-52 0 -88.5 49t-36.5 125q0 94 45 287z" />
    <glyph glyph-name="u" unicode="u" horiz-adv-x="349" 
d="M215 139l-6 -1q-43 -152 -90 -152q-35 0 -74.5 43.5t-39.5 92.5q0 91 36 229.5t63 138.5q10 0 26.5 -8.5t22.5 -18.5q-64 -220 -64 -388l14 -5q50 82 90.5 210t50.5 216q1 12 17 12q22 0 44 -12.5t22 -25.5q0 -14 -24 -150.5t-24 -178.5q0 -26 10 -51.5t32 -25.5
q19 0 34.5 23t20.5 46l6 23q27 0 27 -25q0 -34 -35 -82t-74 -48q-35 0 -56 24t-26 52t-3 62z" />
    <glyph glyph-name="v" unicode="v" horiz-adv-x="247" 
d="M115 133h7q17 102 64 275.5t80 173.5q12 0 26.5 -7t14.5 -16q0 -4 -6 -17.5t-13.5 -30t-9.5 -23.5q-114 -342 -114 -539q-9 -14 -28 -14q-40 0 -62.5 22.5t-23.5 60.5q0 2 -10 87.5t-10 157.5l6 252q4 18 23 18q15 0 39.5 -10t24.5 -22q-16 -101 -16 -240q0 -28 1.5 -55
t4 -48.5t2.5 -24.5z" />
    <glyph glyph-name="w" unicode="w" horiz-adv-x="372" 
d="M192 263h-5q-50 -131 -56 -273q-6 -11 -28 -11q-73 0 -73 274q0 76 11 165.5t31 89.5t42.5 -12.5t19.5 -28.5q-23 -118 -23 -231q0 -15 3 -48h5q57 159 87 327q4 18 23 18q13 0 34.5 -10t19.5 -22q-31 -190 -23 -348h7q8 46 18 96t30 136.5t43.5 141.5t45.5 55
q38 0 38 -23q0 -3 -4.5 -13t-12 -26.5t-12.5 -31.5q-114 -316 -114 -539q-9 -14 -28 -14q-63 0 -69 103q-10 170 -10 225z" />
    <glyph glyph-name="x" unicode="x" horiz-adv-x="326" 
d="M330 -31l-19 -11q-21 -12 -31 10q-52 114 -101 214q-71 -104 -76 -110l8 -19q-24 -30 -46.5 -48t-32.5 -21l-10 -2q-13 -1 -33 23.5t-12 36.5q88 136 155 230q-61 113 -106 168q-13 15 2 34l14 17q3 5 14.5 1t21.5 -17q37 -50 92 -149q122 168 151 168q13 0 33 -23
t16 -37q-34 -23 -153 -196q71 -133 115 -236q11 -26 -2 -33z" />
    <glyph glyph-name="y" unicode="y" horiz-adv-x="303" 
d="M5 140q0 151 67 356q3 9 24 9q16 0 33 -11.5t18 -29.5q-65 -230 -65 -362q0 -52 23 -52q22 0 49 51t36 93q2 8 13 96.5t25.5 158t29.5 69.5q25 0 45 -12t20 -28q0 -54 -26.5 -157t-30.5 -132q-46 -310 -46 -418q0 -8 -10 -8q-24 0 -63 22q-10 6 -10 25t15.5 115t18.5 134
q-26 -63 -71 -63q-28 0 -48 13.5t-29.5 37t-13.5 46t-4 47.5z" />
    <glyph glyph-name="z" unicode="z" horiz-adv-x="299" 
d="M-15 24q0 84 224 357q-25 -2 -59.5 -11t-71.5 -21t-47 -15q-3 -1 -10 12.5t-12 30.5t-5 26q0 32 121 58.5t171 26.5q12 0 22.5 -19t10.5 -31q-63 -73 -159.5 -198t-104.5 -163q14 3 53 12t56 12.5t47 7t59 3.5q17 -3 27.5 -30.5t10.5 -39.5q0 -8 -30.5 -14.5t-73 -11.5
t-53.5 -7q-80 -19 -141 -48q-16 -3 -24.5 9.5t-9.5 23.5t-1 30z" />
    <glyph glyph-name="braceleft" unicode="{" horiz-adv-x="331" 
d="M161 268l1 -6q40 -7 62 -23.5t22 -50.5q0 -40 -25.5 -118t-25.5 -97q0 -52 42.5 -66t88.5 10q6 2 17.5 -13t16 -30t-3.5 -21q-24 -10 -60.5 -13t-78 4t-70.5 40.5t-29 90.5q0 40 25 114t25 95q0 53 -87 53q-17 0 -32 31.5t-2 47.5q1 1 16.5 0t40 3t47.5 11t39.5 24
t16.5 41q0 31 -15 103t-15 104q0 41 14.5 68.5t35 39.5t53.5 16.5t57 3t59 -6.5q12 -2 27 -35q17 -34 0 -32q-6 1 -18 2q-45 5 -77.5 6t-50.5 -14.5t-18 -52.5q0 -41 10.5 -114t10.5 -114q0 -28 -11 -48t-32 -30.5t-37 -14.5t-39 -8z" />
    <glyph glyph-name="bar" unicode="|" horiz-adv-x="276" 
d="M101 2q0 11 4 13.5t8.5 0t5.5 1.5q6 135 3.5 280t4.5 273t30 151q9 9 22 1t17 -23q-17 -71 -17 -440.5t-4 -396.5q-38 -3 -45 19q-2 8 -12 39.5t-14 50t-3 31.5z" />
    <glyph glyph-name="braceright" unicode="}" horiz-adv-x="331" 
d="M264 286l1 4q-20 3 -34 6.5t-33 12t-29 24.5t-10 39q0 39 32 114t32 135q0 34 -22.5 40.5t-100.5 -5.5q-14 0 -29.5 22t-15.5 38q0 14 91 14q66 0 113 -35t47 -100q0 -31 -34.5 -106.5t-34.5 -108.5q0 -21 11.5 -35t30.5 -19.5t32 -7.5t26 -2h7q38 -62 38 -73
q0 -4 -22.5 -6.5l-49.5 -5.5t-49.5 -19.5t-22.5 -46.5q0 -17 8.5 -72.5t8.5 -91.5q0 -90 -62.5 -133t-170.5 -25q-11 2 -26.5 29t-15.5 37l4 8q30 -9 60.5 -11.5t61.5 3t50.5 29t19.5 62.5q0 22 -8.5 82.5t-8.5 90.5q0 58 26 81t79 32z" />
    <glyph glyph-name="asciitilde" unicode="~" horiz-adv-x="393" 
d="M71 227q-13 0 -19 26.5t4 37.5q46 52 87 52q28 0 51 -13t40.5 -26t31.5 -13q22 0 40 22.5t24 22.5q7 0 11 -15t1 -33.5t-14 -27.5q-1 -1 -12.5 -11t-17 -13t-17 -10t-23 -9.5t-25.5 -2.5q-28 0 -67 28.5t-53 28.5q-8 0 -22 -22t-20 -22z" />
    <glyph glyph-name="uni00A0" unicode="&#xa0;" horiz-adv-x="0" 
 />
    <glyph glyph-name="exclamdown" unicode="&#xa1;" horiz-adv-x="272" 
d="M202 211q-4 -112 -17.5 -254.5t-31.5 -212.5q-1 -6 -6 -10t-9 -4q-9 0 -27 7.5t-31 17.5q-5 4 -0.5 14t1.5 14q-3 3 -10.5 10t-10 12t-0.5 13q6 26 20.5 86t20 86t15 73t15.5 90t11 93q8 12 34.5 -4.5t25.5 -30.5zM266 453q0 -29 -22.5 -57.5t-67.5 -28.5q-16 0 -30 15
t-14 44q0 12 3 28.5t10 35t20.5 31t32.5 12.5q24 0 46 -27.5t22 -52.5z" />
    <glyph glyph-name="cent" unicode="&#xa2;" horiz-adv-x="301" 
d="M119 -143q5 51 12 98q-55 19 -87.5 75.5t-32.5 136.5q0 64 23 135.5t75 131.5t121 68q12 53 24 89q32 8 35 -28l-12 -61q48 -6 76 -34t28 -67q0 -35 -19.5 -47.5t-49.5 9.5q0 1 0.5 11t1 18t-1.5 20t-6.5 20.5t-14 15t-23.5 7.5q-57 -293 -77 -437q46 16 80.5 76
t39.5 109q10 1 16 1q31 0 31 -56q0 -17 -9 -46.5t-27 -66t-55 -62.5t-84 -26q-2 -12 -2 -18q12 -9 8 -28q-8 -34 -25 -63q-15 -24 -45 19zM84 135q0 -101 56 -118q31 216 76 425q-55 -31 -93.5 -121.5t-38.5 -185.5z" />
    <glyph glyph-name="sterling" unicode="&#xa3;" horiz-adv-x="512" 
d="M63 240q-19 -4 -34.5 18t-4.5 32q19 15 94 28q7 65 16 116.5t26.5 107t41 92t60 60t82.5 23.5q62 0 104 -41t39 -110q-3 -59 -42.5 -117.5t-67.5 -58.5q-14 0 -27 16t-20 35q10 9 24 24t38.5 59.5t26.5 84.5q1 22 -13 37.5t-35 15.5q-131 0 -180 -335q8 0 12 1
q48 4 73 -22q4 -4 12 -16.5t8 -16.5q0 -9 -15 -9q-53 -2 -99 -6q-6 -46 -15 -187q18 2 129 23.5t141 23.5q13 1 28 -16t22.5 -34.5t2.5 -20.5q-19 -10 -168.5 -26.5t-165.5 -20.5q-60 -95 -98 -52q-24 28 -14 56t49 45q5 31 18 200q-29 -5 -48 -9z" />
    <glyph glyph-name="currency" unicode="&#xa4;" horiz-adv-x="547" 
d="M112 248q3 63 44 124q-22 28 -52 60q-14 12 1 27l15 14q3 4 14.5 0.5t21.5 -13.5q4 -4 11.5 -13t14.5 -17t13 -16q18 14 36 18q19 -6 24 -15q13 7 32 7q22 0 42 -5q59 56 78 56q13 0 34 -18.5t17 -29.5q-25 -14 -69 -61q9 -26 7 -59q-4 -77 -41 -136q20 -33 50 -85
q10 -20 -2 -27l-19 -9q-21 -12 -32 8l-39 67q-31 -22 -73 -22t-73 21q-23 -23 -40 -38.5t-23 -19.5l-5 -5q-14 0 -34.5 19.5t-12.5 30.5q11 13 67 78q-9 29 -7 59zM182 230q0 -30 11.5 -49t34.5 -19q25 0 45.5 20.5t31.5 50t16.5 54t5.5 38.5q3 49 -31 49q-45 0 -79.5 -41
t-34.5 -103z" />
    <glyph glyph-name="yen" unicode="&#xa5;" horiz-adv-x="511" 
d="M121 184q-19 -4 -36.5 22t-6.5 36q16 13 107 31q-83 196 -124 279q-3 5 -14 1.5t-14 0.5q-9 14 -17.5 55.5t-3.5 48.5q33 46 59 8q38 -53 159 -326q80 190 130 285.5t85 95.5q16 0 36.5 -9.5t18.5 -22.5q-56 -60 -199 -397l44 5q16 3 29.5 2.5t17.5 -9.5q3 -7 12 -8
t15 -7q5 -5 13 -17t8 -16q0 -15 -15 -15q-57 -1 -145 -15l-3 -47l30 3q48 4 74 -22q5 -5 13 -17t8 -16q0 -15 -15 -15q-56 -2 -115 -9l-12 -197q-8 -1 -28 6t-37.5 18t-16.5 19l8 142q-26 -5 -65 -13q-19 -4 -35.5 21t-5.5 35q18 14 111 32l3 47q-20 -4 -73 -15z" />
    <glyph glyph-name="brokenbar" unicode="&#xa6;" horiz-adv-x="276" 
d="M122 375q2 312 35 346q9 9 22 1t17 -23q-14 -58 -16 -314q-2 -9 -23 -12.5t-35 2.5zM101 2q0 11 4 13.5t8.5 0t5.5 1.5q3 57 3 190q34 29 57 10q0 -325 -4 -355q-38 -3 -45 19q-2 8 -12 39.5t-14 50t-3 31.5z" />
    <glyph glyph-name="section" unicode="&#xa7;" horiz-adv-x="571" 
d="M483 578q-3 29 -25.5 51.5t-63.5 22.5q-71 0 -112.5 -37.5t-34.5 -104.5q5 -55 37.5 -107t75 -85t83 -53.5t66.5 -21.5q6 0 15 -13.5t10 -20.5q4 -33 -47.5 -70.5t-101.5 -48.5q52 -74 60 -155q7 -76 -46.5 -119t-130.5 -43q-89 0 -151.5 54.5t-69.5 116.5q-3 32 13.5 62
t47.5 30q45 0 56 -29q-17 -13 -29.5 -41.5t-11.5 -56.5q3 -29 26 -51.5t64 -22.5q71 0 113 37t35 103q-5 55 -37.5 107t-75 85t-83 53.5t-66.5 22.5q-5 0 -14.5 13.5t-10.5 19.5q-5 34 46.5 72t102.5 47q-52 74 -60 155q-7 76 46.5 119t130.5 43q89 0 152 -54.5t69 -116.5
q3 -32 -14 -62t-48 -30q-44 0 -55 29q16 14 29 43t10 57zM173 272q24 -12 72.5 -46.5t90.5 -78.5q89 22 108 71q-98 43 -175 121q-81 -26 -96 -67z" />
    <glyph glyph-name="dieresis" unicode="&#xa8;" 
d="M163 646q-29 12 -29 39q0 26 21 51.5t62 25.5q15 0 28 -13.5t13 -39.5q0 -29 -14.5 -62t-46.5 -33q-21 0 -29.5 7t-4.5 25zM291 673q0 25 21 50.5t62 25.5q15 0 28 -13.5t13 -38.5q0 -29 -14.5 -62.5t-46.5 -33.5q-22 0 -42.5 24.5t-20.5 47.5z" />
    <glyph glyph-name="copyright" unicode="&#xa9;" horiz-adv-x="719" 
d="M50 321q0 66 22 132.5t62.5 123t107.5 92t148 35.5q51 0 96 -20t66 -53q19 8 28 -1q89 -91 89 -257q0 -159 -94 -265t-240 -106q-134 0 -209.5 91.5t-75.5 227.5zM110 274q0 -92 61 -158t139 -66q140 0 220.5 92t80.5 263q0 54 -13.5 101t-35.5 71q-23 -6 -33 11
q-15 27 -48.5 45.5t-70.5 18.5q-151 0 -225.5 -106.5t-74.5 -271.5zM342 413v5q29 15 29 61q0 17 -16 17q-32 0 -57.5 -63.5t-25.5 -139.5q0 -79 53 -79q45 0 79 43.5t39 80.5h25q26 0 26 -39q0 -12 -7.5 -32.5t-23 -45.5t-47 -43t-72.5 -18q-65 0 -105 42.5t-40 110.5
q0 48 16 99.5t54 93t88 41.5q33 0 59 -21.5t26 -49.5q0 -46 -19 -71t-44 -25q-37 0 -37 33z" />
    <glyph glyph-name="ordfeminine" unicode="&#xaa;" horiz-adv-x="372" 
d="M240 350h-4q-11 -19 -32 -33.5t-45 -14.5q-49 0 -79 35t-30 96q0 92 41.5 162.5t108.5 70.5q36 0 62 -17.5t26 -46.5l-3 -23q1 0 11 -1.5t17.5 -5.5t6.5 -10q-32 -157 -32 -158q-5 -49 23 -49q35 0 43 80q1 -1 9.5 0t18.5 -6.5t10 -22.5q0 -34 -25 -68.5t-67 -34.5
q-29 0 -43.5 15.5t-16.5 31.5zM133 408q-1 -53 19 -53q21 0 45 70t25 98q-19 4 -27 13q21 29 22 61q0 20 -10 20q-28 0 -50 -74.5t-24 -134.5zM104 169q-11 -2 -24 13t-17 30t3 20q43 14 130 23.5t122 7.5q10 -1 24 -32q19 -39 -1 -39q-161 -6 -237 -23z" />
    <glyph glyph-name="guillemotleft" unicode="&#xab;" horiz-adv-x="468" 
d="M40 256l2 24q51 56 115.5 111t80.5 55q13 0 33 -18.5t16 -29.5q-24 -13 -72 -56.5t-91 -92.5q27 -42 74 -93.5t51 -55.5q15 -18 -2 -26l-19 -9q-18 -8 -31 8q-123 132 -157 183zM223 254l2 24q51 56 104 100.5t69 44.5q13 0 28 -18.5t11 -29.5q-2 -2 -48 -44.5t-82 -83.5
q48 -73 96 -132q21 -26 10 -37l-15 -16q-12 -14 -31 8q-77 82 -144 184z" />
    <glyph glyph-name="logicalnot" unicode="&#xac;" horiz-adv-x="452" 
d="M109 280q-12 -3 -27 16t-19 37.5t3 23.5q156 39 321 39q19 0 23 -26.5t-3.5 -64t-19 -73.5t-22.5 -59q-4 -3 -17 0t-26.5 13.5t-10.5 20.5q11 36 20 96q-183 -15 -222 -23z" />
    <glyph glyph-name="uni00AD" unicode="&#xad;" horiz-adv-x="403" 
d="M88 220q-12 -3 -26.5 15.5t-19 37t2.5 24.5q49 18 146 30t135 9q10 -1 27 -40q21 -49 -1 -49q-160 -4 -264 -27z" />
    <glyph glyph-name="registered" unicode="&#xae;" horiz-adv-x="531" 
d="M70 529q0 85 60 155t165 70q76 0 108 -43q12 5 19 -1q59 -51 59 -150q0 -94 -62.5 -156.5t-159.5 -62.5q-90 0 -139.5 54t-49.5 134zM123 499q0 -55 34.5 -87t82.5 -32q86 0 140.5 54.5t54.5 150.5q0 58 -30 88q-14 -3 -19 5q-20 34 -70 34q-98 0 -145.5 -59t-47.5 -154z
M206 442q7 54 34 176q-20 -6 -26 -21h-1q-3 0 -13.5 7.5t-10.5 10.5q1 3 4 8t18 14.5t37 12.5l4 17q0 1 1 3.5t2.5 3.5t6.5 1q13 0 28 -5q-3 -8 -6 -21q31 -5 52 -22.5t21 -39.5q0 -48 -61 -59q20 -22 40 -47t16 -26q-2 -2 -13.5 -9t-15.5 -8q-4 5 -30 35.5t-38 43.5
q-6 -34 -8 -51q0 -1 0.5 -6t0 -8.5t-1 -8t-2.5 -7t-6 -2.5q-7 0 -19 2.5t-13 5.5zM277 622l-14 -69q53 4 53 40q0 11 -10.5 19.5t-28.5 9.5z" />
    <glyph glyph-name="macron" unicode="&#xaf;" 
d="M143 673q42 13 124 16t108 -1q10 -1 27 -30q21 -38 -1 -38q-192 0 -215 -3q-21 -2 -40 28q-16 24 -3 28z" />
    <glyph glyph-name="degree" unicode="&#xb0;" horiz-adv-x="420" 
d="M60 572q0 65 45.5 118t130.5 53q69 0 106.5 -40t37.5 -107q0 -72 -47.5 -119t-126.5 -47q-65 0 -105.5 41.5t-40.5 100.5zM137 571q0 -37 20.5 -58.5t50.5 -21.5q41 0 69 31t28 82q0 36 -19.5 58t-49.5 22q-46 0 -72.5 -33t-26.5 -80z" />
    <glyph glyph-name="plusminus" unicode="&#xb1;" horiz-adv-x="430" 
d="M108 345q-12 -3 -26.5 14.5t-19 34.5t2.5 23q43 15 119 27q8 66 24 134q6 22 33 17.5t42 -24.5l-18 -116l47 5q3 0 5.5 9t4.5 9q6 1 17.5 -8t13.5 -9q11 -1 27 -38q21 -46 -1 -46q-62 -2 -126 -9q-4 -28 -10 -84q-6 -22 -31 -12.5t-45 31.5l7 54q-43 -7 -66 -12zM112 116
q-12 -3 -26.5 14.5t-19 34.5t2.5 23q48 18 137.5 34t130.5 10q11 -1 27 -38q21 -46 -1 -46q-121 -3 -251 -32z" />
    <glyph glyph-name="twosuperior" unicode="&#xb2;" horiz-adv-x="331" 
d="M179 511l11 10q-2 2 -2 13l93 90q37 36 57.5 57t41.5 53t21 54q0 18 -20 18q-34 0 -71 -21.5t-54 -50.5l5 -11q0 -6 -21.5 -20.5t-35.5 -16.5l-38 37q16 58 74 101.5t121 43.5q51 0 85 -29.5t34 -64.5q0 -74 -135 -188l-51 -45l121 24q6 12 22 12q7 0 19.5 -27t12.5 -38
q0 -8 -18 -12q-21 -4 -77.5 -12.5t-96 -15t-51.5 -10.5q-13 2 -29.5 18.5t-17.5 30.5z" />
    <glyph glyph-name="threesuperior" unicode="&#xb3;" horiz-adv-x="323" 
d="M388 703v-2q31 -3 57.5 -24t25.5 -52q-4 -68 -65 -112.5t-132 -44.5q-41 0 -72.5 26.5t-33.5 53.5q2 3 5.5 7t11.5 10t12 3q6 -4 15 -10.5t19.5 -15.5t14.5 -12q48 0 97.5 34.5t50.5 81.5q0 19 -23 19q-13 0 -23 -3q-19 -15 -50 -20q-11 4 -24.5 19t-18.5 27q5 7 21 15.5
t33 10.5q22 14 42.5 41t21.5 47q0 17 -20 17q-54 0 -125 -100q-12 -1 -29.5 18t-17.5 26q2 27 51 69t110 42q49 0 75 -33.5t24 -56.5q-1 -22 -14 -42t-26 -30z" />
    <glyph glyph-name="acute" unicode="&#xb4;" 
d="M251 588q-8 -5 -24.5 -0.5t-31 15t-10.5 15.5q11 14 32 45t36.5 50t27.5 23q36 12 69 -15q23 -18 12 -28q-83 -75 -111 -105z" />
    <glyph glyph-name="paragraph" unicode="&#xb6;" horiz-adv-x="483" 
d="M187 -215q20 181 73 466q-76 69 -127 73q-6 1 -19 23.5t-13 29.5q-1 30 62 63.5t147 55.5q17 68 25 92q32 8 35 -28q-5 -26 -30.5 -158t-37 -193.5t-28 -166t-25.5 -185.5q14 4 17 -6q5 -19 -34 -85q-15 -24 -45 19zM296 -106l18 130.5t21.5 149.5t20 126t25 133.5
t25.5 98.5q32 -7 41 -22q-44 -173 -64 -302.5t-35 -333.5q-1 -24 -34 2q-15 11 -18 18z" />
    <glyph glyph-name="periodcentered" unicode="&#xb7;" horiz-adv-x="244" 
d="M112 307q-32 13 -32 44q0 29 22.5 57.5t67.5 28.5q16 0 30 -15t14 -44q0 -12 -3 -28.5t-10 -35t-20.5 -31t-32.5 -12.5q-22 0 -31.5 8t-4.5 28z" />
    <glyph glyph-name="cedilla" unicode="&#xb8;" 
d="M372 -180q0 -41 -28.5 -66.5t-73.5 -25.5q-44 0 -68.5 27.5t-24.5 56.5q0 28 30 28l18 -4q11 -68 54 -68q34 0 34 33q0 19 -12.5 35t-27.5 24t-30.5 14.5t-17.5 8.5q-4 6 0 15t16 24t22.5 26.5t21 22l11.5 11.5q15 17 29.5 10.5t14.5 -21.5q0 -5 -10 -14t-24 -20.5
t-20 -19.5q32 -12 59 -37t27 -60z" />
    <glyph glyph-name="onesuperior" unicode="&#xb9;" horiz-adv-x="285" 
d="M172 494q1 5 37.5 17.5t58.5 17.5q-2 2 -5.5 4.5t-5 4.5t-1.5 5q6 31 24 110.5t23 108.5q-16 -13 -46.5 -31.5t-37.5 -18.5q-15 0 -29 16t-14 25q0 3 6.5 7t20 10.5t18.5 9.5q26 15 49 30t48.5 33t41.5 29q40 -15 51 -33q0 -3 -20 -40q-4 -9 -21.5 -93.5t-29.5 -158.5
q59 14 71 14q4 0 17 -25t13 -27q0 -1 -1 -4.5t-1 -4.5q-106 -18 -232 -51q-5 -2 -20.5 17.5t-14.5 27.5z" />
    <glyph glyph-name="ordmasculine" unicode="&#xba;" horiz-adv-x="290" 
d="M51 458q3 65 37 131t72 75q18 -8 21 -17q12 8 29 8q60 0 80.5 -35.5t18.5 -95.5q-1 -24 -5.5 -51.5t-15 -59.5t-25.5 -57.5t-40 -42.5t-55 -17q-41 0 -69 26.5t-38.5 61.5t-9.5 74zM123 435q-2 -37 6.5 -60.5t27.5 -23.5q26 0 46 44.5t27 86t9 68.5q3 14 0 38t-18 24
q-23 0 -44.5 -50t-30.5 -92q0 -1 -3.5 -0.5t-8 2.5t-5.5 3q-5 -17 -6 -40zM72 179q-9 -2 -19 11.5t-13 27t2 17.5q34 13 101.5 21.5t94.5 6.5q8 -1 20 -32.5t-2 -31.5q-118 -4 -184 -20z" />
    <glyph glyph-name="guillemotright" unicode="&#xbb;" horiz-adv-x="478" 
d="M458 247l-2 -24q-51 -56 -115.5 -111t-80.5 -55q-13 0 -33 18.5t-16 29.5q24 13 72 56.5t91 92.5q-27 42 -74 93.5t-51 55.5q-15 18 2 26l19 9q18 8 31 -8q123 -132 157 -183zM275 249l-2 -24q-51 -56 -104 -100.5t-69 -44.5q-13 0 -28 18.5t-11 29.5q2 2 48 44.5
t82 83.5q-48 73 -96 132q-21 26 -10 37l15 16q12 14 31 -8q77 -82 144 -184z" />
    <glyph glyph-name="onequarter" unicode="&#xbc;" horiz-adv-x="850" 
d="M543 108l-51 50q-2 16 26 109t46 123q6 8 39 -4t35 -21q-51 -130 -64 -189q6 0 43 10t43 14q27 108 40 188q13 3 41.5 -7t30.5 -23l-27 -144q1 0 9 1.5t10 1.5q14 -1 25 -22.5t11 -35.5l-71 -16q-2 -7 -12 -65t-18 -87q-3 -8 -14 -7q-7 1 -34.5 11.5t-27.5 13.5v2l25 119
l-2 1q-69 -19 -103 -23zM242 59q6 14 16 11.5t11 -0.5q19 42 50.5 112t56 125t55 121t55.5 114.5t50 91t46 65t36 22.5q14 0 25.5 -9.5t9.5 -22.5q-45 -47 -130.5 -224t-165.5 -361t-94 -209q-12 -1 -27.5 14.5t-14.5 28.5q13 101 21 121zM51 366q1 5 37.5 17.5t58.5 17.5
q-2 2 -5.5 4.5t-5 4.5t-1.5 5q6 31 24 110.5t23 108.5q-16 -13 -46.5 -31.5t-37.5 -18.5q-15 0 -29 16t-14 25q0 3 6.5 7t20 10.5t18.5 9.5q26 15 49 30t48.5 33t41.5 29q40 -15 51 -33q0 -3 -20 -40q-4 -9 -21.5 -93.5t-29.5 -158.5q59 14 71 14q4 0 17 -25t13 -27
q0 -1 -1 -4.5t-1 -4.5q-106 -18 -232 -51q-5 -2 -20.5 17.5t-14.5 27.5z" />
    <glyph glyph-name="onehalf" unicode="&#xbd;" horiz-adv-x="850" 
d="M246 59q6 14 16 11.5t11 -0.5q19 42 50.5 112t56 125t55 121t55.5 114.5t50 91t46 65t36 22.5q14 0 25.5 -9.5t9.5 -22.5q-45 -47 -130.5 -224t-165.5 -361t-94 -209q-12 -1 -27.5 14.5t-14.5 28.5q13 101 21 121zM55 366q1 5 37.5 17.5t58.5 17.5q-2 2 -5.5 4.5t-5 4.5
t-1.5 5q6 31 24 110.5t23 108.5q-16 -13 -46.5 -31.5t-37.5 -18.5q-15 0 -29 16t-14 25q0 3 6.5 7t20 10.5t18.5 9.5q26 15 49 30t48.5 33t41.5 29q40 -15 51 -33q0 -3 -20 -40q-4 -9 -21.5 -93.5t-29.5 -158.5q59 14 71 14q4 0 17 -25t13 -27q0 -1 -1 -4.5t-1 -4.5
q-106 -18 -232 -51q-5 -2 -20.5 17.5t-14.5 27.5zM495 33l11 10q-2 2 -2 13l93 90q37 36 57.5 57t41.5 53t21 54q0 18 -20 18q-34 0 -71 -21.5t-54 -50.5l5 -11q0 -6 -21.5 -20.5t-35.5 -16.5l-38 37q16 58 74 101.5t121 43.5q51 0 85 -29.5t34 -64.5q0 -74 -135 -188
l-51 -45l121 24q6 12 22 12q7 0 19.5 -27t12.5 -38q0 -8 -18 -12q-21 -4 -77.5 -12.5t-96 -15t-51.5 -10.5q-13 2 -29.5 18.5t-17.5 30.5z" />
    <glyph glyph-name="threequarters" unicode="&#xbe;" horiz-adv-x="850" 
d="M541 108l-51 50q-2 16 26 109t46 123q6 8 39 -4t35 -21q-51 -130 -64 -189q6 0 43 10t43 14q27 108 40 188q13 3 41.5 -7t30.5 -23l-27 -144q1 0 9 1.5t10 1.5q14 -1 25 -22.5t11 -35.5l-71 -16q-2 -7 -12 -65t-18 -87q-3 -8 -14 -7q-7 1 -34.5 11.5t-27.5 13.5v2l25 119
l-2 1q-69 -19 -103 -23zM240 59q6 14 16 11.5t11 -0.5q19 42 50.5 112t56 125t55 121t55.5 114.5t50 91t46 65t36 22.5q14 0 25.5 -9.5t9.5 -22.5q-45 -47 -130.5 -224t-165.5 -361t-94 -209q-12 -1 -27.5 14.5t-14.5 28.5q13 101 21 121zM272 553v-2q31 -3 57.5 -24
t25.5 -52q-4 -68 -65 -112.5t-132 -44.5q-41 0 -72.5 26.5t-33.5 53.5q2 3 5.5 7t11.5 10t12 3q6 -4 15 -10.5t19.5 -15.5t14.5 -12q48 0 97.5 34.5t50.5 81.5q0 19 -23 19q-13 0 -23 -3q-19 -15 -50 -20q-11 4 -24.5 19t-18.5 27q5 7 21 15.5t33 10.5q22 14 42.5 41
t21.5 47q0 17 -20 17q-54 0 -125 -100q-12 -1 -29.5 18t-17.5 26q2 27 51 69t110 42q49 0 75 -33.5t24 -56.5q-1 -22 -14 -42t-26 -30z" />
    <glyph glyph-name="questiondown" unicode="&#xbf;" horiz-adv-x="399" 
d="M324 51l51 -49q-20 -104 -98.5 -174t-166.5 -70q-55 0 -97.5 45.5t-42.5 97.5q0 53 35.5 116.5t93.5 140.5t79 115q10 11 38.5 -10t36.5 -45q-15 -35 -53 -83t-71.5 -86t-60.5 -87.5t-27 -93.5q0 -18 10 -28t25 -10q61 0 115.5 39t83.5 111l-15 15q0 6 9.5 14.5t30.5 24
t24 17.5zM294 470q0 -31 -23 -66.5t-67 -35.5q-17 0 -32.5 13.5t-15.5 41.5q0 17 6 39.5t23 44t41 21.5q26 0 47 -17t21 -41z" />
    <glyph glyph-name="Agrave" unicode="&#xc0;" horiz-adv-x="397" 
d="M271 96l14 3q-2 103 0 157q-63 -2 -163 -22q-54 -157 -75 -302q-5 -18 -42.5 -4.5t-44.5 24.5q9 99 66 261q-17 1 -29.5 28.5t-1.5 36.5q13 10 67 26q63 151 137.5 269.5t139.5 154.5q24 -3 36.5 -8.5t21.5 -19.5q-26 -122 -33 -278t-2.5 -253.5t12.5 -178.5
q-7 -13 -42.5 -2t-43.5 28q-18 40 -17 80zM313 610q-85 -113 -157 -285q24 5 49 7q53 5 57 -7q3 -7 11.5 -8t13.5 -6q7 163 30 298zM370 757l-93 134q-6 7 -3 16.5t14 13.5q12 5 32 5.5t31 -10.5l24 -48l31 -62t16 -31q3 -6 -1 -12.5t-11 -9.5q-29 -12 -40 4z" />
    <glyph glyph-name="Aacute" unicode="&#xc1;" horiz-adv-x="397" 
d="M271 96l14 3q-2 103 0 157q-63 -2 -163 -22q-54 -157 -75 -302q-5 -18 -42.5 -4.5t-44.5 24.5q9 99 66 261q-17 1 -29.5 28.5t-1.5 36.5q13 10 67 26q63 151 137.5 269.5t139.5 154.5q24 -3 36.5 -8.5t21.5 -19.5q-26 -122 -33 -278t-2.5 -253.5t12.5 -178.5
q-7 -13 -42.5 -2t-43.5 28q-18 40 -17 80zM313 610q-85 -113 -157 -285q24 5 49 7q53 5 57 -7q3 -7 11.5 -8t13.5 -6q7 163 30 298zM403 753q-8 -5 -24.5 -0.5t-31 15t-10.5 15.5q11 14 32 45t36.5 50t27.5 23q36 12 69 -15q23 -18 12 -28q-83 -75 -111 -105z" />
    <glyph glyph-name="Acircumflex" unicode="&#xc2;" horiz-adv-x="397" 
d="M271 96l14 3q-2 103 0 157q-63 -2 -163 -22q-54 -157 -75 -302q-5 -18 -42.5 -4.5t-44.5 24.5q9 99 66 261q-17 1 -29.5 28.5t-1.5 36.5q13 10 67 26q63 151 137.5 269.5t139.5 154.5q24 -3 36.5 -8.5t21.5 -19.5q-26 -122 -33 -278t-2.5 -253.5t12.5 -178.5
q-7 -13 -42.5 -2t-43.5 28q-18 40 -17 80zM313 610q-85 -113 -157 -285q24 5 49 7q53 5 57 -7q3 -7 11.5 -8t13.5 -6q7 163 30 298zM288 775l-29 18q-22 14 9 36q87 69 111 84l33 -5q45 -60 82 -124q3 -6 -1 -12.5t-11 -9.5q-25 -11 -38 2q-6 6 -29.5 36t-29.5 37
q-4 -3 -63 -56q-18 -16 -34 -6z" />
    <glyph glyph-name="Atilde" unicode="&#xc3;" horiz-adv-x="397" 
d="M271 96l14 3q-2 103 0 157q-63 -2 -163 -22q-54 -157 -75 -302q-5 -18 -42.5 -4.5t-44.5 24.5q9 99 66 261q-17 1 -29.5 28.5t-1.5 36.5q13 10 67 26q63 151 137.5 269.5t139.5 154.5q24 -3 36.5 -8.5t21.5 -19.5q-26 -122 -33 -278t-2.5 -253.5t12.5 -178.5
q-7 -13 -42.5 -2t-43.5 28q-18 40 -17 80zM313 610q-85 -113 -157 -285q24 5 49 7q53 5 57 -7q3 -7 11.5 -8t13.5 -6q7 163 30 298zM275 761q-10 0 -17 19t-1 29q9 16 28.5 31t39.5 15q29 0 56 -18t38 -18q14 0 30.5 15t22.5 15q9 0 13.5 -18t-1.5 -33q-8 -17 -29 -32
t-47 -15q-21 0 -50.5 16.5t-44.5 16.5q-11 0 -22.5 -11.5t-15.5 -11.5z" />
    <glyph glyph-name="Adieresis" unicode="&#xc4;" horiz-adv-x="397" 
d="M271 96l14 3q-2 103 0 157q-63 -2 -163 -22q-54 -157 -75 -302q-5 -18 -42.5 -4.5t-44.5 24.5q9 99 66 261q-17 1 -29.5 28.5t-1.5 36.5q13 10 67 26q63 151 137.5 269.5t139.5 154.5q24 -3 36.5 -8.5t21.5 -19.5q-26 -122 -33 -278t-2.5 -253.5t12.5 -178.5
q-7 -13 -42.5 -2t-43.5 28q-18 40 -17 80zM313 610q-85 -113 -157 -285q24 5 49 7q53 5 57 -7q3 -7 11.5 -8t13.5 -6q7 163 30 298zM259 785q-29 12 -29 39q0 26 21 51.5t62 25.5q15 0 28 -13.5t13 -39.5q0 -29 -14.5 -62t-46.5 -33q-21 0 -29.5 7t-4.5 25zM387 812
q0 25 21 50.5t62 25.5q15 0 28 -13.5t13 -38.5q0 -29 -14.5 -62.5t-46.5 -33.5q-22 0 -42.5 24.5t-20.5 47.5z" />
    <glyph glyph-name="Aring" unicode="&#xc5;" horiz-adv-x="397" 
d="M284 755q0 36 29 65.5t80 29.5q52 0 70.5 -20.5t18.5 -61.5q0 -36 -25 -61.5t-65 -29.5q-23 -120 -29 -270.5t-1.5 -245.5t12.5 -171q-7 -13 -42.5 -2t-43.5 28q-18 40 -17 80l14 3q-2 103 0 157q-63 -2 -163 -22q-54 -157 -75 -302q-5 -18 -42.5 -4.5t-44.5 24.5
q9 99 66 261q-17 1 -29.5 28.5t-1.5 36.5q13 10 67 26q54 130 118.5 238.5t123.5 160.5q-20 22 -20 52zM313 610q-85 -113 -157 -285q24 5 49 7q53 5 57 -7q3 -7 11.5 -8t13.5 -6q7 163 30 298zM352 753q0 -11 7.5 -18t16.5 -7q18 0 29.5 11.5t11.5 32.5q0 27 -24 27
q-41 0 -41 -46z" />
    <glyph glyph-name="AE" unicode="&#xc6;" horiz-adv-x="572" 
d="M211 37l75 23l-1 39q-3 81 0 163q-72 -12 -164 -30q-52 -150 -74 -300q-5 -18 -42.5 -4.5t-44.5 24.5q9 99 66 261q-17 1 -29.5 28.5t-1.5 36.5q9 7 64 20q63 152 138.5 272.5t141.5 157.5q24 -3 36.5 -8.5t21.5 -19.5q-6 -24 -8 -40q80 24 147 29q62 5 84 -22t22 -33
q0 -5 -25 -25.5t-38 -29.5q-15 -9 -31 -6q-6 1 -5 5q1 5 5 14t8 15l3 6q-24 -4 -45 -7t-30.5 -4.5t-16.5 -2.5t-15.5 -3t-13.5 -3.5t-24.5 -6.5t-36.5 -9q-13 -102 -16 -217q66 12 94 14q53 5 57 -7q3 -7 12 -8t14 -7l6 -8q5 -8 8.5 -14.5t3.5 -10.5q0 -21 -16 -21
q-38 -1 -180 -23q0 -100 5 -192q152 41 225 36q10 -1 28 -32q22 -40 0 -40q-86 -3 -248 -42l4 -35q-7 -11 -35 -4t-44 21q-26 -6 -39 -10q-19 -4 -40 27q-17 27 -5 33zM313 610q-89 -120 -159 -290q72 15 134 26q8 143 29 263z" />
    <glyph glyph-name="Ccedilla" unicode="&#xc7;" horiz-adv-x="391" 
d="M259 -180q0 -41 -28.5 -66.5t-73.5 -25.5q-44 0 -68.5 27.5t-24.5 56.5q0 28 30 28l18 -4q11 -68 54 -68q34 0 34 33q0 19 -12.5 35t-27.5 24t-30.5 14.5t-17.5 8.5q-15 11 44 72q-69 21 -107.5 94.5t-38.5 181.5q0 91 32 202t93.5 197.5t131.5 86.5q45 0 81 -42.5
t36 -98.5q0 -59 -33.5 -122.5t-55.5 -63.5q-11 0 -26.5 17.5t-21.5 33.5q6 10 16 27t27 64.5t19 87.5q0 15 -11 24t-23 9q-22 0 -55 -43.5t-63.5 -109t-52 -151.5t-21.5 -161t25 -117t66 -42t73 27t50 70.5t28 81.5t15 78q11 1 18 1q33 0 33 -66q0 -53 -18 -113.5
t-62 -110.5t-102 -50h-4q-23 -19 -32 -30q32 -12 59 -37t27 -60z" />
    <glyph glyph-name="Egrave" unicode="&#xc8;" horiz-adv-x="366" 
d="M73 555q-12 -3 -26.5 11t-19 29t1.5 20q59 24 110 37q15 41 25 60q48 -7 63 -22q-4 -12 -5 -18q58 13 108 17q62 5 84 -22t22 -33q0 -5 -25 -25.5t-38 -29.5q-15 -9 -31 -6q-6 1 -5 5q1 5 5 14t8 15l3 6q-63 -6 -154 -27q-23 -92 -41 -201q47 8 61 9q62 5 74 -10
q5 -7 13.5 -14.5t13 -12t4.5 -8.5q0 -21 -14 -21q-64 -1 -163 -23q-13 -103 -19 -231q180 51 256 45q10 -1 28 -32q22 -40 0 -40q-87 -2 -288 -51v-29q-5 -14 -26 -8t-43 20q-1 0 -2.5 -0.5t-2.5 -1.5q-19 -4 -40 27q-17 27 -5 33l41 13q4 101 19 236q-12 -3 -26 8.5
t-18.5 25t0.5 20.5q10 9 54 23q15 109 38 202zM226 753l-93 134q-6 7 -3 16.5t14 13.5q12 5 32 5.5t31 -10.5l24 -48l31 -62t16 -31q3 -6 -1 -12.5t-11 -9.5q-29 -12 -40 4z" />
    <glyph glyph-name="Eacute" unicode="&#xc9;" horiz-adv-x="366" 
d="M73 555q-12 -3 -26.5 11t-19 29t1.5 20q59 24 110 37q15 41 25 60q48 -7 63 -22q-4 -12 -5 -18q58 13 108 17q62 5 84 -22t22 -33q0 -5 -25 -25.5t-38 -29.5q-15 -9 -31 -6q-6 1 -5 5q1 5 5 14t8 15l3 6q-63 -6 -154 -27q-23 -92 -41 -201q47 8 61 9q62 5 74 -10
q5 -7 13.5 -14.5t13 -12t4.5 -8.5q0 -21 -14 -21q-64 -1 -163 -23q-13 -103 -19 -231q180 51 256 45q10 -1 28 -32q22 -40 0 -40q-87 -2 -288 -51v-29q-5 -14 -26 -8t-43 20q-1 0 -2.5 -0.5t-2.5 -1.5q-19 -4 -40 27q-17 27 -5 33l41 13q4 101 19 236q-12 -3 -26 8.5
t-18.5 25t0.5 20.5q10 9 54 23q15 109 38 202zM273 748q-8 -5 -24.5 -0.5t-31 15t-10.5 15.5q11 14 32 45t36.5 50t27.5 23q36 12 69 -15q23 -18 12 -28q-83 -75 -111 -105z" />
    <glyph glyph-name="Ecircumflex" unicode="&#xca;" horiz-adv-x="366" 
d="M73 555q-12 -3 -26.5 11t-19 29t1.5 20q59 24 110 37q15 41 25 60q48 -7 63 -22q-4 -12 -5 -18q58 13 108 17q62 5 84 -22t22 -33q0 -5 -25 -25.5t-38 -29.5q-15 -9 -31 -6q-6 1 -5 5q1 5 5 14t8 15l3 6q-63 -6 -154 -27q-23 -92 -41 -201q47 8 61 9q62 5 74 -10
q5 -7 13.5 -14.5t13 -12t4.5 -8.5q0 -21 -14 -21q-64 -1 -163 -23q-13 -103 -19 -231q180 51 256 45q10 -1 28 -32q22 -40 0 -40q-87 -2 -288 -51v-29q-5 -14 -26 -8t-43 20q-1 0 -2.5 -0.5t-2.5 -1.5q-19 -4 -40 27q-17 27 -5 33l41 13q4 101 19 236q-12 -3 -26 8.5
t-18.5 25t0.5 20.5q10 9 54 23q15 109 38 202zM147 761l-29 18q-22 14 9 36q87 69 111 84l33 -5q45 -60 82 -124q3 -6 -1 -12.5t-11 -9.5q-25 -11 -38 2q-6 6 -29.5 36t-29.5 37q-4 -3 -63 -56q-18 -16 -34 -6z" />
    <glyph glyph-name="Edieresis" unicode="&#xcb;" horiz-adv-x="366" 
d="M73 555q-12 -3 -26.5 11t-19 29t1.5 20q59 24 110 37q15 41 25 60q48 -7 63 -22q-4 -12 -5 -18q58 13 108 17q62 5 84 -22t22 -33q0 -5 -25 -25.5t-38 -29.5q-15 -9 -31 -6q-6 1 -5 5q1 5 5 14t8 15l3 6q-63 -6 -154 -27q-23 -92 -41 -201q47 8 61 9q62 5 74 -10
q5 -7 13.5 -14.5t13 -12t4.5 -8.5q0 -21 -14 -21q-64 -1 -163 -23q-13 -103 -19 -231q180 51 256 45q10 -1 28 -32q22 -40 0 -40q-87 -2 -288 -51v-29q-5 -14 -26 -8t-43 20q-1 0 -2.5 -0.5t-2.5 -1.5q-19 -4 -40 27q-17 27 -5 33l41 13q4 101 19 236q-12 -3 -26 8.5
t-18.5 25t0.5 20.5q10 9 54 23q15 109 38 202zM126 781q-29 12 -29 39q0 26 21 51.5t62 25.5q15 0 28 -13.5t13 -39.5q0 -29 -14.5 -62t-46.5 -33q-21 0 -29.5 7t-4.5 25zM254 808q0 25 21 50.5t62 25.5q15 0 28 -13.5t13 -38.5q0 -29 -14.5 -62.5t-46.5 -33.5
q-22 0 -42.5 24.5t-20.5 47.5z" />
    <glyph glyph-name="Igrave" unicode="&#xcc;" horiz-adv-x="357" 
d="M109 99q29 257 90 516q-50 -10 -125 -28q-12 -3 -26.5 12.5t-19 30.5t2.5 21q128 52 291 64q62 5 84 -22q21 -26 21 -33q0 -5 -17.5 -19.5t-27.5 -19.5q-11 -6 -22.5 4t-16.5 10l-68 -8q-52 -249 -87 -528q90 18 156 14q10 -1 27 -34q21 -42 -1 -42q-123 -3 -352 -60
q-12 -3 -26.5 11.5t-19 30t2.5 22.5q8 5 20.5 16t21 15.5t14.5 0.5q3 -2 5.5 -4t4 -3.5l2.5 -2.5t2 -1q56 17 83 23q-15 9 -19 14zM218 751l-93 134q-6 7 -3 16.5t14 13.5q12 5 32 5.5t31 -10.5l24 -48l31 -62t16 -31q3 -6 -1 -12.5t-11 -9.5q-29 -12 -40 4z" />
    <glyph glyph-name="Iacute" unicode="&#xcd;" horiz-adv-x="357" 
d="M109 99q29 257 90 516q-50 -10 -125 -28q-12 -3 -26.5 12.5t-19 30.5t2.5 21q128 52 291 64q62 5 84 -22q21 -26 21 -33q0 -5 -17.5 -19.5t-27.5 -19.5q-11 -6 -22.5 4t-16.5 10l-68 -8q-52 -249 -87 -528q90 18 156 14q10 -1 27 -34q21 -42 -1 -42q-123 -3 -352 -60
q-12 -3 -26.5 11.5t-19 30t2.5 22.5q8 5 20.5 16t21 15.5t14.5 0.5q3 -2 5.5 -4t4 -3.5l2.5 -2.5t2 -1q56 17 83 23q-15 9 -19 14zM282 750q-8 -5 -24.5 -0.5t-31 15t-10.5 15.5q11 14 32 45t36.5 50t27.5 23q36 12 69 -15q23 -18 12 -28q-83 -75 -111 -105z" />
    <glyph glyph-name="Icircumflex" unicode="&#xce;" horiz-adv-x="357" 
d="M109 99q29 257 90 516q-50 -10 -125 -28q-12 -3 -26.5 12.5t-19 30.5t2.5 21q128 52 291 64q62 5 84 -22q21 -26 21 -33q0 -5 -17.5 -19.5t-27.5 -19.5q-11 -6 -22.5 4t-16.5 10l-68 -8q-52 -249 -87 -528q90 18 156 14q10 -1 27 -34q21 -42 -1 -42q-123 -3 -352 -60
q-12 -3 -26.5 11.5t-19 30t2.5 22.5q8 5 20.5 16t21 15.5t14.5 0.5q3 -2 5.5 -4t4 -3.5l2.5 -2.5t2 -1q56 17 83 23q-15 9 -19 14zM176 766l-29 18q-22 14 9 36q87 69 111 84l33 -5q45 -60 82 -124q3 -6 -1 -12.5t-11 -9.5q-25 -11 -38 2q-6 6 -29.5 36t-29.5 37
q-4 -4 -63 -56q-18 -16 -34 -6z" />
    <glyph glyph-name="Idieresis" unicode="&#xcf;" horiz-adv-x="357" 
d="M109 99q29 257 90 516q-50 -10 -125 -28q-12 -3 -26.5 12.5t-19 30.5t2.5 21q128 52 291 64q62 5 84 -22q21 -26 21 -33q0 -5 -17.5 -19.5t-27.5 -19.5q-11 -6 -22.5 4t-16.5 10l-68 -8q-52 -249 -87 -528q90 18 156 14q10 -1 27 -34q21 -42 -1 -42q-123 -3 -352 -60
q-12 -3 -26.5 11.5t-19 30t2.5 22.5q8 5 20.5 16t21 15.5t14.5 0.5q3 -2 5.5 -4t4 -3.5l2.5 -2.5t2 -1q56 17 83 23q-15 9 -19 14zM151 785q-29 12 -29 39q0 26 21 51.5t62 25.5q15 0 28 -13.5t13 -39.5q0 -29 -14.5 -62t-46.5 -33q-21 0 -29.5 7t-4.5 25zM279 812
q0 25 21 50.5t62 25.5q15 0 28 -13.5t13 -38.5q0 -29 -14.5 -62.5t-46.5 -33.5q-22 0 -42.5 24.5t-20.5 47.5z" />
    <glyph glyph-name="Eth" unicode="&#xd0;" horiz-adv-x="493" 
d="M63 332q38 12 101 15q27 169 49 274q-25 -10 -43.5 -29t-29.5 -47t-16.5 -48.5t-11.5 -53.5q0 -1 -4 -1q-6 0 -14.5 1.5t-21.5 4.5t-22 11t-11 19q0 4 1.5 11.5t6.5 28.5t13 40.5t23 43.5t34 42t48 30.5t64 14.5q0 1 1 3q0 2 1 9t2.5 10t7 6t14.5 3q30 0 49 -21
q-2 -12 -4 -16q92 -22 147.5 -105.5t55.5 -198.5q0 -212 -78 -335t-203 -123q-97 0 -172.5 73t-79.5 157q13 18 38.5 32t38.5 1q10 -10 20 -32.5t12 -37.5q0 -3 -3 -4t-7 -0.5t-7.5 0t-2.5 -3.5q27 -122 133 -122q99 0 164.5 122t65.5 323q0 87 -34.5 140.5t-98.5 60.5
q-17 -88 -45 -281q27 0 51 -2q10 -1 27 -30q21 -38 -1 -38q-14 0 -43 0.5t-44 0.5q-24 -170 -31 -240q-1 -12 -16 -12q-14 0 -37.5 10.5t-27.5 16.5q11 100 31 224q-11 0 -47 -3q-21 -2 -40 28q-16 24 -3 28z" />
    <glyph glyph-name="Ntilde" unicode="&#xd1;" horiz-adv-x="446" 
d="M304 149h8q12 142 65 376.5t84 234.5q15 0 37.5 -6.5t32.5 -16.5q-46 -124 -76.5 -234t-46 -214.5t-21 -157.5t-13.5 -155q-2 -9 -24 -9t-43.5 11t-29.5 31q-34 136 -64.5 306.5t-36.5 240.5l-6 5q-27 -58 -49 -218.5t-20 -336.5q1 -7 7 -5.5t13 -2.5q6 -5 -1 -18.5
t-17 -29t-10 -22.5q0 -24 -54 2q-23 11 -28 18q-6 189 36.5 448t109.5 328q39 -6 63 -36q10 -114 37.5 -297.5t46.5 -241.5zM234 769q-10 0 -17 19t-1 29q9 16 28.5 31t39.5 15q29 0 56 -18t38 -18q14 0 30.5 15t22.5 15q9 0 13.5 -18t-1.5 -33q-8 -17 -29 -32t-47 -15
q-21 0 -50.5 16.5t-44.5 16.5q-11 0 -22.5 -11.5t-15.5 -11.5z" />
    <glyph glyph-name="Ograve" unicode="&#xd2;" horiz-adv-x="428" 
d="M10 271q0 134 58 275.5t123 160.5q5 -1 8.5 -3t6.5 -5t4.5 -4t4.5 -6t4 -6q26 17 55 17q164 0 164 -247q0 -46 -6 -104t-22.5 -131t-41 -131.5t-68 -98.5t-97.5 -40q-50 0 -88.5 29t-60.5 77.5t-33 103.5t-11 113zM74 224q0 -89 26 -146t74 -57q54 0 94.5 64.5t59.5 156
t27.5 163.5t8.5 116q0 51 -16 87t-49 36q-31 0 -56 -18.5t-41.5 -49.5t-27 -62.5t-17.5 -67.5q0 -1 -3 -1q-6 0 -18.5 5.5t-17.5 10.5l-4 -11q-4 -10 -11 -31t-13.5 -48.5t-11 -66.5t-4.5 -80zM251 756l-93 134q-6 7 -3 16.5t14 13.5q12 5 32 5.5t31 -10.5l24 -48l31 -62
t16 -31q3 -6 -1 -12.5t-11 -9.5q-29 -12 -40 4z" />
    <glyph glyph-name="Oacute" unicode="&#xd3;" horiz-adv-x="428" 
d="M10 271q0 134 58 275.5t123 160.5q5 -1 8.5 -3t6.5 -5t4.5 -4t4.5 -6t4 -6q26 17 55 17q164 0 164 -247q0 -46 -6 -104t-22.5 -131t-41 -131.5t-68 -98.5t-97.5 -40q-50 0 -88.5 29t-60.5 77.5t-33 103.5t-11 113zM74 224q0 -89 26 -146t74 -57q54 0 94.5 64.5t59.5 156
t27.5 163.5t8.5 116q0 51 -16 87t-49 36q-31 0 -56 -18.5t-41.5 -49.5t-27 -62.5t-17.5 -67.5q0 -1 -3 -1q-6 0 -18.5 5.5t-17.5 10.5l-4 -11q-4 -10 -11 -31t-13.5 -48.5t-11 -66.5t-4.5 -80zM296 750q-8 -5 -24.5 -0.5t-31 15t-10.5 15.5q11 14 32 45t36.5 50t27.5 23
q36 12 69 -15q23 -18 12 -28q-83 -75 -111 -105z" />
    <glyph glyph-name="Ocircumflex" unicode="&#xd4;" horiz-adv-x="428" 
d="M10 271q0 134 58 275.5t123 160.5q5 -1 8.5 -3t6.5 -5t4.5 -4t4.5 -6t4 -6q26 17 55 17q164 0 164 -247q0 -46 -6 -104t-22.5 -131t-41 -131.5t-68 -98.5t-97.5 -40q-50 0 -88.5 29t-60.5 77.5t-33 103.5t-11 113zM74 224q0 -89 26 -146t74 -57q54 0 94.5 64.5t59.5 156
t27.5 163.5t8.5 116q0 51 -16 87t-49 36q-31 0 -56 -18.5t-41.5 -49.5t-27 -62.5t-17.5 -67.5q0 -1 -3 -1q-6 0 -18.5 5.5t-17.5 10.5l-4 -11q-4 -10 -11 -31t-13.5 -48.5t-11 -66.5t-4.5 -80zM216 761l-29 18q-22 14 9 36q87 69 111 84l33 -5q45 -60 82 -124q3 -6 -1 -12.5
t-11 -9.5q-25 -11 -38 2q-6 6 -29.5 36t-29.5 37q-4 -3 -63 -56q-18 -16 -34 -6z" />
    <glyph glyph-name="Otilde" unicode="&#xd5;" horiz-adv-x="428" 
d="M10 271q0 134 58 275.5t123 160.5q5 -1 8.5 -3t6.5 -5t4.5 -4t4.5 -6t4 -6q26 17 55 17q164 0 164 -247q0 -46 -6 -104t-22.5 -131t-41 -131.5t-68 -98.5t-97.5 -40q-50 0 -88.5 29t-60.5 77.5t-33 103.5t-11 113zM74 224q0 -89 26 -146t74 -57q54 0 94.5 64.5t59.5 156
t27.5 163.5t8.5 116q0 51 -16 87t-49 36q-31 0 -56 -18.5t-41.5 -49.5t-27 -62.5t-17.5 -67.5q0 -1 -3 -1q-6 0 -18.5 5.5t-17.5 10.5l-4 -11q-4 -10 -11 -31t-13.5 -48.5t-11 -66.5t-4.5 -80zM219 758q-10 0 -17 19t-1 29q9 16 28.5 31t39.5 15q29 0 56 -18t38 -18
q14 0 30.5 15t22.5 15q9 0 13.5 -18t-1.5 -33q-8 -17 -29 -32t-47 -15q-21 0 -50.5 16.5t-44.5 16.5q-11 0 -22.5 -11.5t-15.5 -11.5z" />
    <glyph glyph-name="Odieresis" unicode="&#xd6;" horiz-adv-x="428" 
d="M10 271q0 134 58 275.5t123 160.5q5 -1 8.5 -3t6.5 -5t4.5 -4t4.5 -6t4 -6q26 17 55 17q164 0 164 -247q0 -46 -6 -104t-22.5 -131t-41 -131.5t-68 -98.5t-97.5 -40q-50 0 -88.5 29t-60.5 77.5t-33 103.5t-11 113zM74 224q0 -89 26 -146t74 -57q54 0 94.5 64.5t59.5 156
t27.5 163.5t8.5 116q0 51 -16 87t-49 36q-31 0 -56 -18.5t-41.5 -49.5t-27 -62.5t-17.5 -67.5q0 -1 -3 -1q-6 0 -18.5 5.5t-17.5 10.5l-4 -11q-4 -10 -11 -31t-13.5 -48.5t-11 -66.5t-4.5 -80zM176 779q-29 12 -29 39q0 26 21 51.5t62 25.5q15 0 28 -13.5t13 -39.5
q0 -29 -14.5 -62t-46.5 -33q-21 0 -29.5 7t-4.5 25zM304 806q0 25 21 50.5t62 25.5q15 0 28 -13.5t13 -38.5q0 -29 -14.5 -62.5t-46.5 -33.5q-22 0 -42.5 24.5t-20.5 47.5z" />
    <glyph glyph-name="multiply" unicode="&#xd7;" horiz-adv-x="491" 
d="M402 127l-19 -8q-19 -10 -30 7q-65 106 -89 143q-11 -13 -27.5 -31t-27 -29.5t-16.5 -17.5l8 -13q-23 -22 -44.5 -34.5t-31.5 -14.5l-10 -2q-12 -1 -36.5 21.5t-16.5 31.5q78 90 149 166q-58 80 -102 121q-13 11 2 24l13 13q12 9 35 -12q37 -37 89 -108q117 122 145 122
q13 0 37 -22t20 -31q-34 -18 -149 -143q56 -80 103 -159q9 -18 -2 -24z" />
    <glyph glyph-name="Oslash" unicode="&#xd8;" horiz-adv-x="428" 
d="M38 -11q5 16 15.5 26.5t10.5 11.5l2 5q-56 93 -56 239q0 134 58 275.5t123 160.5q5 -1 8.5 -3t6.5 -5t4.5 -4t4.5 -6t4 -6q26 17 55 17q43 0 77 -18q32 49 53 49q13 0 20 -9t5 -23q-18 -20 -37 -53q46 -60 46 -193q0 -46 -6 -104t-22.5 -131t-41 -131.5t-68 -98.5
t-97.5 -40q-52 0 -93 33q-24 -62 -37 -87q-13 -1 -30.5 9t-16.5 22q4 39 12 64zM364 521q0 34 -7 61q-26 -52 -60.5 -133.5t-54 -130t-63 -160.5t-47.5 -123q19 -14 42 -14q54 0 94.5 64.5t59.5 156t27.5 163.5t8.5 116zM74 224q0 -79 19 -130q27 62 74.5 180.5t87.5 211.5
t70 150q-11 8 -26 8q-31 0 -56 -18.5t-41.5 -49.5t-27 -62.5t-17.5 -67.5q0 -1 -3 -1q-6 0 -18.5 5.5t-17.5 10.5l-4 -11q-4 -10 -11 -31t-13.5 -48.5t-11 -66.5t-4.5 -80z" />
    <glyph glyph-name="Ugrave" unicode="&#xd9;" horiz-adv-x="423" 
d="M84 124q0 -124 63 -124q29 0 50.5 20.5t36 58t25.5 98t19.5 133t18.5 168.5q13 126 21 197q0 1 0.5 4.5t0.5 5t0.5 4.5t1.5 4.5t3 3.5t4.5 3t6 2t8.5 1q15 0 34.5 -8t27.5 -17q-6 -62 -28.5 -249.5t-27.5 -271.5q-4 -66 6 -91t33 -25q9 0 17 2.5t14 9t10 11t8 14.5
t5.5 14.5t5 15.5t3.5 12q2 0 6 -1t10 -8t6 -18q0 -40 -26 -80t-73 -40q-25 0 -39.5 18.5t-26.5 52.5q-10 -41 -47 -75.5t-94 -34.5q-157 0 -157 241q0 107 27 274t50 254q6 14 40 7t46 -20q-30 -106 -59.5 -282.5t-29.5 -283.5zM222 753l-93 134q-6 7 -3 16.5t14 13.5
q12 5 32 5.5t31 -10.5l24 -48l31 -62t16 -31q3 -6 -1 -12.5t-11 -9.5q-29 -12 -40 4z" />
    <glyph glyph-name="Uacute" unicode="&#xda;" horiz-adv-x="423" 
d="M84 124q0 -124 63 -124q29 0 50.5 20.5t36 58t25.5 98t19.5 133t18.5 168.5q13 126 21 197q0 1 0.5 4.5t0.5 5t0.5 4.5t1.5 4.5t3 3.5t4.5 3t6 2t8.5 1q15 0 34.5 -8t27.5 -17q-6 -62 -28.5 -249.5t-27.5 -271.5q-4 -66 6 -91t33 -25q9 0 17 2.5t14 9t10 11t8 14.5
t5.5 14.5t5 15.5t3.5 12q2 0 6 -1t10 -8t6 -18q0 -40 -26 -80t-73 -40q-25 0 -39.5 18.5t-26.5 52.5q-10 -41 -47 -75.5t-94 -34.5q-157 0 -157 241q0 107 27 274t50 254q6 14 40 7t46 -20q-30 -106 -59.5 -282.5t-29.5 -283.5zM268 750q-8 -5 -24.5 -0.5t-31 15t-10.5 15.5
q11 14 32 45t36.5 50t27.5 23q36 12 69 -15q23 -18 12 -28q-83 -75 -111 -105z" />
    <glyph glyph-name="Ucircumflex" unicode="&#xdb;" horiz-adv-x="423" 
d="M84 124q0 -124 63 -124q29 0 50.5 20.5t36 58t25.5 98t19.5 133t18.5 168.5q13 126 21 197q0 1 0.5 4.5t0.5 5t0.5 4.5t1.5 4.5t3 3.5t4.5 3t6 2t8.5 1q15 0 34.5 -8t27.5 -17q-6 -62 -28.5 -249.5t-27.5 -271.5q-4 -66 6 -91t33 -25q9 0 17 2.5t14 9t10 11t8 14.5
t5.5 14.5t5 15.5t3.5 12q2 0 6 -1t10 -8t6 -18q0 -40 -26 -80t-73 -40q-25 0 -39.5 18.5t-26.5 52.5q-10 -41 -47 -75.5t-94 -34.5q-157 0 -157 241q0 107 27 274t50 254q6 14 40 7t46 -20q-30 -106 -59.5 -282.5t-29.5 -283.5zM167 758l-29 18q-22 14 9 36q87 69 111 84
l33 -5q45 -60 82 -124q3 -6 -1 -12.5t-11 -9.5q-25 -11 -38 2q-6 6 -29.5 36t-29.5 37q-4 -4 -63 -56q-18 -16 -34 -6z" />
    <glyph glyph-name="Udieresis" unicode="&#xdc;" horiz-adv-x="423" 
d="M84 124q0 -124 63 -124q29 0 50.5 20.5t36 58t25.5 98t19.5 133t18.5 168.5q13 126 21 197q0 1 0.5 4.5t0.5 5t0.5 4.5t1.5 4.5t3 3.5t4.5 3t6 2t8.5 1q15 0 34.5 -8t27.5 -17q-6 -62 -28.5 -249.5t-27.5 -271.5q-4 -66 6 -91t33 -25q9 0 17 2.5t14 9t10 11t8 14.5
t5.5 14.5t5 15.5t3.5 12q2 0 6 -1t10 -8t6 -18q0 -40 -26 -80t-73 -40q-25 0 -39.5 18.5t-26.5 52.5q-10 -41 -47 -75.5t-94 -34.5q-157 0 -157 241q0 107 27 274t50 254q6 14 40 7t46 -20q-30 -106 -59.5 -282.5t-29.5 -283.5zM142 786q-29 12 -29 39q0 26 21 51.5t62 25.5
q15 0 28 -13.5t13 -39.5q0 -29 -14.5 -62t-46.5 -33q-21 0 -29.5 7t-4.5 25zM270 813q0 25 21 50.5t62 25.5q15 0 28 -13.5t13 -38.5q0 -29 -14.5 -62.5t-46.5 -33.5q-22 0 -42.5 24.5t-20.5 47.5z" />
    <glyph glyph-name="Yacute" unicode="&#xdd;" horiz-adv-x="381" 
d="M28 6q6 14 21 11.5t16 -0.5q40 88 100 232q-96 227 -134 303q-3 5 -14 1.5t-14 0.5q-9 14 -17.5 55.5t-3.5 48.5q33 46 59 8q35 -51 160 -329q78 184 130 284t84 100q16 0 36.5 -9.5t18.5 -22.5q-44 -47 -128 -238t-161 -386.5t-92 -222.5q-8 -1 -28 6t-37.5 18t-16.5 19
q13 101 21 121zM255 747q-8 -5 -24.5 -0.5t-31 15t-10.5 15.5q11 14 32 45t36.5 50t27.5 23q36 12 69 -15q23 -18 12 -28q-83 -75 -111 -105z" />
    <glyph glyph-name="Thorn" unicode="&#xde;" horiz-adv-x="418" 
d="M55 -42q12 104 19 152q-33 5 -46 11q-15 6 -12 24.5t20 29.5q2 0 16 -4.5t29 -6.5q20 148 48 337q-61 -26 -84 -94q-2 -3 -6 -3q-8 0 -36 18.5t-29 28.5q1 4 3.5 11t15 25t29 33.5t48.5 30t71 20.5q14 86 22 113q1 2 1.5 9t2 10t6.5 6t15 3q34 0 53 -21q-10 -39 -22 -117
q97 -8 161.5 -62t64.5 -141q0 -104 -79.5 -181t-207.5 -84q-2 -21 -4.5 -55.5t-3.5 -47.5q-6 -49 -11 -60q-4 -9 -17 -9q-15 0 -39 9t-28 15zM224 519h-13q-12 -83 -45 -351q92 17 146.5 77t54.5 148q0 58 -40 92t-103 34z" />
    <glyph glyph-name="germandbls" unicode="&#xdf;" horiz-adv-x="392" 
d="M186 316h-10q-8 13 -10.5 29.5t3.5 29.5q31 3 53 2q50 18 75.5 90t25.5 141q0 31 -7 44t-25 13q-38 0 -70 -43t-53.5 -116.5t-38.5 -156t-27.5 -178t-17 -166t-10.5 -136t-5 -72.5q0 -2 7.5 -5t7.5 -5q1 -12 -6.5 -58.5t-12.5 -46.5q-10 0 -41 12.5t-44 26.5l14 199
q49 555 162 730q45 70 98 70q61 0 99.5 -44.5t38.5 -101.5q0 -82 -33 -144.5t-82 -94.5q42 -16 72 -64t30 -116q0 -102 -46.5 -168t-104.5 -66q-27 0 -52.5 9.5t-36.5 22.5q-26 31 1 54q2 0 24 -15t30 -15q43 0 76.5 63t33.5 154q0 113 -89 125q-19 -3 -29 -3z" />
    <glyph glyph-name="agrave" unicode="&#xe0;" horiz-adv-x="383" 
d="M254 46h-5q-13 -29 -42.5 -51t-63.5 -22q-57 0 -93.5 54t-36.5 144q0 141 58 251t145 110q47 0 72.5 -23.5t25.5 -50.5l-1 -11q1 0 10.5 -2t16.5 -4t12 -7.5t3 -13.5q-56 -202 -56 -295q0 -77 42 -77q35 0 50.5 34t22.5 91h8t13 -7t8 -20q0 -50 -33 -108t-84 -58
q-31 0 -50.5 22t-21.5 44zM97 127q0 -47 8.5 -66.5t27.5 -19.5q38 0 75.5 115t37.5 160q-32 6 -46 22q34 47 34 100q0 33 -19 33q-49 0 -83.5 -123t-34.5 -221zM212 591l-93 134q-6 7 -3 16.5t14 13.5q12 5 32 5.5t31 -10.5l24 -48l31 -62t16 -31q3 -6 -1 -12.5t-11 -9.5
q-29 -12 -40 4z" />
    <glyph glyph-name="aacute" unicode="&#xe1;" horiz-adv-x="383" 
d="M254 46h-5q-13 -29 -42.5 -51t-63.5 -22q-57 0 -93.5 54t-36.5 144q0 141 58 251t145 110q47 0 72.5 -23.5t25.5 -50.5l-1 -11q1 0 10.5 -2t16.5 -4t12 -7.5t3 -13.5q-56 -202 -56 -295q0 -77 42 -77q35 0 50.5 34t22.5 91h8t13 -7t8 -20q0 -50 -33 -108t-84 -58
q-31 0 -50.5 22t-21.5 44zM97 127q0 -47 8.5 -66.5t27.5 -19.5q38 0 75.5 115t37.5 160q-32 6 -46 22q34 47 34 100q0 33 -19 33q-49 0 -83.5 -123t-34.5 -221zM261 582q-8 -5 -24.5 -0.5t-31 15t-10.5 15.5q11 14 32 45t36.5 50t27.5 23q36 12 69 -15q23 -18 12 -28
q-83 -75 -111 -105z" />
    <glyph glyph-name="acircumflex" unicode="&#xe2;" horiz-adv-x="383" 
d="M254 46h-5q-13 -29 -42.5 -51t-63.5 -22q-57 0 -93.5 54t-36.5 144q0 141 58 251t145 110q47 0 72.5 -23.5t25.5 -50.5l-1 -11q1 0 10.5 -2t16.5 -4t12 -7.5t3 -13.5q-56 -202 -56 -295q0 -77 42 -77q35 0 50.5 34t22.5 91h8t13 -7t8 -20q0 -50 -33 -108t-84 -58
q-31 0 -50.5 22t-21.5 44zM97 127q0 -47 8.5 -66.5t27.5 -19.5q38 0 75.5 115t37.5 160q-32 6 -46 22q34 47 34 100q0 33 -19 33q-49 0 -83.5 -123t-34.5 -221zM158 597l-29 18q-22 14 9 36q87 69 111 84l33 -5q45 -60 82 -124q3 -6 -1 -12.5t-11 -9.5q-25 -11 -38 2
q-6 6 -29.5 36t-29.5 37q-4 -3 -63 -56q-18 -16 -34 -6z" />
    <glyph glyph-name="atilde" unicode="&#xe3;" horiz-adv-x="383" 
d="M254 46h-5q-13 -29 -42.5 -51t-63.5 -22q-57 0 -93.5 54t-36.5 144q0 141 58 251t145 110q47 0 72.5 -23.5t25.5 -50.5l-1 -11q1 0 10.5 -2t16.5 -4t12 -7.5t3 -13.5q-56 -202 -56 -295q0 -77 42 -77q35 0 50.5 34t22.5 91h8t13 -7t8 -20q0 -50 -33 -108t-84 -58
q-31 0 -50.5 22t-21.5 44zM97 127q0 -47 8.5 -66.5t27.5 -19.5q38 0 75.5 115t37.5 160q-32 6 -46 22q34 47 34 100q0 33 -19 33q-49 0 -83.5 -123t-34.5 -221zM159 593q-10 0 -17 19t-1 29q9 16 28.5 31t39.5 15q29 0 56 -18t38 -18q14 0 30.5 15t22.5 15q9 0 13.5 -18
t-1.5 -33q-8 -17 -29 -32t-47 -15q-21 0 -50.5 16.5t-44.5 16.5q-11 0 -22.5 -11.5t-15.5 -11.5z" />
    <glyph glyph-name="adieresis" unicode="&#xe4;" horiz-adv-x="383" 
d="M254 46h-5q-13 -29 -42.5 -51t-63.5 -22q-57 0 -93.5 54t-36.5 144q0 141 58 251t145 110q47 0 72.5 -23.5t25.5 -50.5l-1 -11q1 0 10.5 -2t16.5 -4t12 -7.5t3 -13.5q-56 -202 -56 -295q0 -77 42 -77q35 0 50.5 34t22.5 91h8t13 -7t8 -20q0 -50 -33 -108t-84 -58
q-31 0 -50.5 22t-21.5 44zM97 127q0 -47 8.5 -66.5t27.5 -19.5q38 0 75.5 115t37.5 160q-32 6 -46 22q34 47 34 100q0 33 -19 33q-49 0 -83.5 -123t-34.5 -221zM141 624q-29 12 -29 39q0 26 21 51.5t62 25.5q15 0 28 -13.5t13 -39.5q0 -29 -14.5 -62t-46.5 -33
q-21 0 -29.5 7t-4.5 25zM269 651q0 25 21 50.5t62 25.5q15 0 28 -13.5t13 -38.5q0 -29 -14.5 -62.5t-46.5 -33.5q-22 0 -42.5 24.5t-20.5 47.5z" />
    <glyph glyph-name="aring" unicode="&#xe5;" horiz-adv-x="383" 
d="M254 46h-5q-13 -29 -42.5 -51t-63.5 -22q-57 0 -93.5 54t-36.5 144q0 141 58 251t145 110q47 0 72.5 -23.5t25.5 -50.5l-1 -11q1 0 10.5 -2t16.5 -4t12 -7.5t3 -13.5q-56 -202 -56 -295q0 -77 42 -77q35 0 50.5 34t22.5 91h8t13 -7t8 -20q0 -50 -33 -108t-84 -58
q-31 0 -50.5 22t-21.5 44zM97 127q0 -47 8.5 -66.5t27.5 -19.5q38 0 75.5 115t37.5 160q-32 6 -46 22q34 47 34 100q0 33 -19 33q-49 0 -83.5 -123t-34.5 -221zM155 660q0 36 29 65.5t80 29.5q52 0 70.5 -20.5t18.5 -61.5q0 -39 -30 -65.5t-77 -26.5q-43 0 -67 23t-24 56z
M223 658q0 -11 7.5 -18t16.5 -7q18 0 29.5 11.5t11.5 32.5q0 27 -24 27q-41 0 -41 -46z" />
    <glyph glyph-name="ae" unicode="&#xe6;" horiz-adv-x="503" 
d="M388 -79q-47 0 -85.5 32.5t-54.5 90.5q-14 -29 -42.5 -50t-62.5 -21q-54 0 -82.5 47t-28.5 124q0 97 46 153.5t95 56.5q26 0 47 -16t25 -42q15 70 1.5 129t-56.5 59q-17 0 -30 -9.5t-21.5 -29.5t-11.5 -31t-8 -32q-26 0 -46.5 17.5t-4.5 58.5q29 74 124 74q48 0 77 -30
t37 -74q50 113 104 113q33 0 57.5 -29.5t24.5 -92.5q0 -104 -29 -174t-85 -70q-19 0 -33.5 10.5t-19.5 20.5l-5 11q-18 -53 -18 -134q0 -82 69 -82q53 0 96 67.5t43 123.5q0 11 14 11q12 0 20.5 -13.5t8.5 -34.5q0 -47 -17 -99t-56.5 -93.5t-91.5 -41.5zM88 83q4 -28 14 -40
t29 -12q37 0 68 63.5t35 111.5q-15 -3 -25 4q7 28 7 51q0 39 -26 39q-32 0 -58.5 -41.5t-37.5 -92t-6 -83.5zM332 260q5 -25 25 -25q25 0 45 66.5t20 138.5q0 47 -12 47q-7 0 -15 -18q-48 -107 -63 -209z" />
    <glyph glyph-name="ccedilla" unicode="&#xe7;" horiz-adv-x="301" 
d="M230 -180q0 -41 -28.5 -66.5t-73.5 -25.5q-44 0 -68.5 27.5t-24.5 56.5q0 28 30 28l18 -4q11 -68 54 -68q34 0 34 33q0 19 -12.5 35t-27.5 24t-30.5 14.5t-17.5 8.5q-15 11 45 73q-54 20 -85.5 75.5t-31.5 135.5q0 69 19 143.5t63.5 134t103.5 59.5q39 0 69.5 -31
t30.5 -71q0 -66 -22 -102t-52 -36q-44 0 -44 48v6q34 37 34 103q0 24 -18 24q-39 0 -70 -97t-31 -213q0 -122 70 -122q38 0 72.5 35.5t53 78t21.5 76.5q10 1 16 1q31 0 31 -56q0 -17 -9 -47t-27 -66t-55 -62t-85 -26h-6q-23 -19 -32 -30q32 -12 59 -37t27 -60z" />
    <glyph glyph-name="egrave" unicode="&#xe8;" horiz-adv-x="264" 
d="M0 117q0 84 24 182.5t64.5 170t82.5 71.5q33 0 57.5 -29.5t24.5 -92.5q0 -104 -29 -174t-85 -70q-19 0 -33.5 10.5t-19.5 20.5l-5 11q-18 -53 -18 -134q0 -82 69 -82q53 0 96 67.5t43 123.5q0 11 14 11q12 0 20.5 -13.5t8.5 -34.5q0 -47 -17 -99t-56.5 -93.5t-91.5 -41.5
q-61 0 -105 53t-44 143zM93 260q5 -25 25 -25q25 0 45 66.5t20 138.5q0 47 -12 47q-7 0 -15 -18q-48 -107 -63 -209zM195 591l-93 134q-6 7 -3 16.5t14 13.5q12 5 32 5.5t31 -10.5l24 -48l31 -62t16 -31q3 -6 -1 -12.5t-11 -9.5q-29 -12 -40 4z" />
    <glyph glyph-name="eacute" unicode="&#xe9;" horiz-adv-x="264" 
d="M0 117q0 84 24 182.5t64.5 170t82.5 71.5q33 0 57.5 -29.5t24.5 -92.5q0 -104 -29 -174t-85 -70q-19 0 -33.5 10.5t-19.5 20.5l-5 11q-18 -53 -18 -134q0 -82 69 -82q53 0 96 67.5t43 123.5q0 11 14 11q12 0 20.5 -13.5t8.5 -34.5q0 -47 -17 -99t-56.5 -93.5t-91.5 -41.5
q-61 0 -105 53t-44 143zM93 260q5 -25 25 -25q25 0 45 66.5t20 138.5q0 47 -12 47q-7 0 -15 -18q-48 -107 -63 -209zM209 582q-8 -5 -24.5 -0.5t-31 15t-10.5 15.5q11 14 32 45t36.5 50t27.5 23q36 12 69 -15q23 -18 12 -28q-83 -75 -111 -105z" />
    <glyph glyph-name="ecircumflex" unicode="&#xea;" horiz-adv-x="264" 
d="M0 117q0 84 24 182.5t64.5 170t82.5 71.5q33 0 57.5 -29.5t24.5 -92.5q0 -104 -29 -174t-85 -70q-19 0 -33.5 10.5t-19.5 20.5l-5 11q-18 -53 -18 -134q0 -82 69 -82q53 0 96 67.5t43 123.5q0 11 14 11q12 0 20.5 -13.5t8.5 -34.5q0 -47 -17 -99t-56.5 -93.5t-91.5 -41.5
q-61 0 -105 53t-44 143zM93 260q5 -25 25 -25q25 0 45 66.5t20 138.5q0 47 -12 47q-7 0 -15 -18q-48 -107 -63 -209zM109 594l-29 18q-22 14 9 36q87 69 111 84l33 -5q45 -60 82 -124q3 -6 -1 -12.5t-11 -9.5q-25 -11 -38 2q-6 6 -29.5 36t-29.5 37q-4 -4 -63 -56
q-18 -16 -34 -6z" />
    <glyph glyph-name="edieresis" unicode="&#xeb;" horiz-adv-x="264" 
d="M0 117q0 84 24 182.5t64.5 170t82.5 71.5q33 0 57.5 -29.5t24.5 -92.5q0 -104 -29 -174t-85 -70q-19 0 -33.5 10.5t-19.5 20.5l-5 11q-18 -53 -18 -134q0 -82 69 -82q53 0 96 67.5t43 123.5q0 11 14 11q12 0 20.5 -13.5t8.5 -34.5q0 -47 -17 -99t-56.5 -93.5t-91.5 -41.5
q-61 0 -105 53t-44 143zM93 260q5 -25 25 -25q25 0 45 66.5t20 138.5q0 47 -12 47q-7 0 -15 -18q-48 -107 -63 -209zM87 624q-29 12 -29 39q0 26 21 51.5t62 25.5q15 0 28 -13.5t13 -39.5q0 -29 -14.5 -62t-46.5 -33q-21 0 -29.5 7t-4.5 25zM215 651q0 25 21 50.5t62 25.5
q15 0 28 -13.5t13 -38.5q0 -29 -14.5 -62.5t-46.5 -33.5q-22 0 -42.5 24.5t-20.5 47.5z" />
    <glyph glyph-name="igrave" unicode="&#xec;" horiz-adv-x="198" 
d="M20 79q0 70 24 200.5t43 199.5q4 13 18 13q37 0 61 -14q16 -9 12 -23q-76 -280 -75 -382q0 -26 8.5 -40.5t21.5 -14.5q22 0 38.5 17t25.5 43t13.5 48t5.5 41q2 0 4 0.5t8.5 0t11.5 -2.5t9 -9.5t4 -18.5q0 -37 -12.5 -75t-48 -70.5t-86.5 -32.5q-86 0 -86 120zM145 591
l-93 134q-6 7 -3 16.5t14 13.5q12 5 32 5.5t31 -10.5l24 -48l31 -62t16 -31q3 -6 -1 -12.5t-11 -9.5q-29 -12 -40 4z" />
    <glyph glyph-name="iacute" unicode="&#xed;" horiz-adv-x="198" 
d="M20 79q0 70 24 200.5t43 199.5q4 13 18 13q37 0 61 -14q16 -9 12 -23q-76 -280 -75 -382q0 -26 8.5 -40.5t21.5 -14.5q22 0 38.5 17t25.5 43t13.5 48t5.5 41q2 0 4 0.5t8.5 0t11.5 -2.5t9 -9.5t4 -18.5q0 -37 -12.5 -75t-48 -70.5t-86.5 -32.5q-86 0 -86 120zM178 588
q-8 -5 -24.5 -0.5t-31 15t-10.5 15.5q11 14 32 45t36.5 50t27.5 23q36 12 69 -15q23 -18 12 -28q-83 -75 -111 -105z" />
    <glyph glyph-name="icircumflex" unicode="&#xee;" horiz-adv-x="198" 
d="M20 79q0 70 24 200.5t43 199.5q4 13 18 13q37 0 61 -14q16 -9 12 -23q-76 -280 -75 -382q0 -26 8.5 -40.5t21.5 -14.5q22 0 38.5 17t25.5 43t13.5 48t5.5 41q2 0 4 0.5t8.5 0t11.5 -2.5t9 -9.5t4 -18.5q0 -37 -12.5 -75t-48 -70.5t-86.5 -32.5q-86 0 -86 120zM68 584
l-29 18q-22 14 9 36q87 69 111 84l33 -5q45 -60 82 -124q3 -6 -1 -12.5t-11 -9.5q-25 -11 -38 2q-6 6 -29.5 36t-29.5 37q-4 -4 -63 -56q-18 -16 -34 -6z" />
    <glyph glyph-name="idieresis" unicode="&#xef;" horiz-adv-x="198" 
d="M20 79q0 70 24 200.5t43 199.5q4 13 18 13q37 0 61 -14q16 -9 12 -23q-76 -280 -75 -382q0 -26 8.5 -40.5t21.5 -14.5q22 0 38.5 17t25.5 43t13.5 48t5.5 41q2 0 4 0.5t8.5 0t11.5 -2.5t9 -9.5t4 -18.5q0 -37 -12.5 -75t-48 -70.5t-86.5 -32.5q-86 0 -86 120zM48 621
q-29 12 -29 39q0 26 21 51.5t62 25.5q15 0 28 -13.5t13 -39.5q0 -29 -14.5 -62t-46.5 -33q-21 0 -29.5 7t-4.5 25zM176 648q0 25 21 50.5t62 25.5q15 0 28 -13.5t13 -38.5q0 -29 -14.5 -62.5t-46.5 -33.5q-22 0 -42.5 24.5t-20.5 47.5z" />
    <glyph glyph-name="eth" unicode="&#xf0;" horiz-adv-x="375" 
d="M203 575q-10 -5 -25.5 2t-24.5 18t-3 16q24 19 79 49q-14 16 -44 43q12 55 61 49q30 -16 60 -55q44 19 62 24q9 4 33 -19t8 -29q-4 -2 -29.5 -12t-39.5 -16q31 -58 49 -127.5t17 -162.5t-29 -186q-9 -29 -18.5 -54t-24 -53.5t-31.5 -47.5t-39 -35t-46 -16.5t-55 8.5
q-41 15 -72 68.5t-44 119.5t-10 136t25 117q24 52 76 73t98 -2q18 -9 33 -26t28 -43.5t19 -41t16 -43.5q21 153 -65 282q-28 -14 -64 -36zM184 436q-28 14 -48 -24q-18 -35 -25 -115.5t7.5 -159.5t52.5 -96q39 -18 85.5 50t60.5 149q-12 -1 -22 4q-5 2 -13.5 28t-18 57
t-31 62.5t-48.5 44.5z" />
    <glyph glyph-name="ntilde" unicode="&#xf1;" horiz-adv-x="330" 
d="M206 324h-12q-34 -74 -64 -180.5t-29 -172.5q-13 -15 -34 -15q-57 0 -57 130q0 175 22 294.5t65 119.5q8 0 14.5 -1.5t12.5 -8t5 -17.5q-2 -19 -21 -124.5t-19 -163.5h4q84 246 132 338q4 9 22 9q24 0 48 -14t22 -36q-3 -39 -32 -164.5t-29 -200.5q0 -76 41 -76
q37 0 61 79q2 0 6 -1t10 -8t6 -18q0 -38 -32.5 -79t-80.5 -41q-87 0 -87 153q0 65 26 198zM111 596q-10 0 -17 19t-1 29q9 16 28.5 31t39.5 15q29 0 56 -18t38 -18q14 0 30.5 15t22.5 15q9 0 13.5 -18t-1.5 -33q-8 -17 -29 -32t-47 -15q-21 0 -50.5 16.5t-44.5 16.5
q-11 0 -22.5 -11.5t-15.5 -11.5z" />
    <glyph glyph-name="ograve" unicode="&#xf2;" horiz-adv-x="323" 
d="M16 215q4 100 44.5 200t86.5 114q22 -12 26 -25q14 12 35 12q38 0 63 -16t37 -46t16 -63t3 -76q-2 -48 -11 -102t-27 -112.5t-53 -96t-80 -37.5q-49 0 -83 40t-46.5 94t-10.5 114zM80 175q-2 -59 13 -98.5t45 -39.5q32 0 58 41.5t39.5 100.5t20.5 107t8 77q2 71 -11 89
q-9 11 -22 11q-20 0 -40.5 -27.5t-35.5 -68t-24.5 -75.5t-14.5 -61q-1 -3 -12.5 1t-16.5 8q-6 -28 -7 -65zM210 591l-93 134q-6 7 -3 16.5t14 13.5q12 5 32 5.5t31 -10.5l24 -48l31 -62t16 -31q3 -6 -1 -12.5t-11 -9.5q-29 -12 -40 4z" />
    <glyph glyph-name="oacute" unicode="&#xf3;" horiz-adv-x="323" 
d="M16 215q4 100 44.5 200t86.5 114q22 -12 26 -25q14 12 35 12q38 0 63 -16t37 -46t16 -63t3 -76q-2 -48 -11 -102t-27 -112.5t-53 -96t-80 -37.5q-49 0 -83 40t-46.5 94t-10.5 114zM80 175q-2 -59 13 -98.5t45 -39.5q32 0 58 41.5t39.5 100.5t20.5 107t8 77q2 71 -11 89
q-9 11 -22 11q-20 0 -40.5 -27.5t-35.5 -68t-24.5 -75.5t-14.5 -61q-1 -3 -12.5 1t-16.5 8q-6 -28 -7 -65zM244 586q-8 -5 -24.5 -0.5t-31 15t-10.5 15.5q11 14 32 45t36.5 50t27.5 23q36 12 69 -15q23 -18 12 -28q-83 -75 -111 -105z" />
    <glyph glyph-name="ocircumflex" unicode="&#xf4;" horiz-adv-x="323" 
d="M16 215q4 100 44.5 200t86.5 114q22 -12 26 -25q14 12 35 12q38 0 63 -16t37 -46t16 -63t3 -76q-2 -48 -11 -102t-27 -112.5t-53 -96t-80 -37.5q-49 0 -83 40t-46.5 94t-10.5 114zM80 175q-2 -59 13 -98.5t45 -39.5q32 0 58 41.5t39.5 100.5t20.5 107t8 77q2 71 -11 89
q-9 11 -22 11q-20 0 -40.5 -27.5t-35.5 -68t-24.5 -75.5t-14.5 -61q-1 -3 -12.5 1t-16.5 8q-6 -28 -7 -65zM143 597l-29 18q-22 14 9 36q87 69 111 84l33 -5q45 -60 82 -124q3 -6 -1 -12.5t-11 -9.5q-25 -11 -38 2q-6 6 -29.5 36t-29.5 37q-4 -3 -63 -56q-18 -16 -34 -6z
" />
    <glyph glyph-name="otilde" unicode="&#xf5;" horiz-adv-x="323" 
d="M16 215q4 100 44.5 200t86.5 114q22 -12 26 -25q14 12 35 12q38 0 63 -16t37 -46t16 -63t3 -76q-2 -48 -11 -102t-27 -112.5t-53 -96t-80 -37.5q-49 0 -83 40t-46.5 94t-10.5 114zM80 175q-2 -59 13 -98.5t45 -39.5q32 0 58 41.5t39.5 100.5t20.5 107t8 77q2 71 -11 89
q-9 11 -22 11q-20 0 -40.5 -27.5t-35.5 -68t-24.5 -75.5t-14.5 -61q-1 -3 -12.5 1t-16.5 8q-6 -28 -7 -65zM133 591q-10 0 -17 19t-1 29q9 16 28.5 31t39.5 15q29 0 56 -18t38 -18q14 0 30.5 15t22.5 15q9 0 13.5 -18t-1.5 -33q-8 -17 -29 -32t-47 -15q-21 0 -50.5 16.5
t-44.5 16.5q-11 0 -22.5 -11.5t-15.5 -11.5z" />
    <glyph glyph-name="odieresis" unicode="&#xf6;" horiz-adv-x="323" 
d="M16 215q4 100 44.5 200t86.5 114q22 -12 26 -25q14 12 35 12q38 0 63 -16t37 -46t16 -63t3 -76q-2 -48 -11 -102t-27 -112.5t-53 -96t-80 -37.5q-49 0 -83 40t-46.5 94t-10.5 114zM80 175q-2 -59 13 -98.5t45 -39.5q32 0 58 41.5t39.5 100.5t20.5 107t8 77q2 71 -11 89
q-9 11 -22 11q-20 0 -40.5 -27.5t-35.5 -68t-24.5 -75.5t-14.5 -61q-1 -3 -12.5 1t-16.5 8q-6 -28 -7 -65zM113 622q-29 12 -29 39q0 26 21 51.5t62 25.5q15 0 28 -13.5t13 -39.5q0 -29 -14.5 -62t-46.5 -33q-21 0 -29.5 7t-4.5 25zM241 649q0 25 21 50.5t62 25.5
q15 0 28 -13.5t13 -38.5q0 -29 -14.5 -62.5t-46.5 -33.5q-22 0 -42.5 24.5t-20.5 47.5z" />
    <glyph glyph-name="divide" unicode="&#xf7;" horiz-adv-x="423" 
d="M108 249q-12 -3 -26.5 15.5t-19 37t2.5 24.5q49 18 146 30t135 9q10 -1 27 -40q21 -49 -1 -49q-160 -4 -264 -27zM201 456q-32 13 -32 44q0 29 22.5 57.5t67.5 28.5q16 0 30 -15t14 -44q0 -12 -3 -28.5t-10 -35t-20.5 -31t-32.5 -12.5q-22 0 -31.5 8t-4.5 28zM130 120
q0 29 22.5 57.5t67.5 28.5q16 0 30 -15t14 -44q0 -12 -3 -28.5t-10 -35t-20.5 -31t-32.5 -12.5q-24 0 -46 27.5t-22 52.5z" />
    <glyph glyph-name="oslash" unicode="&#xf8;" horiz-adv-x="323" 
d="M38 -11q2 7 5.5 13t6 9t6 6.5l4.5 4.5q-48 74 -44 193q4 100 44.5 200t86.5 114q22 -12 26 -25q14 12 35 12q36 0 60 -15q36 63 65 63q13 0 20 -9t5 -23q-26 -27 -51 -75q22 -46 20 -142q-2 -48 -11 -102t-27 -112.5t-53 -96t-80 -37.5q-25 0 -47 11q-26 -67 -36 -84
q-13 -1 -30.5 9t-16.5 22q4 39 12 64zM80 175q-3 -51 10 -90q24 56 77 189t78 185q-8 4 -14 4q-20 0 -40.5 -27.5t-35.5 -68t-24.5 -75.5t-14.5 -61q-1 -3 -12.5 1t-16.5 8q-6 -28 -7 -65zM264 363v8q-49 -108 -132 -334h6q32 0 58 41.5t39.5 100.5t20.5 107t8 77z" />
    <glyph glyph-name="ugrave" unicode="&#xf9;" horiz-adv-x="349" 
d="M215 139l-6 -1q-43 -152 -90 -152q-35 0 -74.5 43.5t-39.5 92.5q0 91 36 229.5t63 138.5q10 0 26.5 -8.5t22.5 -18.5q-64 -220 -64 -388l14 -5q50 82 90.5 210t50.5 216q1 12 17 12q22 0 44 -12.5t22 -25.5q0 -14 -24 -150.5t-24 -178.5q0 -26 10 -51.5t32 -25.5
q19 0 34.5 23t20.5 46l6 23q27 0 27 -25q0 -34 -35 -82t-74 -48q-35 0 -56 24t-26 52t-3 62zM195 591l-93 134q-6 7 -3 16.5t14 13.5q12 5 32 5.5t31 -10.5l24 -48l31 -62t16 -31q3 -6 -1 -12.5t-11 -9.5q-29 -12 -40 4z" />
    <glyph glyph-name="uacute" unicode="&#xfa;" horiz-adv-x="349" 
d="M215 139l-6 -1q-43 -152 -90 -152q-35 0 -74.5 43.5t-39.5 92.5q0 91 36 229.5t63 138.5q10 0 26.5 -8.5t22.5 -18.5q-64 -220 -64 -388l14 -5q50 82 90.5 210t50.5 216q1 12 17 12q22 0 44 -12.5t22 -25.5q0 -14 -24 -150.5t-24 -178.5q0 -26 10 -51.5t32 -25.5
q19 0 34.5 23t20.5 46l6 23q27 0 27 -25q0 -34 -35 -82t-74 -48q-35 0 -56 24t-26 52t-3 62zM241 584q-8 -5 -24.5 -0.5t-31 15t-10.5 15.5q11 14 32 45t36.5 50t27.5 23q36 12 69 -15q23 -18 12 -28q-83 -75 -111 -105z" />
    <glyph glyph-name="ucircumflex" unicode="&#xfb;" horiz-adv-x="349" 
d="M215 139l-6 -1q-43 -152 -90 -152q-35 0 -74.5 43.5t-39.5 92.5q0 91 36 229.5t63 138.5q10 0 26.5 -8.5t22.5 -18.5q-64 -220 -64 -388l14 -5q50 82 90.5 210t50.5 216q1 12 17 12q22 0 44 -12.5t22 -25.5q0 -14 -24 -150.5t-24 -178.5q0 -26 10 -51.5t32 -25.5
q19 0 34.5 23t20.5 46l6 23q27 0 27 -25q0 -34 -35 -82t-74 -48q-35 0 -56 24t-26 52t-3 62zM142 598l-29 18q-22 14 9 36q87 69 111 84l33 -5q45 -60 82 -124q3 -6 -1 -12.5t-11 -9.5q-25 -11 -38 2q-6 6 -29.5 36t-29.5 37q-4 -4 -63 -56q-18 -16 -34 -6z" />
    <glyph glyph-name="udieresis" unicode="&#xfc;" horiz-adv-x="349" 
d="M215 139l-6 -1q-43 -152 -90 -152q-35 0 -74.5 43.5t-39.5 92.5q0 91 36 229.5t63 138.5q10 0 26.5 -8.5t22.5 -18.5q-64 -220 -64 -388l14 -5q50 82 90.5 210t50.5 216q1 12 17 12q22 0 44 -12.5t22 -25.5q0 -14 -24 -150.5t-24 -178.5q0 -26 10 -51.5t32 -25.5
q19 0 34.5 23t20.5 46l6 23q27 0 27 -25q0 -34 -35 -82t-74 -48q-35 0 -56 24t-26 52t-3 62zM121 624q-29 12 -29 39q0 26 21 51.5t62 25.5q15 0 28 -13.5t13 -39.5q0 -29 -14.5 -62t-46.5 -33q-21 0 -29.5 7t-4.5 25zM249 651q0 25 21 50.5t62 25.5q15 0 28 -13.5t13 -38.5
q0 -29 -14.5 -62.5t-46.5 -33.5q-22 0 -42.5 24.5t-20.5 47.5z" />
    <glyph glyph-name="yacute" unicode="&#xfd;" horiz-adv-x="303" 
d="M5 140q0 151 67 356q3 9 24 9q16 0 33 -11.5t18 -29.5q-65 -230 -65 -362q0 -52 23 -52q22 0 49 51t36 93q2 8 13 96.5t25.5 158t29.5 69.5q25 0 45 -12t20 -28q0 -54 -26.5 -157t-30.5 -132q-46 -310 -46 -418q0 -8 -10 -8q-24 0 -63 22q-10 6 -10 25t15.5 115t18.5 134
q-26 -63 -71 -63q-28 0 -48 13.5t-29.5 37t-13.5 46t-4 47.5zM228 583q-8 -5 -24.5 -0.5t-31 15t-10.5 15.5q11 14 32 45t36.5 50t27.5 23q36 12 69 -15q23 -18 12 -28q-83 -75 -111 -105z" />
    <glyph glyph-name="thorn" unicode="&#xfe;" horiz-adv-x="276" 
d="M-22 175q21 153 58 358.5t49 205.5q18 0 42.5 -12.5t24.5 -21.5q-63 -254 -68 -282q21 46 47 69.5t49 23.5q46 0 82.5 -54t36.5 -111q0 -36 -9 -94.5t-26.5 -126.5t-52 -115.5t-78.5 -47.5q-60 0 -103 68q-5 -42 -12.5 -137t-9.5 -112q-1 -10 -3.5 -12t-8.5 -3t-30 6
t-36 15q-2 13 -2 24.5t6.5 60t12 85.5t15.5 102.5t16 110.5zM75 230l-13 2l-2 -13q-2 -13 -5 -42t-3 -61q0 -31 11.5 -51.5t32.5 -20.5q39 0 67.5 51t40.5 121t17 115.5t5 61.5t-0.5 23t-2.5 18t-7.5 15.5t-15.5 4.5q-21 0 -42.5 -26t-37.5 -65t-26.5 -72t-16.5 -60
q0 -1 -2 -1z" />
    <glyph glyph-name="ydieresis" unicode="&#xff;" horiz-adv-x="303" 
d="M5 140q0 151 67 356q3 9 24 9q16 0 33 -11.5t18 -29.5q-65 -230 -65 -362q0 -52 23 -52q22 0 49 51t36 93q2 8 13 96.5t25.5 158t29.5 69.5q25 0 45 -12t20 -28q0 -54 -26.5 -157t-30.5 -132q-46 -310 -46 -418q0 -8 -10 -8q-24 0 -63 22q-10 6 -10 25t15.5 115t18.5 134
q-26 -63 -71 -63q-28 0 -48 13.5t-29.5 37t-13.5 46t-4 47.5zM112 623q-29 12 -29 39q0 26 21 51.5t62 25.5q15 0 28 -13.5t13 -39.5q0 -29 -14.5 -62t-46.5 -33q-21 0 -29.5 7t-4.5 25zM240 650q0 25 21 50.5t62 25.5q15 0 28 -13.5t13 -38.5q0 -29 -14.5 -62.5
t-46.5 -33.5q-22 0 -42.5 24.5t-20.5 47.5z" />
    <glyph glyph-name="Amacron" unicode="&#x100;" horiz-adv-x="397" 
d="M271 96l14 3q-2 103 0 157q-63 -2 -163 -22q-54 -157 -75 -302q-5 -18 -42.5 -4.5t-44.5 24.5q9 99 66 261q-17 1 -29.5 28.5t-1.5 36.5q13 10 67 26q63 151 137.5 269.5t139.5 154.5q24 -3 36.5 -8.5t21.5 -19.5q-26 -122 -33 -278t-2.5 -253.5t12.5 -178.5
q-7 -13 -42.5 -2t-43.5 28q-18 40 -17 80zM313 610q-85 -113 -157 -285q24 5 49 7q53 5 57 -7q3 -7 11.5 -8t13.5 -6q7 163 30 298zM232 810q42 13 124 16t108 -1q10 -1 27 -30q21 -38 -1 -38q-192 0 -215 -3q-21 -2 -40 28q-16 24 -3 28z" />
    <glyph glyph-name="amacron" unicode="&#x101;" horiz-adv-x="383" 
d="M254 46h-5q-13 -29 -42.5 -51t-63.5 -22q-57 0 -93.5 54t-36.5 144q0 141 58 251t145 110q47 0 72.5 -23.5t25.5 -50.5l-1 -11q1 0 10.5 -2t16.5 -4t12 -7.5t3 -13.5q-56 -202 -56 -295q0 -77 42 -77q35 0 50.5 34t22.5 91h8t13 -7t8 -20q0 -50 -33 -108t-84 -58
q-31 0 -50.5 22t-21.5 44zM97 127q0 -47 8.5 -66.5t27.5 -19.5q38 0 75.5 115t37.5 160q-32 6 -46 22q34 47 34 100q0 33 -19 33q-49 0 -83.5 -123t-34.5 -221zM102 652q42 13 124 16t108 -1q10 -1 27 -30q21 -38 -1 -38q-192 0 -215 -3q-21 -2 -40 28q-16 24 -3 28z" />
    <glyph glyph-name="Abreve" unicode="&#x102;" horiz-adv-x="397" 
d="M271 96l14 3q-2 103 0 157q-63 -2 -163 -22q-54 -157 -75 -302q-5 -18 -42.5 -4.5t-44.5 24.5q9 99 66 261q-17 1 -29.5 28.5t-1.5 36.5q13 10 67 26q63 151 137.5 269.5t139.5 154.5q24 -3 36.5 -8.5t21.5 -19.5q-26 -122 -33 -278t-2.5 -253.5t12.5 -178.5
q-7 -13 -42.5 -2t-43.5 28q-18 40 -17 80zM313 610q-85 -113 -157 -285q24 5 49 7q53 5 57 -7q3 -7 11.5 -8t13.5 -6q7 163 30 298zM427 868q8 14 32 3t31 -26q-16 -45 -46.5 -69t-67.5 -24q-34 0 -61 19.5t-35 49.5q-6 23 5.5 37t32.5 9q3 -24 14.5 -42.5t31.5 -18.5
q22 0 36 15t27 47z" />
    <glyph glyph-name="abreve" unicode="&#x103;" horiz-adv-x="383" 
d="M254 46h-5q-13 -29 -42.5 -51t-63.5 -22q-57 0 -93.5 54t-36.5 144q0 141 58 251t145 110q47 0 72.5 -23.5t25.5 -50.5l-1 -11q1 0 10.5 -2t16.5 -4t12 -7.5t3 -13.5q-56 -202 -56 -295q0 -77 42 -77q35 0 50.5 34t22.5 91h8t13 -7t8 -20q0 -50 -33 -108t-84 -58
q-31 0 -50.5 22t-21.5 44zM97 127q0 -47 8.5 -66.5t27.5 -19.5q38 0 75.5 115t37.5 160q-32 6 -46 22q34 47 34 100q0 33 -19 33q-49 0 -83.5 -123t-34.5 -221zM306 700q8 14 32 3t31 -26q-16 -45 -46.5 -69t-67.5 -24q-34 0 -61 19.5t-35 49.5q-6 23 5.5 37t32.5 9
q3 -24 14.5 -42.5t31.5 -18.5q22 0 36 15t27 47z" />
    <glyph glyph-name="Aogonek" unicode="&#x104;" horiz-adv-x="397" 
d="M204 -90q0 69 86 101q-2 4 -2 5q-18 40 -17 80l14 3q-2 103 0 157q-63 -2 -163 -22q-54 -157 -75 -302q-5 -18 -42.5 -4.5t-44.5 24.5q9 99 66 261q-17 1 -29.5 28.5t-1.5 36.5q13 10 67 26q63 151 137.5 269.5t139.5 154.5q24 -3 36.5 -8.5t21.5 -19.5
q-26 -122 -33 -278t-2.5 -253.5t12.5 -178.5q-4 -4 -8 -5q-2 -2 -30.5 -14.5t-51.5 -33.5t-23 -50q0 -13 11.5 -20.5t29.5 -7.5q45 0 89 46q18 -4 31.5 -21t13.5 -32q0 -17 -30.5 -35t-82.5 -18q-55 0 -87 30.5t-32 80.5zM313 610q-85 -113 -157 -285q24 5 49 7q53 5 57 -7
q3 -7 11.5 -8t13.5 -6q7 163 30 298z" />
    <glyph glyph-name="aogonek" unicode="&#x105;" horiz-adv-x="383" 
d="M209 -78q0 56 59 88q-12 16 -14 36h-5q-13 -29 -42.5 -51t-63.5 -22q-57 0 -93.5 54t-36.5 144q0 141 58 251t145 110q47 0 72.5 -23.5t25.5 -50.5l-1 -11q1 0 10.5 -2t16.5 -4t12 -7.5t3 -13.5q-56 -202 -56 -295q0 -77 42 -77q35 0 50.5 34t22.5 91h8t13 -7t8 -20
q0 -45 -28 -99.5t-73 -64.5q-76 -34 -76 -83q0 -13 11.5 -20.5t29.5 -7.5q45 0 89 46q18 -4 31.5 -21t13.5 -32q0 -17 -30.5 -35t-82.5 -18q-55 0 -87 30.5t-32 80.5zM97 127q0 -47 8.5 -66.5t27.5 -19.5q38 0 75.5 115t37.5 160q-32 6 -46 22q34 47 34 100q0 33 -19 33
q-49 0 -83.5 -123t-34.5 -221z" />
    <glyph glyph-name="Cacute" unicode="&#x106;" horiz-adv-x="391" 
d="M10 231q0 91 32 202t93.5 197.5t131.5 86.5q45 0 81 -42.5t36 -98.5q0 -59 -33.5 -122.5t-55.5 -63.5q-11 0 -26.5 17.5t-21.5 33.5q6 10 16 27t27 64.5t19 87.5q0 15 -11 24t-23 9q-22 0 -55 -43.5t-63.5 -109t-52 -151.5t-21.5 -161t25 -117t66 -42t73 27t50 70.5
t28 81.5t15 78q11 1 18 1q33 0 33 -66q0 -53 -18 -113.5t-62 -110.5t-102 -50q-92 0 -145.5 77.5t-53.5 206.5zM306 750q-8 -5 -24.5 -0.5t-31 15t-10.5 15.5q11 14 32 45t36.5 50t27.5 23q36 12 69 -15q23 -18 12 -28q-83 -75 -111 -105z" />
    <glyph glyph-name="cacute" unicode="&#x107;" horiz-adv-x="301" 
d="M11 167q0 69 19 143.5t63.5 134t103.5 59.5q39 0 69.5 -31t30.5 -71q0 -66 -22 -102t-52 -36q-44 0 -44 48v6q34 37 34 103q0 24 -18 24q-39 0 -70 -97t-31 -213q0 -122 70 -122q38 0 72.5 35.5t53 78t21.5 76.5q10 1 16 1q31 0 31 -56q0 -17 -9 -47t-27 -66t-55 -62
t-85 -26q-76 0 -123.5 61t-47.5 159zM251 581q-8 -5 -24.5 -0.5t-31 15t-10.5 15.5q11 14 32 45t36.5 50t27.5 23q36 12 69 -15q23 -18 12 -28q-83 -75 -111 -105z" />
    <glyph glyph-name="Ccircumflex" unicode="&#x108;" horiz-adv-x="391" 
d="M10 231q0 91 32 202t93.5 197.5t131.5 86.5q45 0 81 -42.5t36 -98.5q0 -59 -33.5 -122.5t-55.5 -63.5q-11 0 -26.5 17.5t-21.5 33.5q6 10 16 27t27 64.5t19 87.5q0 15 -11 24t-23 9q-22 0 -55 -43.5t-63.5 -109t-52 -151.5t-21.5 -161t25 -117t66 -42t73 27t50 70.5
t28 81.5t15 78q11 1 18 1q33 0 33 -66q0 -53 -18 -113.5t-62 -110.5t-102 -50q-92 0 -145.5 77.5t-53.5 206.5zM206 757l-29 18q-22 14 9 36q87 69 111 84l33 -5q45 -60 82 -124q3 -6 -1 -12.5t-11 -9.5q-25 -11 -38 2q-6 6 -29.5 36t-29.5 37q-4 -3 -63 -56q-18 -16 -34 -6
z" />
    <glyph glyph-name="ccircumflex" unicode="&#x109;" horiz-adv-x="301" 
d="M11 167q0 69 19 143.5t63.5 134t103.5 59.5q39 0 69.5 -31t30.5 -71q0 -66 -22 -102t-52 -36q-44 0 -44 48v6q34 37 34 103q0 24 -18 24q-39 0 -70 -97t-31 -213q0 -122 70 -122q38 0 72.5 35.5t53 78t21.5 76.5q10 1 16 1q31 0 31 -56q0 -17 -9 -47t-27 -66t-55 -62
t-85 -26q-76 0 -123.5 61t-47.5 159zM137 584l-29 18q-22 14 9 36q87 69 111 84l33 -5q45 -60 82 -124q3 -6 -1 -12.5t-11 -9.5q-25 -11 -38 2q-6 6 -29.5 36t-29.5 37q-4 -4 -63 -56q-18 -16 -34 -6z" />
    <glyph glyph-name="Cdotaccent" unicode="&#x10a;" horiz-adv-x="391" 
d="M10 231q0 91 32 202t93.5 197.5t131.5 86.5q45 0 81 -42.5t36 -98.5q0 -59 -33.5 -122.5t-55.5 -63.5q-11 0 -26.5 17.5t-21.5 33.5q6 10 16 27t27 64.5t19 87.5q0 15 -11 24t-23 9q-22 0 -55 -43.5t-63.5 -109t-52 -151.5t-21.5 -161t25 -117t66 -42t73 27t50 70.5
t28 81.5t15 78q11 1 18 1q33 0 33 -66q0 -53 -18 -113.5t-62 -110.5t-102 -50q-92 0 -145.5 77.5t-53.5 206.5zM274 773q-29 12 -29 39q0 26 21 51.5t62 25.5q15 0 28 -13.5t13 -39.5q0 -29 -14.5 -62t-46.5 -33q-21 0 -29.5 7t-4.5 25z" />
    <glyph glyph-name="cdotaccent" unicode="&#x10b;" horiz-adv-x="301" 
d="M11 167q0 69 19 143.5t63.5 134t103.5 59.5q39 0 69.5 -31t30.5 -71q0 -66 -22 -102t-52 -36q-44 0 -44 48v6q34 37 34 103q0 24 -18 24q-39 0 -70 -97t-31 -213q0 -122 70 -122q38 0 72.5 35.5t53 78t21.5 76.5q10 1 16 1q31 0 31 -56q0 -17 -9 -47t-27 -66t-55 -62
t-85 -26q-76 0 -123.5 61t-47.5 159zM198 608q-29 12 -29 39q0 26 21 51.5t62 25.5q15 0 28 -13.5t13 -39.5q0 -29 -14.5 -62t-46.5 -33q-21 0 -29.5 7t-4.5 25z" />
    <glyph glyph-name="Ccaron" unicode="&#x10c;" horiz-adv-x="391" 
d="M10 231q0 91 32 202t93.5 197.5t131.5 86.5q45 0 81 -42.5t36 -98.5q0 -59 -33.5 -122.5t-55.5 -63.5q-11 0 -26.5 17.5t-21.5 33.5q6 10 16 27t27 64.5t19 87.5q0 15 -11 24t-23 9q-22 0 -55 -43.5t-63.5 -109t-52 -151.5t-21.5 -161t25 -117t66 -42t73 27t50 70.5
t28 81.5t15 78q11 1 18 1q33 0 33 -66q0 -53 -18 -113.5t-62 -110.5t-102 -50q-92 0 -145.5 77.5t-53.5 206.5zM402 882l27 -17q22 -14 -9 -36q-87 -69 -111 -84l-33 5q-15 20 -51.5 73t-40.5 59q-3 6 1 12.5t11 9.5q25 11 38 -2q6 -6 33 -40.5t33 -40.5q51 43 65 55
q20 17 37 6z" />
    <glyph glyph-name="ccaron" unicode="&#x10d;" horiz-adv-x="301" 
d="M11 167q0 69 19 143.5t63.5 134t103.5 59.5q39 0 69.5 -31t30.5 -71q0 -66 -22 -102t-52 -36q-44 0 -44 48v6q34 37 34 103q0 24 -18 24q-39 0 -70 -97t-31 -213q0 -122 70 -122q38 0 72.5 35.5t53 78t21.5 76.5q10 1 16 1q31 0 31 -56q0 -17 -9 -47t-27 -66t-55 -62
t-85 -26q-76 0 -123.5 61t-47.5 159zM335 718l27 -17q22 -14 -9 -36q-87 -69 -111 -84l-33 5q-15 20 -51.5 73t-40.5 59q-3 6 1 12.5t11 9.5q25 11 38 -2q6 -6 33 -40.5t33 -40.5q51 43 65 55q20 17 37 6z" />
    <glyph glyph-name="Dcaron" unicode="&#x10e;" horiz-adv-x="493" 
d="M59 106q27 -122 133 -122q99 0 164.5 122t65.5 323q0 87 -34.5 140.5t-98.5 60.5q-49 -267 -86 -590q-1 -12 -16 -12q-14 0 -37.5 10.5t-27.5 16.5q28 255 91 566q-25 -10 -43.5 -29t-29.5 -47t-16.5 -48.5t-11.5 -53.5q0 -1 -4 -1q-6 0 -14.5 1.5t-21.5 4.5t-22 11
t-11 19q0 4 1.5 11.5t6.5 28.5t13 40.5t23 43.5t34 42t48 30.5t64 14.5q0 1 1 3q0 2 1 9t2.5 10t7 6t14.5 3q30 0 49 -21q-2 -12 -4 -16q92 -22 147.5 -105.5t55.5 -198.5q0 -212 -78 -335t-203 -123q-97 0 -172.5 73t-79.5 157q13 18 38.5 32t38.5 1q10 -10 20 -32.5
t12 -37.5q0 -3 -3 -4t-7 -0.5t-7.5 0t-2.5 -3.5zM401 878l27 -17q22 -14 -9 -36q-87 -69 -111 -84l-33 5q-15 20 -51.5 73t-40.5 59q-3 6 1 12.5t11 9.5q25 11 38 -2q6 -6 33 -40.5t33 -40.5q51 43 65 55q20 17 37 6z" />
    <glyph glyph-name="dcaron" unicode="&#x10f;" horiz-adv-x="441" 
d="M234 54h-3q-13 -36 -39.5 -70t-56.5 -34q-61 0 -90.5 60.5t-29.5 137.5q0 56 12 118t35 119.5t62 95t87 37.5q14 0 28 -6t21 -12l7 -6q10 54 33 236q2 20 16 20q28 0 49 -9.5t18 -24.5q-13 -69 -49.5 -327.5t-36.5 -292.5q0 -48 33 -48q23 0 39 37t22 88h8t13 -7t8 -20
q0 -50 -33 -108t-84 -58q-31 0 -50 21.5t-19 52.5zM90 88q0 -66 22 -66q35 0 83 120t48 164q-19 4 -30 20q25 84 25 107q0 35 -18 35q-50 0 -90 -131t-40 -249zM430 687q0 26 17 41t47 15q42 0 67 -21.5t25 -60.5q0 -36 -32 -70t-71 -43q-30 -7 -53.5 -1t-30.5 20.5t3 32.5
q96 -5 108 37q-23 -7 -51.5 4t-28.5 46z" />
    <glyph glyph-name="Dcroat" unicode="&#x110;" horiz-adv-x="493" 
d="M63 332q38 12 101 15q27 169 49 274q-25 -10 -43.5 -29t-29.5 -47t-16.5 -48.5t-11.5 -53.5q0 -1 -4 -1q-6 0 -14.5 1.5t-21.5 4.5t-22 11t-11 19q0 4 1.5 11.5t6.5 28.5t13 40.5t23 43.5t34 42t48 30.5t64 14.5q0 1 1 3q0 2 1 9t2.5 10t7 6t14.5 3q30 0 49 -21
q-2 -12 -4 -16q92 -22 147.5 -105.5t55.5 -198.5q0 -212 -78 -335t-203 -123q-97 0 -172.5 73t-79.5 157q13 18 38.5 32t38.5 1q10 -10 20 -32.5t12 -37.5q0 -3 -3 -4t-7 -0.5t-7.5 0t-2.5 -3.5q27 -122 133 -122q99 0 164.5 122t65.5 323q0 87 -34.5 140.5t-98.5 60.5
q-17 -88 -45 -281q27 0 51 -2q10 -1 27 -30q21 -38 -1 -38q-14 0 -43 0.5t-44 0.5q-24 -170 -31 -240q-1 -12 -16 -12q-14 0 -37.5 10.5t-27.5 16.5q11 100 31 224q-11 0 -47 -3q-21 -2 -40 28q-16 24 -3 28z" />
    <glyph glyph-name="dcroat" unicode="&#x111;" horiz-adv-x="353" 
d="M215 594q-18 -2 -35 24q-13 21 -2 24q34 9 113 18l9 70q2 20 16 20q28 0 49 -9.5t18 -24.5l-9 -50q20 1 45 1q10 -1 24 -27q16 -29 -2 -29q-2 0 -31.5 -1t-44.5 -2q-68 -450 -68 -512q0 -48 33 -48q23 0 39 37t22 88h8t13 -7t8 -20q0 -50 -33 -108t-84 -58
q-31 0 -50 21.5t-19 52.5h-3q-13 -36 -39.5 -70t-56.5 -34q-61 0 -90.5 60.5t-29.5 137.5q0 56 12 118t35 119.5t62 95t87 37.5q14 0 28 -6t21 -12l7 -6q5 27 16 108q-31 -3 -68 -8zM90 88q0 -66 22 -66q35 0 83 120t48 164q-19 4 -30 20q25 84 25 107q0 35 -18 35
q-50 0 -90 -131t-40 -249z" />
    <glyph glyph-name="Emacron" unicode="&#x112;" horiz-adv-x="366" 
d="M73 555q-12 -3 -26.5 11t-19 29t1.5 20q59 24 110 37q15 41 25 60q48 -7 63 -22q-4 -12 -5 -18q58 13 108 17q62 5 84 -22t22 -33q0 -5 -25 -25.5t-38 -29.5q-15 -9 -31 -6q-6 1 -5 5q1 5 5 14t8 15l3 6q-63 -6 -154 -27q-23 -92 -41 -201q47 8 61 9q62 5 74 -10
q5 -7 13.5 -14.5t13 -12t4.5 -8.5q0 -21 -14 -21q-64 -1 -163 -23q-13 -103 -19 -231q180 51 256 45q10 -1 28 -32q22 -40 0 -40q-87 -2 -288 -51v-29q-5 -14 -26 -8t-43 20q-1 0 -2.5 -0.5t-2.5 -1.5q-19 -4 -40 27q-17 27 -5 33l41 13q4 101 19 236q-12 -3 -26 8.5
t-18.5 25t0.5 20.5q10 9 54 23q15 109 38 202zM102 803q42 13 124 16t108 -1q10 -1 27 -30q21 -38 -1 -38q-192 0 -215 -3q-21 -2 -40 28q-16 24 -3 28z" />
    <glyph glyph-name="emacron" unicode="&#x113;" horiz-adv-x="264" 
d="M0 117q0 84 24 182.5t64.5 170t82.5 71.5q33 0 57.5 -29.5t24.5 -92.5q0 -104 -29 -174t-85 -70q-19 0 -33.5 10.5t-19.5 20.5l-5 11q-18 -53 -18 -134q0 -82 69 -82q53 0 96 67.5t43 123.5q0 11 14 11q12 0 20.5 -13.5t8.5 -34.5q0 -47 -17 -99t-56.5 -93.5t-91.5 -41.5
q-61 0 -105 53t-44 143zM93 260q5 -25 25 -25q25 0 45 66.5t20 138.5q0 47 -12 47q-7 0 -15 -18q-48 -107 -63 -209zM66 639q42 13 124 16t108 -1q10 -1 27 -30q21 -38 -1 -38q-192 0 -215 -3q-21 -2 -40 28q-16 24 -3 28z" />
    <glyph glyph-name="Ebreve" unicode="&#x114;" horiz-adv-x="366" 
d="M73 555q-12 -3 -26.5 11t-19 29t1.5 20q59 24 110 37q15 41 25 60q48 -7 63 -22q-4 -12 -5 -18q58 13 108 17q62 5 84 -22t22 -33q0 -5 -25 -25.5t-38 -29.5q-15 -9 -31 -6q-6 1 -5 5q1 5 5 14t8 15l3 6q-63 -6 -154 -27q-23 -92 -41 -201q47 8 61 9q62 5 74 -10
q5 -7 13.5 -14.5t13 -12t4.5 -8.5q0 -21 -14 -21q-64 -1 -163 -23q-13 -103 -19 -231q180 51 256 45q10 -1 28 -32q22 -40 0 -40q-87 -2 -288 -51v-29q-5 -14 -26 -8t-43 20q-1 0 -2.5 -0.5t-2.5 -1.5q-19 -4 -40 27q-17 27 -5 33l41 13q4 101 19 236q-12 -3 -26 8.5
t-18.5 25t0.5 20.5q10 9 54 23q15 109 38 202zM286 861q8 14 32 3t31 -26q-16 -45 -46.5 -69t-67.5 -24q-34 0 -61 19.5t-35 49.5q-6 23 5.5 37t32.5 9q3 -24 14.5 -42.5t31.5 -18.5q22 0 36 15t27 47z" />
    <glyph glyph-name="ebreve" unicode="&#x115;" horiz-adv-x="264" 
d="M0 117q0 84 24 182.5t64.5 170t82.5 71.5q33 0 57.5 -29.5t24.5 -92.5q0 -104 -29 -174t-85 -70q-19 0 -33.5 10.5t-19.5 20.5l-5 11q-18 -53 -18 -134q0 -82 69 -82q53 0 96 67.5t43 123.5q0 11 14 11q12 0 20.5 -13.5t8.5 -34.5q0 -47 -17 -99t-56.5 -93.5t-91.5 -41.5
q-61 0 -105 53t-44 143zM93 260q5 -25 25 -25q25 0 45 66.5t20 138.5q0 47 -12 47q-7 0 -15 -18q-48 -107 -63 -209zM262 701q8 14 32 3t31 -26q-16 -45 -46.5 -69t-67.5 -24q-34 0 -61 19.5t-35 49.5q-6 23 5.5 37t32.5 9q3 -24 14.5 -42.5t31.5 -18.5q22 0 36 15t27 47z
" />
    <glyph glyph-name="Edotaccent" unicode="&#x116;" horiz-adv-x="366" 
d="M73 555q-12 -3 -26.5 11t-19 29t1.5 20q59 24 110 37q15 41 25 60q48 -7 63 -22q-4 -12 -5 -18q58 13 108 17q62 5 84 -22t22 -33q0 -5 -25 -25.5t-38 -29.5q-15 -9 -31 -6q-6 1 -5 5q1 5 5 14t8 15l3 6q-63 -6 -154 -27q-23 -92 -41 -201q47 8 61 9q62 5 74 -10
q5 -7 13.5 -14.5t13 -12t4.5 -8.5q0 -21 -14 -21q-64 -1 -163 -23q-13 -103 -19 -231q180 51 256 45q10 -1 28 -32q22 -40 0 -40q-87 -2 -288 -51v-29q-5 -14 -26 -8t-43 20q-1 0 -2.5 -0.5t-2.5 -1.5q-19 -4 -40 27q-17 27 -5 33l41 13q4 101 19 236q-12 -3 -26 8.5
t-18.5 25t0.5 20.5q10 9 54 23q15 109 38 202zM212 778q-29 12 -29 39q0 26 21 51.5t62 25.5q15 0 28 -13.5t13 -39.5q0 -29 -14.5 -62t-46.5 -33q-21 0 -29.5 7t-4.5 25z" />
    <glyph glyph-name="edotaccent" unicode="&#x117;" horiz-adv-x="264" 
d="M0 117q0 84 24 182.5t64.5 170t82.5 71.5q33 0 57.5 -29.5t24.5 -92.5q0 -104 -29 -174t-85 -70q-19 0 -33.5 10.5t-19.5 20.5l-5 11q-18 -53 -18 -134q0 -82 69 -82q53 0 96 67.5t43 123.5q0 11 14 11q12 0 20.5 -13.5t8.5 -34.5q0 -47 -17 -99t-56.5 -93.5t-91.5 -41.5
q-61 0 -105 53t-44 143zM93 260q5 -25 25 -25q25 0 45 66.5t20 138.5q0 47 -12 47q-7 0 -15 -18q-48 -107 -63 -209zM168 620q-29 12 -29 39q0 26 21 51.5t62 25.5q15 0 28 -13.5t13 -39.5q0 -29 -14.5 -62t-46.5 -33q-21 0 -29.5 7t-4.5 25z" />
    <glyph glyph-name="Eogonek" unicode="&#x118;" horiz-adv-x="366" 
d="M225 -17q0 20 8 38q-19 -4 -56.5 -13t-52.5 -12v-29q-5 -14 -26 -8t-43 20q-1 0 -2.5 -0.5t-2.5 -1.5q-19 -4 -40 27q-17 27 -5 33l41 13q4 101 19 236q-12 -3 -26 8.5t-18.5 25t0.5 20.5q10 9 54 23q15 109 38 202l-40 -10q-12 -3 -26.5 11t-19 29t1.5 20q59 24 110 37
q15 41 25 60q48 -7 63 -22q-4 -12 -5 -18q58 13 108 17q62 5 84 -22t22 -33q0 -5 -25 -25.5t-38 -29.5q-15 -9 -31 -6q-6 1 -5 5q1 5 5 14t8 15l3 6q-63 -6 -154 -27q-23 -92 -41 -201q47 8 61 9q62 5 74 -10q5 -7 13.5 -14.5t13 -12t4.5 -8.5q0 -21 -14 -21
q-64 -1 -163 -23q-13 -103 -19 -231q180 51 256 45q10 -1 28 -32q22 -40 0 -40q-36 -2 -53 -4q-77 -34 -77 -83q0 -13 11.5 -20.5t29.5 -7.5q45 0 89 46q18 -4 31.5 -21t13.5 -32q0 -17 -30.5 -35t-82.5 -18q-55 0 -87 30.5t-32 80.5z" />
    <glyph glyph-name="eogonek" unicode="&#x119;" horiz-adv-x="264" 
d="M67 -113q0 30 16 52q-38 23 -60.5 68.5t-22.5 109.5q0 84 24 182.5t64.5 170t82.5 71.5q33 0 57.5 -29.5t24.5 -92.5q0 -104 -29 -174t-85 -70q-19 0 -33.5 10.5t-19.5 20.5l-5 11q-18 -53 -18 -134q0 -82 69 -82q53 0 96 67.5t43 123.5q0 11 14 11q12 0 20.5 -13.5
t8.5 -34.5q0 -46 -16.5 -96.5t-54.5 -92t-88 -44.5q-31 -24 -31 -58q0 -13 11.5 -20.5t29.5 -7.5q45 0 89 46q18 -4 31.5 -21t13.5 -32q0 -17 -30.5 -35t-82.5 -18q-55 0 -87 30.5t-32 80.5zM93 260q5 -25 25 -25q25 0 45 66.5t20 138.5q0 47 -12 47q-7 0 -15 -18
q-48 -107 -63 -209z" />
    <glyph glyph-name="Ecaron" unicode="&#x11a;" horiz-adv-x="366" 
d="M73 555q-12 -3 -26.5 11t-19 29t1.5 20q59 24 110 37q15 41 25 60q48 -7 63 -22q-4 -12 -5 -18q58 13 108 17q62 5 84 -22t22 -33q0 -5 -25 -25.5t-38 -29.5q-15 -9 -31 -6q-6 1 -5 5q1 5 5 14t8 15l3 6q-63 -6 -154 -27q-23 -92 -41 -201q47 8 61 9q62 5 74 -10
q5 -7 13.5 -14.5t13 -12t4.5 -8.5q0 -21 -14 -21q-64 -1 -163 -23q-13 -103 -19 -231q180 51 256 45q10 -1 28 -32q22 -40 0 -40q-87 -2 -288 -51v-29q-5 -14 -26 -8t-43 20q-1 0 -2.5 -0.5t-2.5 -1.5q-19 -4 -40 27q-17 27 -5 33l41 13q4 101 19 236q-12 -3 -26 8.5
t-18.5 25t0.5 20.5q10 9 54 23q15 109 38 202zM334 882l27 -17q22 -14 -9 -36q-87 -69 -111 -84l-33 5q-15 20 -51.5 73t-40.5 59q-3 6 1 12.5t11 9.5q25 11 38 -2q6 -6 33 -40.5t33 -40.5q51 43 65 55q20 17 37 6z" />
    <glyph glyph-name="ecaron" unicode="&#x11b;" horiz-adv-x="264" 
d="M0 117q0 84 24 182.5t64.5 170t82.5 71.5q33 0 57.5 -29.5t24.5 -92.5q0 -104 -29 -174t-85 -70q-19 0 -33.5 10.5t-19.5 20.5l-5 11q-18 -53 -18 -134q0 -82 69 -82q53 0 96 67.5t43 123.5q0 11 14 11q12 0 20.5 -13.5t8.5 -34.5q0 -47 -17 -99t-56.5 -93.5t-91.5 -41.5
q-61 0 -105 53t-44 143zM93 260q5 -25 25 -25q25 0 45 66.5t20 138.5q0 47 -12 47q-7 0 -15 -18q-48 -107 -63 -209zM297 717l27 -17q22 -14 -9 -36q-87 -69 -111 -84l-33 5q-15 20 -51.5 73t-40.5 59q-3 6 1 12.5t11 9.5q25 11 38 -2q6 -6 33 -40.5t33 -40.5q51 42 65 55
q20 17 37 6z" />
    <glyph glyph-name="Gcircumflex" unicode="&#x11c;" horiz-adv-x="404" 
d="M177 297q0 23 32 31t59 -2q57 23 114 23q26 0 36 -11q4 -4 13.5 -15t13.5 -16.5t4 -9.5q0 -21 -14 -21q-42 -1 -89 -8q38 -40 38 -105q0 -30 -12 -66t-34 -70t-59 -57t-82 -23q-91 0 -144 77.5t-53 206.5q0 91 31.5 202t92.5 197.5t131 86.5q45 0 82.5 -43t37.5 -98
q0 -41 -13 -79t-28.5 -58.5t-25.5 -20.5q-14 0 -37 18t-23 28q0 2 13 21.5t26 53.5t13 71q0 21 -12 32t-25 11q-22 0 -55 -43.5t-62.5 -109t-51 -151.5t-21.5 -161t24 -117t65 -42q67 0 108.5 48t41.5 119q0 38 -18 64q-70 -15 -73 -15q-15 -3 -29.5 17t-14.5 35zM187 768
l-29 18q-22 14 9 36q87 69 111 84l33 -5q45 -60 82 -124q3 -6 -1 -12.5t-11 -9.5q-25 -11 -38 2q-6 6 -29.5 36t-29.5 37q-4 -4 -63 -56q-18 -16 -34 -6z" />
    <glyph glyph-name="gcircumflex" unicode="&#x11d;" horiz-adv-x="347" 
d="M44 -96q8 -19 32.5 -41.5t40.5 -32.5q34 15 68 85t49 155q-1 -1 -8 -11.5t-10.5 -14.5t-11 -14t-13.5 -15t-14 -11.5t-16 -9t-16 -2.5q-60 0 -96 53.5t-36 144.5q0 140 58.5 238t150.5 98q86 0 86 -77l-1 -14q6 0 15 -1.5t18.5 -8.5t8.5 -17q-3 -23 -11.5 -94.5
t-19.5 -147t-26 -143.5q-27 -123 -68.5 -187.5t-84.5 -64.5q-53 0 -98 23t-55 47q-10 26 7 47.5t51 15.5zM91 146q0 -44 14 -67.5t35 -23.5q38 0 74 85.5t42 166.5q-13 -1 -27 15q16 36 16 102q0 17 -8 29t-22 12q-34 0 -64 -59t-45 -131.5t-15 -128.5zM156 598l-29 18
q-22 14 9 36q87 69 111 84l33 -5q45 -60 82 -124q3 -6 -1 -12.5t-11 -9.5q-25 -11 -38 2q-6 6 -29.5 36t-29.5 37q-4 -4 -63 -56q-18 -16 -34 -6z" />
    <glyph glyph-name="Gbreve" unicode="&#x11e;" horiz-adv-x="404" 
d="M177 297q0 23 32 31t59 -2q57 23 114 23q26 0 36 -11q4 -4 13.5 -15t13.5 -16.5t4 -9.5q0 -21 -14 -21q-42 -1 -89 -8q38 -40 38 -105q0 -30 -12 -66t-34 -70t-59 -57t-82 -23q-91 0 -144 77.5t-53 206.5q0 91 31.5 202t92.5 197.5t131 86.5q45 0 82.5 -43t37.5 -98
q0 -41 -13 -79t-28.5 -58.5t-25.5 -20.5q-14 0 -37 18t-23 28q0 2 13 21.5t26 53.5t13 71q0 21 -12 32t-25 11q-22 0 -55 -43.5t-62.5 -109t-51 -151.5t-21.5 -161t24 -117t65 -42q67 0 108.5 48t41.5 119q0 38 -18 64q-70 -15 -73 -15q-15 -3 -29.5 17t-14.5 35zM327 865
q8 14 32 3t31 -26q-16 -45 -46.5 -69t-67.5 -24q-34 0 -61 19.5t-35 49.5q-6 23 5.5 37t32.5 9q3 -24 14.5 -42.5t31.5 -18.5q22 0 36 15t27 47z" />
    <glyph glyph-name="gbreve" unicode="&#x11f;" horiz-adv-x="347" 
d="M44 -96q8 -19 32.5 -41.5t40.5 -32.5q34 15 68 85t49 155q-1 -1 -8 -11.5t-10.5 -14.5t-11 -14t-13.5 -15t-14 -11.5t-16 -9t-16 -2.5q-60 0 -96 53.5t-36 144.5q0 140 58.5 238t150.5 98q86 0 86 -77l-1 -14q6 0 15 -1.5t18.5 -8.5t8.5 -17q-3 -23 -11.5 -94.5
t-19.5 -147t-26 -143.5q-27 -123 -68.5 -187.5t-84.5 -64.5q-53 0 -98 23t-55 47q-10 26 7 47.5t51 15.5zM91 146q0 -44 14 -67.5t35 -23.5q38 0 74 85.5t42 166.5q-13 -1 -27 15q16 36 16 102q0 17 -8 29t-22 12q-34 0 -64 -59t-45 -131.5t-15 -128.5zM305 698q8 14 32 3
t31 -26q-16 -45 -46.5 -69t-67.5 -24q-34 0 -61 19.5t-35 49.5q-6 23 5.5 37t32.5 9q3 -24 14.5 -42.5t31.5 -18.5q22 0 36 15t27 47z" />
    <glyph glyph-name="Gdotaccent" unicode="&#x120;" horiz-adv-x="404" 
d="M177 297q0 23 32 31t59 -2q57 23 114 23q26 0 36 -11q4 -4 13.5 -15t13.5 -16.5t4 -9.5q0 -21 -14 -21q-42 -1 -89 -8q38 -40 38 -105q0 -30 -12 -66t-34 -70t-59 -57t-82 -23q-91 0 -144 77.5t-53 206.5q0 91 31.5 202t92.5 197.5t131 86.5q45 0 82.5 -43t37.5 -98
q0 -41 -13 -79t-28.5 -58.5t-25.5 -20.5q-14 0 -37 18t-23 28q0 2 13 21.5t26 53.5t13 71q0 21 -12 32t-25 11q-22 0 -55 -43.5t-62.5 -109t-51 -151.5t-21.5 -161t24 -117t65 -42q67 0 108.5 48t41.5 119q0 38 -18 64q-70 -15 -73 -15q-15 -3 -29.5 17t-14.5 35zM254 776
q-29 12 -29 39q0 26 21 51.5t62 25.5q15 0 28 -13.5t13 -39.5q0 -29 -14.5 -62t-46.5 -33q-21 0 -29.5 7t-4.5 25z" />
    <glyph glyph-name="gdotaccent" unicode="&#x121;" horiz-adv-x="347" 
d="M44 -96q8 -19 32.5 -41.5t40.5 -32.5q34 15 68 85t49 155q-1 -1 -8 -11.5t-10.5 -14.5t-11 -14t-13.5 -15t-14 -11.5t-16 -9t-16 -2.5q-60 0 -96 53.5t-36 144.5q0 140 58.5 238t150.5 98q86 0 86 -77l-1 -14q6 0 15 -1.5t18.5 -8.5t8.5 -17q-3 -23 -11.5 -94.5
t-19.5 -147t-26 -143.5q-27 -123 -68.5 -187.5t-84.5 -64.5q-53 0 -98 23t-55 47q-10 26 7 47.5t51 15.5zM91 146q0 -44 14 -67.5t35 -23.5q38 0 74 85.5t42 166.5q-13 -1 -27 15q16 36 16 102q0 17 -8 29t-22 12q-34 0 -64 -59t-45 -131.5t-15 -128.5zM223 616
q-29 12 -29 39q0 26 21 51.5t62 25.5q15 0 28 -13.5t13 -39.5q0 -29 -14.5 -62t-46.5 -33q-21 0 -29.5 7t-4.5 25z" />
    <glyph glyph-name="Gcommaaccent" unicode="&#x122;" horiz-adv-x="404" 
d="M177 297q0 23 32 31t59 -2q57 23 114 23q26 0 36 -11q4 -4 13.5 -15t13.5 -16.5t4 -9.5q0 -21 -14 -21q-42 -1 -89 -8q38 -40 38 -105q0 -30 -12 -66t-34 -70t-59 -57t-82 -23q-91 0 -144 77.5t-53 206.5q0 91 31.5 202t92.5 197.5t131 86.5q45 0 82.5 -43t37.5 -98
q0 -41 -13 -79t-28.5 -58.5t-25.5 -20.5q-14 0 -37 18t-23 28q0 2 13 21.5t26 53.5t13 71q0 21 -12 32t-25 11q-22 0 -55 -43.5t-62.5 -109t-51 -151.5t-21.5 -161t24 -117t65 -42q67 0 108.5 48t41.5 119q0 38 -18 64q-70 -15 -73 -15q-15 -3 -29.5 17t-14.5 35zM86 -145
q0 26 17 41t47 15q42 0 67 -21.5t25 -60.5q0 -36 -32 -70t-71 -43q-30 -7 -53.5 -1t-30.5 20.5t3 32.5q96 -5 108 37q-23 -7 -51.5 4t-28.5 46z" />
    <glyph glyph-name="gcommaaccent" unicode="&#x123;" horiz-adv-x="347" 
d="M44 -96q8 -19 32.5 -41.5t40.5 -32.5q34 15 68 85t49 155q-1 -1 -8 -11.5t-10.5 -14.5t-11 -14t-13.5 -15t-14 -11.5t-16 -9t-16 -2.5q-60 0 -96 53.5t-36 144.5q0 140 58.5 238t150.5 98q86 0 86 -77l-1 -14q6 0 15 -1.5t18.5 -8.5t8.5 -17q-3 -23 -11.5 -94.5
t-19.5 -147t-26 -143.5q-27 -123 -68.5 -187.5t-84.5 -64.5q-53 0 -98 23t-55 47q-10 26 7 47.5t51 15.5zM91 146q0 -44 14 -67.5t35 -23.5q38 0 74 85.5t42 166.5q-13 -1 -27 15q16 36 16 102q0 17 -8 29t-22 12q-34 0 -64 -59t-45 -131.5t-15 -128.5zM331 633
q0 -26 -17 -41t-47 -15q-42 0 -67 21.5t-25 60.5q0 36 32 70t71 43q30 7 53.5 1t30.5 -20.5t-3 -32.5q-96 5 -108 -37q23 7 51.5 -4t28.5 -46z" />
    <glyph glyph-name="Hcircumflex" unicode="&#x124;" horiz-adv-x="446" 
d="M207 624l-13 -5q-25 -113 -47 -245q162 29 173 19l18 -19q33 226 62 337q7 26 28 28q34 3 58 -21q-37 -188 -68.5 -415.5t-31.5 -327.5q0 -23 -51 -1q-25 10 -30 17q-32 55 -18 83q2 4 9 0t7 2q10 106 28 245q-73 -4 -196 -26q-34 -220 -34 -368q0 -24 -54 2
q-24 11 -29 18q3 124 32 332l-43 -9q-19 -4 -36 23t-7 37q11 7 97 27q37 231 74 355q63 -9 75 -22q2 -51 -3 -66zM229 788l-29 18q-22 14 9 36q87 69 111 84l33 -5q45 -60 82 -124q3 -6 -1 -12.5t-11 -9.5q-25 -11 -38 2q-6 6 -29.5 36t-29.5 37q-4 -4 -63 -56
q-18 -16 -34 -6z" />
    <glyph glyph-name="hcircumflex" unicode="&#x125;" horiz-adv-x="388" 
d="M236 343l-12 2q-20 -27 -62 -154t-48 -213q-4 -9 -25 -9q-25 0 -48.5 22.5t-23.5 39.5q0 111 29 401.5t54 319.5q11 13 45 0.5t34 -32.5q0 -26 -4 -50t-12.5 -55t-11.5 -47q-10 -49 -28 -191.5t-18 -174.5l9 -2q0 1 9.5 27t14 39t15.5 43t18.5 48t19 45t21 43.5t20 33
t19.5 24.5t17 8q22 0 50 -14t28 -29q0 -16 -25 -150.5t-25 -208.5q0 -72 44 -72q21 0 41 32.5t33 76.5q3 0 8 -0.5t13 -8t8 -23.5q0 -51 -41 -93t-91 -42q-36 0 -61 28.5t-34 64t-9 73.5q0 43 10.5 107t18.5 91zM47 759l-29 18q-22 14 9 36q87 69 111 84l33 -5
q45 -60 82 -124q3 -6 -1 -12.5t-11 -9.5q-25 -11 -38 2q-6 6 -29.5 36t-29.5 37q-4 -3 -63 -56q-18 -16 -34 -6z" />
    <glyph glyph-name="Hbar" unicode="&#x126;" horiz-adv-x="446" 
d="M207 624l-13 -5l-9 -42q123 17 190 23q9 51 25 111q7 26 28 28q34 3 58 -21l-21 -112h8q18 -1 47 -29q32 -32 7 -36q-3 -1 -8 -1q-20 0 -66 -2q-67 -408 -67 -563q0 -23 -51 -1q-25 10 -30 17q-32 55 -18 83q2 4 9 0t7 2q10 106 28 245q-73 -4 -196 -26
q-34 -220 -34 -368q0 -24 -54 2q-24 11 -29 18q3 124 32 332l-43 -9q-19 -4 -36 23t-7 37q11 7 97 27l24 140q-34 -3 -65 27q-23 21 -7 26q1 1 3 1q1 0 83 13q16 79 36 148q63 -9 75 -22q2 -51 -3 -66zM363 532q-96 -7 -192 -21q-22 -123 -24 -137q162 29 173 19l18 -19
q14 100 25 158z" />
    <glyph glyph-name="hbar" unicode="&#x127;" horiz-adv-x="388" 
d="M236 343l-12 2q-20 -27 -62 -154t-48 -213q-4 -9 -25 -9q-25 0 -48.5 22.5t-23.5 39.5q0 64 15 249.5t33 317.5q-3 0 -8 -0.5t-7 -0.5q-20 -2 -39 24q-16 21 -3 25q20 5 66 11q15 83 26 95q11 13 45 0.5t34 -32.5q0 -23 -6 -59q16 0 38.5 -0.5t27.5 -0.5q10 -1 27 -27
q21 -34 -1 -34q-17 0 -53 0.5t-54 0.5l-7 -32q-10 -49 -28 -191.5t-18 -174.5l9 -2q0 1 9.5 27t14 39t15.5 43t18.5 48t19 45t21 43.5t20 33t19.5 24.5t17 8q22 0 50 -14t28 -29q0 -16 -25 -150.5t-25 -208.5q0 -72 44 -72q21 0 41 32.5t33 76.5q3 0 8 -0.5t13 -8t8 -23.5
q0 -51 -41 -93t-91 -42q-36 0 -61 28.5t-34 64t-9 73.5q0 43 10.5 107t18.5 91z" />
    <glyph glyph-name="Itilde" unicode="&#x128;" horiz-adv-x="357" 
d="M109 99q29 257 90 516q-50 -10 -125 -28q-12 -3 -26.5 12.5t-19 30.5t2.5 21q128 52 291 64q62 5 84 -22q21 -26 21 -33q0 -5 -17.5 -19.5t-27.5 -19.5q-11 -6 -22.5 4t-16.5 10l-68 -8q-52 -249 -87 -528q90 18 156 14q10 -1 27 -34q21 -42 -1 -42q-123 -3 -352 -60
q-12 -3 -26.5 11.5t-19 30t2.5 22.5q8 5 20.5 16t21 15.5t14.5 0.5q3 -2 5.5 -4t4 -3.5l2.5 -2.5t2 -1q56 17 83 23q-15 9 -19 14zM161 755q-10 0 -17 19t-1 29q9 16 28.5 31t39.5 15q29 0 56 -18t38 -18q14 0 30.5 15t22.5 15q9 0 13.5 -18t-1.5 -33q-8 -17 -29 -32
t-47 -15q-21 0 -50.5 16.5t-44.5 16.5q-11 0 -22.5 -11.5t-15.5 -11.5z" />
    <glyph glyph-name="itilde" unicode="&#x129;" horiz-adv-x="198" 
d="M20 79q0 70 24 200.5t43 199.5q4 13 18 13q37 0 61 -14q16 -9 12 -23q-76 -280 -75 -382q0 -26 8.5 -40.5t21.5 -14.5q22 0 38.5 17t25.5 43t13.5 48t5.5 41q2 0 4 0.5t8.5 0t11.5 -2.5t9 -9.5t4 -18.5q0 -37 -12.5 -75t-48 -70.5t-86.5 -32.5q-86 0 -86 120zM69 596
q-10 0 -17 19t-1 29q9 16 28.5 31t39.5 15q29 0 56 -18t38 -18q14 0 30.5 15t22.5 15q9 0 13.5 -18t-1.5 -33q-8 -17 -29 -32t-47 -15q-21 0 -50.5 16.5t-44.5 16.5q-11 0 -22.5 -11.5t-15.5 -11.5z" />
    <glyph glyph-name="imacron" unicode="&#x12b;" horiz-adv-x="198" 
d="M20 79q0 70 24 200.5t43 199.5q4 13 18 13q37 0 61 -14q16 -9 12 -23q-76 -280 -75 -382q0 -26 8.5 -40.5t21.5 -14.5q22 0 38.5 17t25.5 43t13.5 48t5.5 41q2 0 4 0.5t8.5 0t11.5 -2.5t9 -9.5t4 -18.5q0 -37 -12.5 -75t-48 -70.5t-86.5 -32.5q-86 0 -86 120zM29 649
q42 13 124 16t108 -1q10 -1 27 -30q21 -38 -1 -38q-192 0 -215 -3q-21 -2 -40 28q-16 24 -3 28z" />
    <glyph glyph-name="Ibreve" unicode="&#x12c;" horiz-adv-x="357" 
d="M109 99q29 257 90 516q-50 -10 -125 -28q-12 -3 -26.5 12.5t-19 30.5t2.5 21q128 52 291 64q62 5 84 -22q21 -26 21 -33q0 -5 -17.5 -19.5t-27.5 -19.5q-11 -6 -22.5 4t-16.5 10l-68 -8q-52 -249 -87 -528q90 18 156 14q10 -1 27 -34q21 -42 -1 -42q-123 -3 -352 -60
q-12 -3 -26.5 11.5t-19 30t2.5 22.5q8 5 20.5 16t21 15.5t14.5 0.5q3 -2 5.5 -4t4 -3.5l2.5 -2.5t2 -1q56 17 83 23q-15 9 -19 14zM308 864q8 14 32 3t31 -26q-16 -45 -46.5 -69t-67.5 -24q-34 0 -61 19.5t-35 49.5q-6 23 5.5 37t32.5 9q3 -24 14.5 -42.5t31.5 -18.5
q22 0 36 15t27 47z" />
    <glyph glyph-name="Iogonek" unicode="&#x12e;" horiz-adv-x="357" 
d="M104 -35q0 20 6 35l-92 -23q-12 -3 -26.5 11.5t-19 30t2.5 22.5q8 5 20.5 16t21 15.5t14.5 0.5q3 -2 5.5 -4t4 -3.5l2.5 -2.5t2 -1q56 17 83 23q-15 9 -19 14q29 257 90 516q-50 -10 -125 -28q-12 -3 -26.5 12.5t-19 30.5t2.5 21q128 52 291 64q62 5 84 -22
q21 -26 21 -33q0 -5 -17.5 -19.5t-27.5 -19.5q-11 -6 -22.5 4t-16.5 10l-68 -8q-52 -249 -87 -528q90 18 156 14q10 -1 27 -34q21 -42 -1 -42q-63 -2 -136 -13q-73 -35 -73 -82q0 -13 11.5 -20.5t29.5 -7.5q45 0 89 46q18 -4 31.5 -21t13.5 -32q0 -17 -30.5 -35t-82.5 -18
q-55 0 -87 30.5t-32 80.5z" />
    <glyph glyph-name="iogonek" unicode="&#x12f;" horiz-adv-x="198" 
d="M-32 -94q0 58 67 93q-15 28 -15 80q0 70 24 200.5t43 199.5q4 13 18 13q37 0 61 -14q16 -9 12 -23q-76 -280 -75 -382q0 -26 8.5 -40.5t21.5 -14.5q22 0 38.5 17t25.5 43t13.5 48t5.5 41q2 0 4 0.5t8.5 0t11.5 -2.5t9 -9.5t4 -18.5q0 -37 -12.5 -75t-48 -70.5
t-86.5 -32.5q-12 0 -17 1q-64 -30 -64 -77q0 -13 11.5 -20.5t29.5 -7.5q45 0 89 46q18 -4 31.5 -21t13.5 -32q0 -17 -30.5 -35t-82.5 -18q-55 0 -87 30.5t-32 80.5zM146 568q-15 0 -28.5 16t-13.5 47q0 13 3 30t9.5 36.5t20 32.5t30.5 13q21 0 29.5 -8t3.5 -30
q30 -16 30 -46q0 -31 -21 -61t-63 -30z" />
    <glyph glyph-name="Idotaccent" unicode="&#x130;" horiz-adv-x="357" 
d="M109 99q29 257 90 516q-50 -10 -125 -28q-12 -3 -26.5 12.5t-19 30.5t2.5 21q128 52 291 64q62 5 84 -22q21 -26 21 -33q0 -5 -17.5 -19.5t-27.5 -19.5q-11 -6 -22.5 4t-16.5 10l-68 -8q-52 -249 -87 -528q90 18 156 14q10 -1 27 -34q21 -42 -1 -42q-123 -3 -352 -60
q-12 -3 -26.5 11.5t-19 30t2.5 22.5q8 5 20.5 16t21 15.5t14.5 0.5q3 -2 5.5 -4t4 -3.5l2.5 -2.5t2 -1q56 17 83 23q-15 9 -19 14zM227 775q-29 12 -29 39q0 26 21 51.5t62 25.5q15 0 28 -13.5t13 -39.5q0 -29 -14.5 -62t-46.5 -33q-21 0 -29.5 7t-4.5 25z" />
    <glyph glyph-name="dotlessi" unicode="&#x131;" horiz-adv-x="198" 
d="M20 79q0 70 24 200.5t43 199.5q4 13 18 13q37 0 61 -14q16 -9 12 -23q-76 -280 -75 -382q0 -26 8.5 -40.5t21.5 -14.5q22 0 38.5 17t25.5 43t13.5 48t5.5 41q2 0 4 0.5t8.5 0t11.5 -2.5t9 -9.5t4 -18.5q0 -37 -12.5 -75t-48 -70.5t-86.5 -32.5q-86 0 -86 120z" />
    <glyph glyph-name="IJ" unicode="&#x132;" horiz-adv-x="760" 
d="M347 119q0 59 20 129q5 5 18.5 7t35 -10.5t35.5 -35.5q19 -33 14 -44q-2 -5 -13.5 1.5t-14.5 0.5q-11 -22 -11 -82q0 -42 17.5 -70t47.5 -28q84 0 123 149.5t31 479.5v5q-114 -21 -160 -35q-16 -5 -32.5 17t-16.5 43q0 6 5 8q80 28 226.5 49t159.5 7l15 -16
q15 -15 20 -22l-10 -16q-8 -2 -38 -5.5t-45 -6.5q-18 -4 -62 -12q9 -5 17 -13q5 -252 -15 -406.5t-64.5 -223t-116.5 -68.5q-54 0 -99.5 32.5t-68.5 83.5q-123 -4 -347 -60q-12 -3 -26.5 11.5t-19 30t2.5 22.5q8 5 20.5 16t21 15.5t14.5 0.5q3 -2 5.5 -4t4 -3.5l2.5 -2.5
t2 -1q56 17 83 23q-15 9 -19 14q29 257 90 516q-50 -10 -125 -28q-12 -3 -26.5 12.5t-19 30.5t2.5 21q128 52 291 64q62 5 84 -22q21 -26 21 -33q0 -5 -17.5 -19.5t-27.5 -19.5q-11 -6 -22.5 4t-16.5 10l-68 -8q-52 -249 -87 -528q90 18 156 14l1 -1h2v7z" />
    <glyph glyph-name="ij" unicode="&#x133;" horiz-adv-x="332" 
d="M251 436q3 44 12 51q5 4 12 4q44 0 70 -23q-6 -45 -13 -115t-13 -131t-14 -131t-19 -125t-25 -101.5t-35 -72t-47 -25.5q-68 0 -119 19q-27 10 -24 40t31 34q44 -27 97 -39q23 20 47 189q-40 -51 -105 -51q-86 0 -86 120q0 70 24 200.5t43 199.5q4 13 18 13q37 0 61 -14
q16 -9 12 -23q-76 -280 -75 -382q0 -26 8.5 -40.5t21.5 -14.5q22 0 38.5 17t25.5 43t13.5 48t5.5 41q7 1 14 1q12 120 21 268zM146 568q-15 0 -28.5 16t-13.5 47q0 13 3 30t9.5 36.5t20 32.5t30.5 13q21 0 29.5 -8t3.5 -30q30 -16 30 -46q0 -31 -21 -61t-63 -30zM297 583
q-14 0 -27 14.5t-13 41.5q0 30 14.5 65t45.5 35q20 0 33 -11t14 -32q11 -5 12.5 -9t1.5 -23q0 -28 -20 -54.5t-61 -26.5z" />
    <glyph glyph-name="Jcircumflex" unicode="&#x134;" horiz-adv-x="403" 
d="M-10 119q0 59 20 129q5 5 18.5 7t35 -10.5t35.5 -35.5q19 -33 14 -44q-2 -5 -13.5 1.5t-14.5 0.5q-11 -22 -11 -82q0 -42 17.5 -70t47.5 -28q84 0 123 149.5t31 479.5v5q-114 -21 -160 -35q-16 -5 -32.5 17t-16.5 43q0 6 5 8q80 28 226.5 49t159.5 7l15 -16
q15 -15 20 -22l-10 -16q-8 -2 -38 -5.5t-45 -6.5q-18 -4 -62 -12q9 -5 17 -13q5 -252 -15 -406.5t-64.5 -223t-116.5 -68.5q-75 0 -130.5 60.5t-55.5 137.5zM222 754l-29 18q-22 14 9 36q87 69 111 84l33 -5q45 -60 82 -124q3 -6 -1 -12.5t-11 -9.5q-25 -11 -38 2
q-6 6 -29.5 36t-29.5 37q-4 -4 -63 -56q-18 -16 -34 -6z" />
    <glyph glyph-name="jcircumflex" unicode="&#x135;" horiz-adv-x="154" 
d="M73 436q3 44 12 51q5 4 12 4q44 0 70 -23q-6 -45 -13 -115t-13 -131t-14 -131t-19 -125t-25 -101.5t-35 -72t-47 -25.5q-68 0 -119 19q-27 10 -24 40t31 34q44 -27 97 -39q27 23 51 215t36 400zM48 590l-29 18q-22 14 9 36q87 69 111 84l33 -5q45 -60 82 -124
q3 -6 -1 -12.5t-11 -9.5q-25 -11 -38 2q-6 6 -29.5 36t-29.5 37q-4 -4 -63 -56q-18 -16 -34 -6z" />
    <glyph glyph-name="Kcommaaccent" unicode="&#x136;" horiz-adv-x="408" 
d="M4 -4q46 515 105 685l1 5l2.5 5l2.5 5t3.5 5t4.5 3.5t6.5 3.5t7.5 1q31 3 55 -21q-31 -123 -55 -267q65 71 171.5 158t151.5 87q13 0 21.5 -9t4.5 -23q-23 -23 -95.5 -82t-137.5 -116.5t-90 -91.5q28 -37 114.5 -136.5t140.5 -174.5q11 -16 0 -33q-5 -8 -13.5 -13.5
t-17 -9.5t-10.5 -6q-16 -11 -32 10q-48 62 -132 159.5t-99 115.5q-11 -98 -18 -208q1 0 3 0.5t6.5 0.5t6.5 -1.5t4.5 -4.5t-1.5 -9l-23 -59q-10 -16 -45 -3t-43 24zM121 -145q0 26 17 41t47 15q42 0 67 -21.5t25 -60.5q0 -36 -32 -70t-71 -43q-30 -7 -53.5 -1t-30.5 20.5
t3 32.5q96 -5 108 37q-23 -7 -51.5 4t-28.5 46z" />
    <glyph glyph-name="kcommaaccent" unicode="&#x137;" horiz-adv-x="332" 
d="M15 5q-2 58 0 152q2 69 13.5 165t34 244t23.5 157q3 27 18 27q34 0 58 -14q11 -6 12 -14t-2 -19q-12 -65 -35 -209t-25 -155q53 64 120.5 124t114.5 60q13 0 21.5 -9t4.5 -23q-161 -131 -223 -215q21 -29 66.5 -86.5t83 -108.5t75.5 -109q15 -23 0 -33q-8 -6 -45 -17
q-22 -6 -32 10q-109 175 -198 276q-9 -102 -3 -211q1 -34 -14 -32l-24.5 3.5t-20.5 3.5q-14 5 -17.5 10.5t-5.5 22.5zM83 -145q0 26 17 41t47 15q42 0 67 -21.5t25 -60.5q0 -36 -32 -70t-71 -43q-30 -7 -53.5 -1t-30.5 20.5t3 32.5q96 -5 108 37q-23 -7 -51.5 4t-28.5 46z
" />
    <glyph glyph-name="kgreenlandic" unicode="&#x138;" horiz-adv-x="332" 
d="M15 5q-2 58 0 152q1 38 2.5 70t3 53.5t5.5 53t6 46t8 56.5l9 63q3 27 18 27q34 0 58 -14q11 -6 12 -14t-2 -19q-11 -62 -15 -105.5t-8 -64.5q48 58 142.5 136t142.5 78q13 0 21.5 -9t4.5 -23q-5 -4 -43.5 -35t-63 -51.5t-60.5 -51.5t-63 -58t-43 -49q24 -27 103 -124.5
t122 -149.5q18 -22 0 -33q-8 -6 -45 -17q-20 -6 -32 10q-140 179 -198 246q-8 -90 -3 -181q1 -34 -14 -32l-24.5 3.5t-20.5 3.5q-14 5 -17.5 10.5t-5.5 22.5z" />
    <glyph glyph-name="Lacute" unicode="&#x139;" horiz-adv-x="307" 
d="M-15 9q38 12 46 14q19 175 50.5 389.5t55.5 299.5q15 11 40.5 0t40.5 -26q-24 -110 -58 -306t-49 -334q146 37 237 32q10 -1 28 -34q22 -42 0 -42q-120 -3 -272 -39q-1 -10 -1 -28q-6 -14 -26 -8.5t-42 19.5q-4 0 -5 -1q-12 -3 -27 12.5t-20 31t2 20.5zM231 752
q-8 -5 -24.5 -0.5t-31 15t-10.5 15.5q11 14 32 45t36.5 50t27.5 23q36 12 69 -15q23 -18 12 -28q-83 -75 -111 -105z" />
    <glyph glyph-name="lacute" unicode="&#x13a;" horiz-adv-x="155" 
d="M23 0q-4 9 1 90q7 114 35 316t55 333q2 9 15 9q19 0 42.5 -16t21.5 -29q-70 -413 -85 -657q-4 -54 -5 -81q-8 -12 -42 4.5t-38 30.5zM208 774q-8 -5 -24.5 -0.5t-31 15t-10.5 15.5q11 14 32 45t36.5 50t27.5 23q36 12 69 -15q23 -18 12 -28q-83 -75 -111 -105z" />
    <glyph glyph-name="Lcommaaccent" unicode="&#x13b;" horiz-adv-x="307" 
d="M-15 9q38 12 46 14q19 175 50.5 389.5t55.5 299.5q15 11 40.5 0t40.5 -26q-24 -110 -58 -306t-49 -334q146 37 237 32q10 -1 28 -34q22 -42 0 -42q-120 -3 -272 -39q-1 -10 -1 -28q-6 -14 -26 -8.5t-42 19.5q-4 0 -5 -1q-12 -3 -27 12.5t-20 31t2 20.5zM115 -145
q0 26 17 41t47 15q42 0 67 -21.5t25 -60.5q0 -36 -32 -70t-71 -43q-30 -7 -53.5 -1t-30.5 20.5t3 32.5q96 -5 108 37q-23 -7 -51.5 4t-28.5 46z" />
    <glyph glyph-name="lcommaaccent" unicode="&#x13c;" horiz-adv-x="155" 
d="M23 0q-4 9 1 90q7 114 35 316t55 333q2 9 15 9q19 0 42.5 -16t21.5 -29q-70 -413 -85 -657q-4 -54 -5 -81q-8 -12 -42 4.5t-38 30.5zM-22 -145q0 26 17 41t47 15q42 0 67 -21.5t25 -60.5q0 -36 -32 -70t-71 -43q-30 -7 -53.5 -1t-30.5 20.5t3 32.5q96 -5 108 37
q-23 -7 -51.5 4t-28.5 46z" />
    <glyph glyph-name="Lcaron" unicode="&#x13d;" horiz-adv-x="307" 
d="M-15 9q38 12 46 14q19 175 50.5 389.5t55.5 299.5q15 11 40.5 0t40.5 -26q-24 -110 -58 -306t-49 -334q146 37 237 32q10 -1 28 -34q22 -42 0 -42q-120 -3 -272 -39q-1 -10 -1 -28q-6 -14 -26 -8.5t-42 19.5q-4 0 -5 -1q-12 -3 -27 12.5t-20 31t2 20.5zM273 662
q0 26 17 41t47 15q42 0 67 -21.5t25 -60.5q0 -36 -32 -70t-71 -43q-30 -7 -53.5 -1t-30.5 20.5t3 32.5q96 -5 108 37q-23 -7 -51.5 4t-28.5 46z" />
    <glyph glyph-name="lcaron" unicode="&#x13e;" horiz-adv-x="221" 
d="M23 0q-4 9 1 90q7 114 35 316t55 333q2 9 15 9q19 0 42.5 -16t21.5 -29q-70 -413 -85 -657q-4 -54 -5 -81q-8 -12 -42 4.5t-38 30.5zM235 659q0 26 17 41t47 15q42 0 67 -21.5t25 -60.5q0 -36 -32 -70t-71 -43q-30 -7 -53.5 -1t-30.5 20.5t3 32.5q96 -5 108 37
q-23 -7 -51.5 4t-28.5 46z" />
    <glyph glyph-name="Ldot" unicode="&#x13f;" horiz-adv-x="357" 
d="M-15 9q38 12 46 14q19 175 50.5 389.5t55.5 299.5q15 11 40.5 0t40.5 -26q-24 -110 -58 -306t-49 -334q146 37 237 32q10 -1 28 -34q22 -42 0 -42q-120 -3 -272 -39q-1 -10 -1 -28q-6 -14 -26 -8.5t-42 19.5q-4 0 -5 -1q-12 -3 -27 12.5t-20 31t2 20.5zM264 293
q-32 13 -32 44q0 29 22.5 57.5t67.5 28.5q16 0 30 -15t14 -44q0 -12 -3 -28.5t-10 -35t-20.5 -31t-32.5 -12.5q-22 0 -31.5 8t-4.5 28z" />
    <glyph glyph-name="ldot" unicode="&#x140;" horiz-adv-x="328" 
d="M23 0q-4 9 1 90q7 114 35 316t55 333q2 9 15 9q19 0 42.5 -16t21.5 -29q-70 -413 -85 -657q-4 -54 -5 -81q-8 -12 -42 4.5t-38 30.5zM232 307q-32 13 -32 44q0 29 22.5 57.5t67.5 28.5q16 0 30 -15t14 -44q0 -12 -3 -28.5t-10 -35t-20.5 -31t-32.5 -12.5q-22 0 -31.5 8
t-4.5 28z" />
    <glyph glyph-name="Lslash" unicode="&#x141;" horiz-adv-x="307" 
d="M4 153q-14 -13 -33 8.5t-9 33.5q27 30 100 83q44 324 75 434q15 11 40.5 0t40.5 -26q-31 -139 -65 -345q87 58 122 75q6 3 19.5 -10.5t19 -27.5t-5.5 -23q-91 -55 -170 -106q-14 -92 -27 -203q146 37 237 32q10 -1 28 -34q22 -42 0 -42q-120 -3 -272 -39q-1 -10 -1 -28
q-6 -14 -26 -8.5t-42 19.5q-4 0 -5 -1q-12 -3 -27 12.5t-20 31t2 20.5q38 12 46 14l20 166q-39 -29 -47 -36z" />
    <glyph glyph-name="lslash" unicode="&#x142;" horiz-adv-x="155" 
d="M8 219q-14 -13 -33 8.5t-9 33.5q28 31 83 72q28 221 65 406q2 9 15 9q19 0 42.5 -16t21.5 -29q-31 -182 -49 -305q54 34 75 44q6 3 19.5 -10.5t19 -27.5t-5.5 -23q-92 -55 -119 -73q-18 -146 -25 -262q-4 -54 -5 -81q-8 -12 -42 4.5t-38 30.5q-4 9 1 90q3 62 14 153
q-15 -11 -30 -24z" />
    <glyph glyph-name="Nacute" unicode="&#x143;" horiz-adv-x="446" 
d="M304 149h8q12 142 65 376.5t84 234.5q15 0 37.5 -6.5t32.5 -16.5q-46 -124 -76.5 -234t-46 -214.5t-21 -157.5t-13.5 -155q-2 -9 -24 -9t-43.5 11t-29.5 31q-34 136 -64.5 306.5t-36.5 240.5l-6 5q-27 -58 -49 -218.5t-20 -336.5q1 -7 7 -5.5t13 -2.5q6 -5 -1 -18.5
t-17 -29t-10 -22.5q0 -24 -54 2q-23 11 -28 18q-6 189 36.5 448t109.5 328q39 -6 63 -36q10 -114 37.5 -297.5t46.5 -241.5zM337 755q-8 -5 -24.5 -0.5t-31 15t-10.5 15.5q11 14 32 45t36.5 50t27.5 23q36 12 69 -15q23 -18 12 -28q-83 -75 -111 -105z" />
    <glyph glyph-name="nacute" unicode="&#x144;" horiz-adv-x="330" 
d="M206 324h-12q-34 -74 -64 -180.5t-29 -172.5q-13 -15 -34 -15q-57 0 -57 130q0 175 22 294.5t65 119.5q8 0 14.5 -1.5t12.5 -8t5 -17.5q-2 -19 -21 -124.5t-19 -163.5h4q84 246 132 338q4 9 22 9q24 0 48 -14t22 -36q-3 -39 -32 -164.5t-29 -200.5q0 -76 41 -76
q37 0 61 79q2 0 6 -1t10 -8t6 -18q0 -38 -32.5 -79t-80.5 -41q-87 0 -87 153q0 65 26 198zM215 586q-8 -5 -24.5 -0.5t-31 15t-10.5 15.5q11 14 32 45t36.5 50t27.5 23q36 12 69 -15q23 -18 12 -28q-83 -75 -111 -105z" />
    <glyph glyph-name="Ncommaaccent" unicode="&#x145;" horiz-adv-x="446" 
d="M304 149h8q12 142 65 376.5t84 234.5q15 0 37.5 -6.5t32.5 -16.5q-46 -124 -76.5 -234t-46 -214.5t-21 -157.5t-13.5 -155q-2 -9 -24 -9t-43.5 11t-29.5 31q-34 136 -64.5 306.5t-36.5 240.5l-6 5q-27 -58 -49 -218.5t-20 -336.5q1 -7 7 -5.5t13 -2.5q6 -5 -1 -18.5
t-17 -29t-10 -22.5q0 -24 -54 2q-23 11 -28 18q-6 189 36.5 448t109.5 328q39 -6 63 -36q10 -114 37.5 -297.5t46.5 -241.5zM122 -145q0 26 17 41t47 15q42 0 67 -21.5t25 -60.5q0 -36 -32 -70t-71 -43q-30 -7 -53.5 -1t-30.5 20.5t3 32.5q96 -5 108 37q-23 -7 -51.5 4
t-28.5 46z" />
    <glyph glyph-name="ncommaaccent" unicode="&#x146;" horiz-adv-x="330" 
d="M206 324h-12q-34 -74 -64 -180.5t-29 -172.5q-13 -15 -34 -15q-57 0 -57 130q0 175 22 294.5t65 119.5q8 0 14.5 -1.5t12.5 -8t5 -17.5q-2 -19 -21 -124.5t-19 -163.5h4q84 246 132 338q4 9 22 9q24 0 48 -14t22 -36q-3 -39 -32 -164.5t-29 -200.5q0 -76 41 -76
q37 0 61 79q2 0 6 -1t10 -8t6 -18q0 -38 -32.5 -79t-80.5 -41q-87 0 -87 153q0 65 26 198zM68 -145q0 26 17 41t47 15q42 0 67 -21.5t25 -60.5q0 -36 -32 -70t-71 -43q-30 -7 -53.5 -1t-30.5 20.5t3 32.5q96 -5 108 37q-23 -7 -51.5 4t-28.5 46z" />
    <glyph glyph-name="Ncaron" unicode="&#x147;" horiz-adv-x="446" 
d="M304 149h8q12 142 65 376.5t84 234.5q15 0 37.5 -6.5t32.5 -16.5q-46 -124 -76.5 -234t-46 -214.5t-21 -157.5t-13.5 -155q-2 -9 -24 -9t-43.5 11t-29.5 31q-34 136 -64.5 306.5t-36.5 240.5l-6 5q-27 -58 -49 -218.5t-20 -336.5q1 -7 7 -5.5t13 -2.5q6 -5 -1 -18.5
t-17 -29t-10 -22.5q0 -24 -54 2q-23 11 -28 18q-6 189 36.5 448t109.5 328q39 -6 63 -36q10 -114 37.5 -297.5t46.5 -241.5zM426 882l27 -17q22 -14 -9 -36q-87 -69 -111 -84l-33 5q-15 20 -51.5 73t-40.5 59q-3 6 1 12.5t11 9.5q25 11 38 -2q6 -6 33 -40.5t33 -40.5
q51 43 65 55q20 17 37 6z" />
    <glyph glyph-name="ncaron" unicode="&#x148;" horiz-adv-x="330" 
d="M206 324h-12q-34 -74 -64 -180.5t-29 -172.5q-13 -15 -34 -15q-57 0 -57 130q0 175 22 294.5t65 119.5q8 0 14.5 -1.5t12.5 -8t5 -17.5q-2 -19 -21 -124.5t-19 -163.5h4q84 246 132 338q4 9 22 9q24 0 48 -14t22 -36q-3 -39 -32 -164.5t-29 -200.5q0 -76 41 -76
q37 0 61 79q2 0 6 -1t10 -8t6 -18q0 -38 -32.5 -79t-80.5 -41q-87 0 -87 153q0 65 26 198zM306 716l27 -17q22 -14 -9 -36q-87 -69 -111 -84l-33 5q-15 20 -51.5 73t-40.5 59q-3 6 1 12.5t11 9.5q25 11 38 -2q6 -6 33 -40.5t33 -40.5q51 43 65 55q20 17 37 6z" />
    <glyph glyph-name="napostrophe" unicode="&#x149;" horiz-adv-x="423" 
d="M299 324h-12q-34 -74 -64 -180.5t-29 -172.5q-13 -15 -34 -15q-57 0 -57 130q0 175 22 294.5t65 119.5q8 0 14.5 -1.5t12.5 -8t5 -17.5q-2 -19 -21 -124.5t-19 -163.5h4q84 246 132 338q4 9 22 9q24 0 48 -14t22 -36q-3 -39 -32 -164.5t-29 -200.5q0 -76 41 -76
q37 0 61 79q2 0 6 -1t10 -8t6 -18q0 -38 -32.5 -79t-80.5 -41q-87 0 -87 153q0 65 26 198zM81 664q0 26 17 41t47 15q42 0 67 -21.5t25 -60.5q0 -36 -32 -70t-71 -43q-30 -7 -53.5 -1t-30.5 20.5t3 32.5q96 -5 108 37q-23 -7 -51.5 4t-28.5 46z" />
    <glyph glyph-name="Eng" unicode="&#x14a;" horiz-adv-x="446" 
d="M304 149h8q12 142 65 376.5t84 234.5q15 0 37.5 -6.5t32.5 -16.5q-46 -124 -77 -247.5t-42.5 -195.5t-24.5 -178q-9 -76 -17.5 -125t-24.5 -99t-37 -76t-54 -38.5t-78 -4.5q-31 4 -53 13q-27 10 -24 40t31 34q44 -27 97 -39q51 44 60 172q-39 120 -69 288t-42 275l-6 5
q-28 -60 -49.5 -197.5t-19.5 -310.5q1 -8 7 -6.5t13 -1.5q6 -5 -1 -18.5t-17 -29t-10 -22.5q0 -24 -54 2q-23 11 -28 18q-6 185 36 422t110 307q39 -6 63 -36q10 -114 37.5 -297.5t46.5 -241.5z" />
    <glyph glyph-name="eng" unicode="&#x14b;" horiz-adv-x="308" 
d="M317 482q-2 -23 -12 -72.5t-13 -67.5q-7 -45 -15 -108.5t-13.5 -113.5t-13.5 -106.5t-17.5 -98t-22 -76.5t-30 -53.5t-39.5 -18.5q-68 0 -119 19q-27 10 -24 40t31 34q44 -27 97 -39q43 38 79 493h-13q-100 -218 -99 -332q-13 -15 -34 -15q-31 0 -40 27t-9 92
q0 175 22 294.5t65 119.5q8 0 14.5 -1.5t12.5 -8t5 -17.5q-2 -19 -21 -124.5t-19 -163.5h4q84 246 132 338q4 9 22 9q24 0 48 -14t22 -36z" />
    <glyph glyph-name="Omacron" unicode="&#x14c;" horiz-adv-x="428" 
d="M10 271q0 134 58 275.5t123 160.5q5 -1 8.5 -3t6.5 -5t4.5 -4t4.5 -6t4 -6q26 17 55 17q164 0 164 -247q0 -46 -6 -104t-22.5 -131t-41 -131.5t-68 -98.5t-97.5 -40q-50 0 -88.5 29t-60.5 77.5t-33 103.5t-11 113zM74 224q0 -89 26 -146t74 -57q54 0 94.5 64.5t59.5 156
t27.5 163.5t8.5 116q0 51 -16 87t-49 36q-31 0 -56 -18.5t-41.5 -49.5t-27 -62.5t-17.5 -67.5q0 -1 -3 -1q-6 0 -18.5 5.5t-17.5 10.5l-4 -11q-4 -10 -11 -31t-13.5 -48.5t-11 -66.5t-4.5 -80zM167 802q42 13 124 16t108 -1q10 -1 27 -30q21 -38 -1 -38q-192 0 -215 -3
q-21 -2 -40 28q-16 24 -3 28z" />
    <glyph glyph-name="omacron" unicode="&#x14d;" horiz-adv-x="323" 
d="M16 215q4 100 44.5 200t86.5 114q22 -12 26 -25q14 12 35 12q38 0 63 -16t37 -46t16 -63t3 -76q-2 -48 -11 -102t-27 -112.5t-53 -96t-80 -37.5q-49 0 -83 40t-46.5 94t-10.5 114zM80 175q-2 -59 13 -98.5t45 -39.5q32 0 58 41.5t39.5 100.5t20.5 107t8 77q2 71 -11 89
q-9 11 -22 11q-20 0 -40.5 -27.5t-35.5 -68t-24.5 -75.5t-14.5 -61q-1 -3 -12.5 1t-16.5 8q-6 -28 -7 -65zM94 645q42 13 124 16t108 -1q10 -1 27 -30q21 -38 -1 -38q-192 0 -215 -3q-21 -2 -40 28q-16 24 -3 28z" />
    <glyph glyph-name="Obreve" unicode="&#x14e;" horiz-adv-x="428" 
d="M10 271q0 134 58 275.5t123 160.5q5 -1 8.5 -3t6.5 -5t4.5 -4t4.5 -6t4 -6q26 17 55 17q164 0 164 -247q0 -46 -6 -104t-22.5 -131t-41 -131.5t-68 -98.5t-97.5 -40q-50 0 -88.5 29t-60.5 77.5t-33 103.5t-11 113zM74 224q0 -89 26 -146t74 -57q54 0 94.5 64.5t59.5 156
t27.5 163.5t8.5 116q0 51 -16 87t-49 36q-31 0 -56 -18.5t-41.5 -49.5t-27 -62.5t-17.5 -67.5q0 -1 -3 -1q-6 0 -18.5 5.5t-17.5 10.5l-4 -11q-4 -10 -11 -31t-13.5 -48.5t-11 -66.5t-4.5 -80zM343 864q8 14 32 3t31 -26q-16 -45 -46.5 -69t-67.5 -24q-34 0 -61 19.5
t-35 49.5q-6 23 5.5 37t32.5 9q3 -24 14.5 -42.5t31.5 -18.5q22 0 36 15t27 47z" />
    <glyph glyph-name="obreve" unicode="&#x14f;" horiz-adv-x="323" 
d="M16 215q4 100 44.5 200t86.5 114q22 -12 26 -25q14 12 35 12q38 0 63 -16t37 -46t16 -63t3 -76q-2 -48 -11 -102t-27 -112.5t-53 -96t-80 -37.5q-49 0 -83 40t-46.5 94t-10.5 114zM80 175q-2 -59 13 -98.5t45 -39.5q32 0 58 41.5t39.5 100.5t20.5 107t8 77q2 71 -11 89
q-9 11 -22 11q-20 0 -40.5 -27.5t-35.5 -68t-24.5 -75.5t-14.5 -61q-1 -3 -12.5 1t-16.5 8q-6 -28 -7 -65zM283 701q8 14 32 3t31 -26q-16 -45 -46.5 -69t-67.5 -24q-34 0 -61 19.5t-35 49.5q-6 23 5.5 37t32.5 9q3 -24 14.5 -42.5t31.5 -18.5q22 0 36 15t27 47z" />
    <glyph glyph-name="Ohungarumlaut" unicode="&#x150;" horiz-adv-x="428" 
d="M10 271q0 134 58 275.5t123 160.5q5 -1 8.5 -3t6.5 -5t4.5 -4t4.5 -6t4 -6q26 17 55 17q164 0 164 -247q0 -46 -6 -104t-22.5 -131t-41 -131.5t-68 -98.5t-97.5 -40q-50 0 -88.5 29t-60.5 77.5t-33 103.5t-11 113zM74 224q0 -89 26 -146t74 -57q54 0 94.5 64.5t59.5 156
t27.5 163.5t8.5 116q0 51 -16 87t-49 36q-31 0 -56 -18.5t-41.5 -49.5t-27 -62.5t-17.5 -67.5q0 -1 -3 -1q-6 0 -18.5 5.5t-17.5 10.5l-4 -11q-4 -10 -11 -31t-13.5 -48.5t-11 -66.5t-4.5 -80zM234 753q-9 -9 -26 6t-10 24q11 14 32 45t36.5 50t27.5 23q10 3 25.5 -4.5
t24.5 -19.5t1 -19q-83 -75 -111 -105zM374 753q-7 -5 -15.5 -0.5t-14.5 15t-2 15.5q12 15 31 45t34 49.5t27 23.5q11 4 26.5 -4t24 -20t0.5 -19q-83 -75 -111 -105z" />
    <glyph glyph-name="ohungarumlaut" unicode="&#x151;" horiz-adv-x="323" 
d="M16 215q4 100 44.5 200t86.5 114q22 -12 26 -25q14 12 35 12q38 0 63 -16t37 -46t16 -63t3 -76q-2 -48 -11 -102t-27 -112.5t-53 -96t-80 -37.5q-49 0 -83 40t-46.5 94t-10.5 114zM80 175q-2 -59 13 -98.5t45 -39.5q32 0 58 41.5t39.5 100.5t20.5 107t8 77q2 71 -11 89
q-9 11 -22 11q-20 0 -40.5 -27.5t-35.5 -68t-24.5 -75.5t-14.5 -61q-1 -3 -12.5 1t-16.5 8q-6 -28 -7 -65zM155 588q-9 -9 -26 6t-10 24q11 14 32 45t36.5 50t27.5 23q10 3 25.5 -4.5t24.5 -19.5t1 -19q-83 -75 -111 -105zM295 588q-7 -5 -15.5 -0.5t-14.5 15t-2 15.5
q12 15 31 45t34 49.5t27 23.5q11 4 26.5 -4t24 -20t0.5 -19q-83 -75 -111 -105z" />
    <glyph glyph-name="OE" unicode="&#x152;" horiz-adv-x="654" 
d="M10 271q0 134 58 275.5t123 160.5q5 -1 8.5 -3t6.5 -5t4.5 -4t4.5 -6t4 -6q26 17 55 17q79 0 120 -57q130 39 224 46q62 5 84 -22t22 -33q0 -5 -25 -25.5t-38 -29.5q-15 -9 -31 -6q-6 1 -5 5q1 5 5 14t8 15l3 6q-73 -8 -215 -42q12 -48 12 -118q0 -31 -3 -71q38 8 72 12
q62 5 74 -10q5 -7 13.5 -14.5t13 -12t4.5 -8.5q0 -21 -14 -21q-78 -3 -172 -25q-22 -154 -74 -247q228 69 320 63q10 -1 28 -32q22 -40 0 -40q-92 -2 -362 -70q-13 -3 -32 16q-45 -45 -103 -45q-50 0 -88.5 29t-60.5 77.5t-33 103.5t-11 113zM361 555q-12 -3 -26.5 11
t-19 29t1.5 20q14 6 21 8q-16 21 -39 21q-31 0 -56 -18.5t-41.5 -49.5t-27 -62.5t-17.5 -67.5q0 -1 -3 -1q-6 0 -18.5 5.5t-17.5 10.5l-4 -11q-4 -10 -11 -31t-13.5 -48.5t-11 -66.5t-4.5 -80q0 -89 26 -146t74 -57q111 0 164 266q-17 7 -27.5 26.5t-1.5 26.5q8 7 41 19
q14 101 14 162q0 12 -2 34h-1z" />
    <glyph glyph-name="oe" unicode="&#x153;" horiz-adv-x="508" 
d="M16 215q4 100 44.5 200t86.5 114q22 -12 26 -25q14 12 35 12q82 0 107 -80q49 105 100 105q33 0 57.5 -29.5t24.5 -92.5q0 -104 -29 -174t-85 -70q-19 0 -33.5 10.5t-19.5 20.5l-5 11q-18 -53 -18 -134q0 -82 69 -82q53 0 96 67.5t43 123.5q0 11 14 11q12 0 20.5 -13.5
t8.5 -34.5q0 -47 -17 -99t-56.5 -93.5t-91.5 -41.5q-45 0 -82 29.5t-55 82.5q-42 -66 -100 -66q-49 0 -83 40t-46.5 94t-10.5 114zM80 175q-2 -59 13 -98.5t45 -39.5q32 0 58 41.5t39.5 100.5t20.5 107t8 77q2 71 -11 89q-9 11 -22 11q-20 0 -40.5 -27.5t-35.5 -68
t-24.5 -75.5t-14.5 -61q-1 -3 -12.5 1t-16.5 8q-6 -28 -7 -65zM337 260q5 -25 25 -25q25 0 45 66.5t20 138.5q0 47 -12 47q-7 0 -15 -18q-48 -107 -63 -209z" />
    <glyph glyph-name="Racute" unicode="&#x154;" horiz-adv-x="414" 
d="M16 -31q13 116 44.5 321t54.5 332q-58 -27 -79 -92q-2 -3 -6 -3q-8 0 -36 18.5t-29 28.5q1 4 3.5 11t15 25t29 33.5t47.5 30t70 20.5l4 16q0 2 1 9t2.5 10t7 6t14.5 3q34 0 53 -21q-4 -11 -5 -20q95 -9 162 -72t67 -146q0 -88 -51 -142t-141 -68q95 -108 145 -177l9 4
q7 3 13 -1t11 -15.5t8 -19t6 -22.5l4 -15q7 -24 0 -33q-6 -8 -22.5 -20t-27.5 -13q-190 250 -249 310h-3l-29 -210q-1 -7 3 -21.5t2 -31.5q-9 -59 -31 -59q-15 0 -39 9t-28 15zM197 641q-26 -149 -49 -310q95 -2 152.5 43.5t57.5 137.5q0 58 -40 94t-103 36q-12 0 -18 -1z
M252 749q-8 -5 -24.5 -0.5t-31 15t-10.5 15.5q11 14 32 45t36.5 50t27.5 23q36 12 69 -15q23 -18 12 -28q-83 -75 -111 -105z" />
    <glyph glyph-name="racute" unicode="&#x155;" horiz-adv-x="270" 
d="M115 297l7 -3q12 29 22.5 65.5t22.5 83t15 55.5q11 37 62 25q32 -8 32 -35q0 -14 -21.5 -71t-21.5 -98q0 -11 9 -20.5t21 -9.5q18 0 31 14.5t19 29.5t8 15q6 0 11 -4t5 -9q-2 -31 -25.5 -61.5t-59.5 -30.5q-41 0 -58 22.5t-20 60.5q-1 -3 -10.5 -31t-15 -43.5
t-14.5 -49.5t-14 -62.5t-9.5 -68t-4.5 -78.5q-17 -10 -52.5 4.5t-35.5 31.5q0 9 3 34t8 89.5t8 159.5q1 33 1.5 50t2.5 44t4.5 41.5t6.5 30t10.5 22.5t14.5 7q12 0 26 -5.5t23 -11.5l8 -6q-1 -26 -9 -91t-10 -96zM186 584q-8 -5 -24.5 -0.5t-31 15t-10.5 15.5q11 14 32 45
t36.5 50t27.5 23q36 12 69 -15q23 -18 12 -28q-83 -75 -111 -105z" />
    <glyph glyph-name="Rcommaaccent" unicode="&#x156;" horiz-adv-x="414" 
d="M16 -31q13 116 44.5 321t54.5 332q-58 -27 -79 -92q-2 -3 -6 -3q-8 0 -36 18.5t-29 28.5q1 4 3.5 11t15 25t29 33.5t47.5 30t70 20.5l4 16q0 2 1 9t2.5 10t7 6t14.5 3q34 0 53 -21q-4 -11 -5 -20q95 -9 162 -72t67 -146q0 -88 -51 -142t-141 -68q95 -108 145 -177l9 4
q7 3 13 -1t11 -15.5t8 -19t6 -22.5l4 -15q7 -24 0 -33q-6 -8 -22.5 -20t-27.5 -13q-190 250 -249 310h-3l-29 -210q-1 -7 3 -21.5t2 -31.5q-9 -59 -31 -59q-15 0 -39 9t-28 15zM197 641q-26 -149 -49 -310q95 -2 152.5 43.5t57.5 137.5q0 58 -40 94t-103 36q-12 0 -18 -1z
M100 -145q0 26 17 41t47 15q42 0 67 -21.5t25 -60.5q0 -36 -32 -70t-71 -43q-30 -7 -53.5 -1t-30.5 20.5t3 32.5q96 -5 108 37q-23 -7 -51.5 4t-28.5 46z" />
    <glyph glyph-name="rcommaaccent" unicode="&#x157;" horiz-adv-x="270" 
d="M115 297l7 -3q12 29 22.5 65.5t22.5 83t15 55.5q11 37 62 25q32 -8 32 -35q0 -14 -21.5 -71t-21.5 -98q0 -11 9 -20.5t21 -9.5q18 0 31 14.5t19 29.5t8 15q6 0 11 -4t5 -9q-2 -31 -25.5 -61.5t-59.5 -30.5q-41 0 -58 22.5t-20 60.5q-1 -3 -10.5 -31t-15 -43.5
t-14.5 -49.5t-14 -62.5t-9.5 -68t-4.5 -78.5q-17 -10 -52.5 4.5t-35.5 31.5q0 9 3 34t8 89.5t8 159.5q1 33 1.5 50t2.5 44t4.5 41.5t6.5 30t10.5 22.5t14.5 7q12 0 26 -5.5t23 -11.5l8 -6q-1 -26 -9 -91t-10 -96zM-27 -145q0 26 17 41t47 15q42 0 67 -21.5t25 -60.5
q0 -36 -32 -70t-71 -43q-30 -7 -53.5 -1t-30.5 20.5t3 32.5q96 -5 108 37q-23 -7 -51.5 4t-28.5 46z" />
    <glyph glyph-name="Rcaron" unicode="&#x158;" horiz-adv-x="414" 
d="M16 -31q13 116 44.5 321t54.5 332q-58 -27 -79 -92q-2 -3 -6 -3q-8 0 -36 18.5t-29 28.5q1 4 3.5 11t15 25t29 33.5t47.5 30t70 20.5l4 16q0 2 1 9t2.5 10t7 6t14.5 3q34 0 53 -21q-4 -11 -5 -20q95 -9 162 -72t67 -146q0 -88 -51 -142t-141 -68q95 -108 145 -177l9 4
q7 3 13 -1t11 -15.5t8 -19t6 -22.5l4 -15q7 -24 0 -33q-6 -8 -22.5 -20t-27.5 -13q-190 250 -249 310h-3l-29 -210q-1 -7 3 -21.5t2 -31.5q-9 -59 -31 -59q-15 0 -39 9t-28 15zM197 641q-26 -149 -49 -310q95 -2 152.5 43.5t57.5 137.5q0 58 -40 94t-103 36q-12 0 -18 -1z
M342 883l27 -17q22 -14 -9 -36q-87 -69 -111 -84l-33 5q-15 20 -51.5 73t-40.5 59q-3 6 1 12.5t11 9.5q25 11 38 -2q6 -6 33 -40.5t33 -40.5q51 42 65 55q20 17 37 6z" />
    <glyph glyph-name="rcaron" unicode="&#x159;" horiz-adv-x="270" 
d="M115 297l7 -3q12 29 22.5 65.5t22.5 83t15 55.5q11 37 62 25q32 -8 32 -35q0 -14 -21.5 -71t-21.5 -98q0 -11 9 -20.5t21 -9.5q18 0 31 14.5t19 29.5t8 15q6 0 11 -4t5 -9q-2 -31 -25.5 -61.5t-59.5 -30.5q-41 0 -58 22.5t-20 60.5q-1 -3 -10.5 -31t-15 -43.5
t-14.5 -49.5t-14 -62.5t-9.5 -68t-4.5 -78.5q-17 -10 -52.5 4.5t-35.5 31.5q0 9 3 34t8 89.5t8 159.5q1 33 1.5 50t2.5 44t4.5 41.5t6.5 30t10.5 22.5t14.5 7q12 0 26 -5.5t23 -11.5l8 -6q-1 -26 -9 -91t-10 -96zM277 717l27 -17q22 -14 -9 -36q-87 -69 -111 -84l-33 5
q-15 20 -51.5 73t-40.5 59q-3 6 1 12.5t11 9.5q25 11 38 -2q6 -6 33 -40.5t33 -40.5q51 42 65 55q20 17 37 6z" />
    <glyph glyph-name="Sacute" unicode="&#x15a;" horiz-adv-x="401" 
d="M49 96q0 -34 22 -61.5t63 -27.5q71 0 119 47.5t48 126.5q0 54 -18.5 106t-47 89.5t-62 66.5t-63 44.5t-49.5 16.5q-6 1 -19 23.5t-13 29.5q-1 31 67.5 66.5t154 56.5t135.5 17q13 -1 34 -22t21 -30q0 -33 -39.5 -72t-61.5 -39q-9 0 -9 11q0 4 17.5 30t17.5 32
q0 11 -47.5 -1t-103 -35.5t-76.5 -41.5q18 -10 42 -27t61 -54t66.5 -79.5t51 -105t21.5 -129.5q0 -93 -58.5 -144.5t-136.5 -51.5q-89 0 -147.5 66t-58.5 141q0 38 19.5 74t50.5 36q46 0 55 -34q-19 -19 -37.5 -55.5t-18.5 -69.5zM258 745q-8 -5 -24.5 -0.5t-31 15
t-10.5 15.5q11 14 32 45t36.5 50t27.5 23q36 12 69 -15q23 -18 12 -28q-83 -75 -111 -105z" />
    <glyph glyph-name="sacute" unicode="&#x15b;" horiz-adv-x="285" 
d="M90 367l1 -4q7 -3 19.5 -9.5t44.5 -30.5t56 -51t44 -71.5t20 -93.5q0 -81 -36.5 -119.5t-93.5 -38.5q-62 0 -113.5 56t-51.5 117q0 34 18 75t42 41q10 0 27.5 -15t17.5 -22q0 -19 -21.5 -68.5t-21.5 -51.5q0 -7 5 -19t22.5 -25.5t43.5 -13.5q46 0 69.5 30.5t23.5 83.5
q0 71 -52 124t-108 60q-13 11 -20.5 33.5t-5.5 42.5q3 27 122 78t140 51q8 0 20.5 -15.5t12.5 -28.5q0 -27 -36 -60t-57 -33q-5 0 -11.5 13.5t-11.5 13.5q-18 -1 -60 -21.5t-49 -27.5zM200 580q-8 -5 -24.5 -0.5t-31 15t-10.5 15.5q11 14 32 45t36.5 50t27.5 23
q36 12 69 -15q23 -18 12 -28q-83 -75 -111 -105z" />
    <glyph glyph-name="Scircumflex" unicode="&#x15c;" horiz-adv-x="401" 
d="M49 96q0 -34 22 -61.5t63 -27.5q71 0 119 47.5t48 126.5q0 54 -18.5 106t-47 89.5t-62 66.5t-63 44.5t-49.5 16.5q-6 1 -19 23.5t-13 29.5q-1 31 67.5 66.5t154 56.5t135.5 17q13 -1 34 -22t21 -30q0 -33 -39.5 -72t-61.5 -39q-9 0 -9 11q0 4 17.5 30t17.5 32
q0 11 -47.5 -1t-103 -35.5t-76.5 -41.5q18 -10 42 -27t61 -54t66.5 -79.5t51 -105t21.5 -129.5q0 -93 -58.5 -144.5t-136.5 -51.5q-89 0 -147.5 66t-58.5 141q0 38 19.5 74t50.5 36q46 0 55 -34q-19 -19 -37.5 -55.5t-18.5 -69.5zM193 762l-29 18q-22 14 9 36q87 69 111 84
l33 -5q45 -60 82 -124q3 -6 -1 -12.5t-11 -9.5q-25 -11 -38 2q-6 6 -29.5 36t-29.5 37q-4 -4 -63 -56q-18 -16 -34 -6z" />
    <glyph glyph-name="scircumflex" unicode="&#x15d;" horiz-adv-x="285" 
d="M90 367l1 -4q7 -3 19.5 -9.5t44.5 -30.5t56 -51t44 -71.5t20 -93.5q0 -81 -36.5 -119.5t-93.5 -38.5q-62 0 -113.5 56t-51.5 117q0 34 18 75t42 41q10 0 27.5 -15t17.5 -22q0 -19 -21.5 -68.5t-21.5 -51.5q0 -7 5 -19t22.5 -25.5t43.5 -13.5q46 0 69.5 30.5t23.5 83.5
q0 71 -52 124t-108 60q-13 11 -20.5 33.5t-5.5 42.5q3 27 122 78t140 51q8 0 20.5 -15.5t12.5 -28.5q0 -27 -36 -60t-57 -33q-5 0 -11.5 13.5t-11.5 13.5q-18 -1 -60 -21.5t-49 -27.5zM127 598l-29 18q-22 14 9 36q87 69 111 84l33 -5q45 -60 82 -124q3 -6 -1 -12.5
t-11 -9.5q-25 -11 -38 2q-6 6 -29.5 36t-29.5 37q-4 -4 -63 -56q-18 -16 -34 -6z" />
    <glyph glyph-name="Scedilla" unicode="&#x15e;" horiz-adv-x="401" 
d="M223 -180q0 -41 -28.5 -66.5t-73.5 -25.5q-44 0 -68.5 27.5t-24.5 56.5q0 28 30 28l18 -4q11 -68 54 -68q34 0 34 33q0 19 -12.5 35t-27.5 24t-30.5 14.5t-17.5 8.5q-14 12 40 68q-61 24 -98.5 80t-37.5 114q0 38 19.5 74t50.5 36q46 0 55 -34q-19 -19 -37.5 -55.5
t-18.5 -69.5q0 -34 22 -61.5t63 -27.5q71 0 119 47.5t48 126.5q0 54 -18.5 106t-47 89.5t-62 66.5t-63 44.5t-49.5 16.5q-6 1 -19 23.5t-13 29.5q-1 31 67.5 66.5t154 56.5t135.5 17q13 -1 34 -22t21 -30q0 -33 -39.5 -72t-61.5 -39q-9 0 -9 11q0 4 17.5 30t17.5 32
q0 11 -47.5 -1t-103 -35.5t-76.5 -41.5q18 -10 42 -27t61 -54t66.5 -79.5t51 -105t21.5 -129.5q0 -93 -58.5 -144.5t-136.5 -51.5q-10 0 -26 2q-17 -15 -23 -23q32 -12 59 -37t27 -60z" />
    <glyph glyph-name="scedilla" unicode="&#x15f;" horiz-adv-x="285" 
d="M188 -180q0 -41 -28.5 -66.5t-73.5 -25.5q-44 0 -68.5 27.5t-24.5 56.5q0 28 30 28l18 -4q11 -68 54 -68q34 0 34 33q0 19 -12.5 35t-27.5 24t-30.5 14.5t-17.5 8.5q-14 11 50 78q-47 21 -79 68t-32 93q0 34 18 75t42 41q10 0 27.5 -15t17.5 -22q0 -19 -21.5 -68.5
t-21.5 -51.5q0 -7 5 -19t22.5 -25.5t43.5 -13.5q46 0 69.5 30.5t23.5 83.5q0 71 -52 124t-108 60q-13 11 -20.5 33.5t-5.5 42.5q3 27 122 78t140 51q8 0 20.5 -15.5t12.5 -28.5q0 -27 -36 -60t-57 -33q-5 0 -11.5 13.5t-11.5 13.5q-18 -1 -60 -21.5t-49 -27.5l1 -4
q7 -3 19.5 -9.5t44.5 -30.5t56 -51t44 -71.5t20 -93.5q0 -81 -36.5 -119.5t-93.5 -38.5h-8q-30 -25 -35 -32q32 -12 59 -37t27 -60z" />
    <glyph glyph-name="Scaron" unicode="&#x160;" horiz-adv-x="401" 
d="M49 96q0 -34 22 -61.5t63 -27.5q71 0 119 47.5t48 126.5q0 54 -18.5 106t-47 89.5t-62 66.5t-63 44.5t-49.5 16.5q-6 1 -19 23.5t-13 29.5q-1 31 67.5 66.5t154 56.5t135.5 17q13 -1 34 -22t21 -30q0 -33 -39.5 -72t-61.5 -39q-9 0 -9 11q0 4 17.5 30t17.5 32
q0 11 -47.5 -1t-103 -35.5t-76.5 -41.5q18 -10 42 -27t61 -54t66.5 -79.5t51 -105t21.5 -129.5q0 -93 -58.5 -144.5t-136.5 -51.5q-89 0 -147.5 66t-58.5 141q0 38 19.5 74t50.5 36q46 0 55 -34q-19 -19 -37.5 -55.5t-18.5 -69.5zM376 881l27 -17q22 -14 -9 -36
q-87 -69 -111 -84l-33 5q-15 20 -51.5 73t-40.5 59q-3 6 1 12.5t11 9.5q25 11 38 -2q6 -6 33 -40.5t33 -40.5q51 42 65 55q20 17 37 6z" />
    <glyph glyph-name="scaron" unicode="&#x161;" horiz-adv-x="285" 
d="M90 367l1 -4q7 -3 19.5 -9.5t44.5 -30.5t56 -51t44 -71.5t20 -93.5q0 -81 -36.5 -119.5t-93.5 -38.5q-62 0 -113.5 56t-51.5 117q0 34 18 75t42 41q10 0 27.5 -15t17.5 -22q0 -19 -21.5 -68.5t-21.5 -51.5q0 -7 5 -19t22.5 -25.5t43.5 -13.5q46 0 69.5 30.5t23.5 83.5
q0 71 -52 124t-108 60q-13 11 -20.5 33.5t-5.5 42.5q3 27 122 78t140 51q8 0 20.5 -15.5t12.5 -28.5q0 -27 -36 -60t-57 -33q-5 0 -11.5 13.5t-11.5 13.5q-18 -1 -60 -21.5t-49 -27.5zM316 717l27 -17q22 -14 -9 -36q-87 -69 -111 -84l-33 5q-15 20 -51.5 73t-40.5 59
q-3 6 1 12.5t11 9.5q25 11 38 -2q6 -6 33 -40.5t33 -40.5q51 42 65 55q20 17 37 6z" />
    <glyph glyph-name="Tcommaaccent" unicode="&#x162;" horiz-adv-x="385" 
d="M53 560q-12 -3 -26.5 12.5t-19 30.5t2.5 21q70 29 206 48q1 3 13 46q45 -7 65 -28l-2 -8l82 7q64 5 76 -10q35 -44 35 -50t-6 -11t-15 -5q-82 -2 -187 -13q-47 -258 -77 -543q1 0 12 4t14 4t8 -4q3 -10 -8 -36.5t-24 -48.5l-12 -21q-10 -17 -43.5 -4.5t-41.5 24.5
q40 362 92 614q-68 -10 -144 -29zM65 -145q0 26 17 41t47 15q42 0 67 -21.5t25 -60.5q0 -36 -32 -70t-71 -43q-30 -7 -53.5 -1t-30.5 20.5t3 32.5q96 -5 108 37q-23 -7 -51.5 4t-28.5 46z" />
    <glyph glyph-name="tcommaaccent" unicode="&#x163;" horiz-adv-x="296" 
d="M47 415q-19 -4 -36.5 22t-6.5 36q16 13 107 31q30 115 47 127q12 8 40.5 -10t25.5 -27l-20 -74q28 4 47 6q16 3 29.5 2.5t17.5 -9.5q3 -7 12 -8t15 -7q5 -5 13 -17t8 -16q0 -15 -15 -15q-54 -1 -148 -16q-64 -248 -64 -361q0 -42 32 -42q44 0 92.5 42t51.5 82q1 -2 9 0
t17.5 -11t9.5 -40q0 -50 -54.5 -98t-104.5 -48q-52 0 -88.5 49t-36.5 125q0 94 45 287zM63 -145q0 26 17 41t47 15q42 0 67 -21.5t25 -60.5q0 -36 -32 -70t-71 -43q-30 -7 -53.5 -1t-30.5 20.5t3 32.5q96 -5 108 37q-23 -7 -51.5 4t-28.5 46z" />
    <glyph glyph-name="Tcaron" unicode="&#x164;" horiz-adv-x="385" 
d="M53 560q-12 -3 -26.5 12.5t-19 30.5t2.5 21q70 29 206 48q1 3 13 46q45 -7 65 -28l-2 -8l82 7q64 5 76 -10q35 -44 35 -50t-6 -11t-15 -5q-82 -2 -187 -13q-47 -258 -77 -543q1 0 12 4t14 4t8 -4q3 -10 -8 -36.5t-24 -48.5l-12 -21q-10 -17 -43.5 -4.5t-41.5 24.5
q40 362 92 614q-68 -10 -144 -29zM375 881l27 -17q22 -14 -9 -36q-87 -69 -111 -84l-33 5q-15 20 -51.5 73t-40.5 59q-3 6 1 12.5t11 9.5q25 11 38 -2q6 -6 33 -40.5t33 -40.5q51 42 65 55q20 17 37 6z" />
    <glyph glyph-name="tcaron" unicode="&#x165;" horiz-adv-x="355" 
d="M47 415q-19 -4 -36.5 22t-6.5 36q16 13 107 31q30 115 47 127q12 8 40.5 -10t25.5 -27l-20 -74q28 4 47 6q16 3 29.5 2.5t17.5 -9.5q3 -7 12 -8t15 -7q5 -5 13 -17t8 -16q0 -15 -15 -15q-54 -1 -148 -16q-64 -248 -64 -361q0 -42 32 -42q44 0 92.5 42t51.5 82q1 -2 9 0
t17.5 -11t9.5 -40q0 -50 -54.5 -98t-104.5 -48q-52 0 -88.5 49t-36.5 125q0 94 45 287zM339 678q0 26 17 41t47 15q42 0 67 -21.5t25 -60.5q0 -36 -32 -70t-71 -43q-30 -7 -53.5 -1t-30.5 20.5t3 32.5q96 -5 108 37q-23 -7 -51.5 4t-28.5 46z" />
    <glyph glyph-name="Tbar" unicode="&#x166;" horiz-adv-x="385" 
d="M54 296q31 7 94 11q25 165 49 282q-68 -10 -144 -29q-12 -3 -26.5 12.5t-19 30.5t2.5 21q70 29 206 48q1 3 13 46q45 -7 65 -28l-2 -8l82 7q64 5 76 -10q35 -44 35 -50t-6 -11t-15 -5q-82 -2 -187 -13q-25 -135 -47 -292q12 0 29.5 -0.5t22.5 -0.5q11 -1 28 -25
q18 -26 -3 -26h-84q-15 -119 -23 -199q1 0 12 4t14 4t8 -4q3 -10 -8 -36.5t-24 -48.5l-12 -21q-10 -17 -43.5 -4.5t-41.5 24.5q18 161 36 281l-45 -2q-22 -2 -40 23q-13 16 -2 19z" />
    <glyph glyph-name="tbar" unicode="&#x167;" horiz-adv-x="296" 
d="M47 415q-19 -4 -36.5 22t-6.5 36q16 13 107 31q30 115 47 127q12 8 40.5 -10t25.5 -27l-20 -74q28 4 47 6q16 3 29.5 2.5t17.5 -9.5q3 -7 12 -8t15 -7q5 -5 13 -17t8 -16q0 -15 -15 -15q-54 -1 -148 -16q-20 -76 -31 -129q56 3 78 2q11 -1 28 -28q19 -31 -2 -31
q-41 0 -117 -4q-20 -108 -20 -171q0 -42 32 -42q44 0 92.5 42t51.5 82q1 -2 9 0t17.5 -11t9.5 -40q0 -50 -54.5 -98t-104.5 -48q-52 0 -88.5 49t-36.5 125q0 42 9 105q-10 -2 -15 -2q-22 -2 -41 24q-14 19 -2 23q18 6 68 14q10 58 26 123z" />
    <glyph glyph-name="Utilde" unicode="&#x168;" horiz-adv-x="423" 
d="M84 124q0 -124 63 -124q29 0 50.5 20.5t36 58t25.5 98t19.5 133t18.5 168.5q13 126 21 197q0 1 0.5 4.5t0.5 5t0.5 4.5t1.5 4.5t3 3.5t4.5 3t6 2t8.5 1q15 0 34.5 -8t27.5 -17q-6 -62 -28.5 -249.5t-27.5 -271.5q-4 -66 6 -91t33 -25q9 0 17 2.5t14 9t10 11t8 14.5
t5.5 14.5t5 15.5t3.5 12q2 0 6 -1t10 -8t6 -18q0 -40 -26 -80t-73 -40q-25 0 -39.5 18.5t-26.5 52.5q-10 -41 -47 -75.5t-94 -34.5q-157 0 -157 241q0 107 27 274t50 254q6 14 40 7t46 -20q-30 -106 -59.5 -282.5t-29.5 -283.5zM168 753q-10 0 -17 19t-1 29q9 16 28.5 31
t39.5 15q29 0 56 -18t38 -18q14 0 30.5 15t22.5 15q9 0 13.5 -18t-1.5 -33q-8 -17 -29 -32t-47 -15q-21 0 -50.5 16.5t-44.5 16.5q-11 0 -22.5 -11.5t-15.5 -11.5z" />
    <glyph glyph-name="utilde" unicode="&#x169;" horiz-adv-x="349" 
d="M215 139l-6 -1q-43 -152 -90 -152q-35 0 -74.5 43.5t-39.5 92.5q0 91 36 229.5t63 138.5q10 0 26.5 -8.5t22.5 -18.5q-64 -220 -64 -388l14 -5q50 82 90.5 210t50.5 216q1 12 17 12q22 0 44 -12.5t22 -25.5q0 -14 -24 -150.5t-24 -178.5q0 -26 10 -51.5t32 -25.5
q19 0 34.5 23t20.5 46l6 23q27 0 27 -25q0 -34 -35 -82t-74 -48q-35 0 -56 24t-26 52t-3 62zM129 598q-10 0 -17 19t-1 29q9 16 28.5 31t39.5 15q29 0 56 -18t38 -18q14 0 30.5 15t22.5 15q9 0 13.5 -18t-1.5 -33q-8 -17 -29 -32t-47 -15q-21 0 -50.5 16.5t-44.5 16.5
q-11 0 -22.5 -11.5t-15.5 -11.5z" />
    <glyph glyph-name="Umacron" unicode="&#x16a;" horiz-adv-x="423" 
d="M84 124q0 -124 63 -124q29 0 50.5 20.5t36 58t25.5 98t19.5 133t18.5 168.5q13 126 21 197q0 1 0.5 4.5t0.5 5t0.5 4.5t1.5 4.5t3 3.5t4.5 3t6 2t8.5 1q15 0 34.5 -8t27.5 -17q-6 -62 -28.5 -249.5t-27.5 -271.5q-4 -66 6 -91t33 -25q9 0 17 2.5t14 9t10 11t8 14.5
t5.5 14.5t5 15.5t3.5 12q2 0 6 -1t10 -8t6 -18q0 -40 -26 -80t-73 -40q-25 0 -39.5 18.5t-26.5 52.5q-10 -41 -47 -75.5t-94 -34.5q-157 0 -157 241q0 107 27 274t50 254q6 14 40 7t46 -20q-30 -106 -59.5 -282.5t-29.5 -283.5zM131 806q42 13 124 16t108 -1q10 -1 27 -30
q21 -38 -1 -38q-192 0 -215 -3q-21 -2 -40 28q-16 24 -3 28z" />
    <glyph glyph-name="umacron" unicode="&#x16b;" horiz-adv-x="349" 
d="M215 139l-6 -1q-43 -152 -90 -152q-35 0 -74.5 43.5t-39.5 92.5q0 91 36 229.5t63 138.5q10 0 26.5 -8.5t22.5 -18.5q-64 -220 -64 -388l14 -5q50 82 90.5 210t50.5 216q1 12 17 12q22 0 44 -12.5t22 -25.5q0 -14 -24 -150.5t-24 -178.5q0 -26 10 -51.5t32 -25.5
q19 0 34.5 23t20.5 46l6 23q27 0 27 -25q0 -34 -35 -82t-74 -48q-35 0 -56 24t-26 52t-3 62zM95 646q42 13 124 16t108 -1q10 -1 27 -30q21 -38 -1 -38q-192 0 -215 -3q-21 -2 -40 28q-16 24 -3 28z" />
    <glyph glyph-name="Ubreve" unicode="&#x16c;" horiz-adv-x="423" 
d="M84 124q0 -124 63 -124q29 0 50.5 20.5t36 58t25.5 98t19.5 133t18.5 168.5q13 126 21 197q0 1 0.5 4.5t0.5 5t0.5 4.5t1.5 4.5t3 3.5t4.5 3t6 2t8.5 1q15 0 34.5 -8t27.5 -17q-6 -62 -28.5 -249.5t-27.5 -271.5q-4 -66 6 -91t33 -25q9 0 17 2.5t14 9t10 11t8 14.5
t5.5 14.5t5 15.5t3.5 12q2 0 6 -1t10 -8t6 -18q0 -40 -26 -80t-73 -40q-25 0 -39.5 18.5t-26.5 52.5q-10 -41 -47 -75.5t-94 -34.5q-157 0 -157 241q0 107 27 274t50 254q6 14 40 7t46 -20q-30 -106 -59.5 -282.5t-29.5 -283.5zM304 863q8 14 32 3t31 -26q-16 -45 -46.5 -69
t-67.5 -24q-34 0 -61 19.5t-35 49.5q-6 23 5.5 37t32.5 9q3 -24 14.5 -42.5t31.5 -18.5q22 0 36 15t27 47z" />
    <glyph glyph-name="ubreve" unicode="&#x16d;" horiz-adv-x="349" 
d="M215 139l-6 -1q-43 -152 -90 -152q-35 0 -74.5 43.5t-39.5 92.5q0 91 36 229.5t63 138.5q10 0 26.5 -8.5t22.5 -18.5q-64 -220 -64 -388l14 -5q50 82 90.5 210t50.5 216q1 12 17 12q22 0 44 -12.5t22 -25.5q0 -14 -24 -150.5t-24 -178.5q0 -26 10 -51.5t32 -25.5
q19 0 34.5 23t20.5 46l6 23q27 0 27 -25q0 -34 -35 -82t-74 -48q-35 0 -56 24t-26 52t-3 62zM272 701q8 14 32 3t31 -26q-16 -45 -46.5 -69t-67.5 -24q-34 0 -61 19.5t-35 49.5q-6 23 5.5 37t32.5 9q3 -24 14.5 -42.5t31.5 -18.5q22 0 36 15t27 47z" />
    <glyph glyph-name="Uring" unicode="&#x16e;" horiz-adv-x="423" 
d="M84 124q0 -124 63 -124q29 0 50.5 20.5t36 58t25.5 98t19.5 133t18.5 168.5q13 126 21 197q0 1 0.5 4.5t0.5 5t0.5 4.5t1.5 4.5t3 3.5t4.5 3t6 2t8.5 1q15 0 34.5 -8t27.5 -17q-6 -62 -28.5 -249.5t-27.5 -271.5q-4 -66 6 -91t33 -25q9 0 17 2.5t14 9t10 11t8 14.5
t5.5 14.5t5 15.5t3.5 12q2 0 6 -1t10 -8t6 -18q0 -40 -26 -80t-73 -40q-25 0 -39.5 18.5t-26.5 52.5q-10 -41 -47 -75.5t-94 -34.5q-157 0 -157 241q0 107 27 274t50 254q6 14 40 7t46 -20q-30 -106 -59.5 -282.5t-29.5 -283.5zM170 810q0 36 29 65.5t80 29.5
q52 0 70.5 -20.5t18.5 -61.5q0 -39 -30 -65.5t-77 -26.5q-43 0 -67 23t-24 56zM238 808q0 -11 7.5 -18t16.5 -7q18 0 29.5 11.5t11.5 32.5q0 27 -24 27q-41 0 -41 -46z" />
    <glyph glyph-name="uring" unicode="&#x16f;" horiz-adv-x="349" 
d="M215 139l-6 -1q-43 -152 -90 -152q-35 0 -74.5 43.5t-39.5 92.5q0 91 36 229.5t63 138.5q10 0 26.5 -8.5t22.5 -18.5q-64 -220 -64 -388l14 -5q50 82 90.5 210t50.5 216q1 12 17 12q22 0 44 -12.5t22 -25.5q0 -14 -24 -150.5t-24 -178.5q0 -26 10 -51.5t32 -25.5
q19 0 34.5 23t20.5 46l6 23q27 0 27 -25q0 -34 -35 -82t-74 -48q-35 0 -56 24t-26 52t-3 62zM130 650q0 36 29 65.5t80 29.5q52 0 70.5 -20.5t18.5 -61.5q0 -39 -30 -65.5t-77 -26.5q-43 0 -67 23t-24 56zM198 648q0 -11 7.5 -18t16.5 -7q18 0 29.5 11.5t11.5 32.5
q0 27 -24 27q-41 0 -41 -46z" />
    <glyph glyph-name="Uhungarumlaut" unicode="&#x170;" horiz-adv-x="423" 
d="M84 124q0 -124 63 -124q29 0 50.5 20.5t36 58t25.5 98t19.5 133t18.5 168.5q13 126 21 197q0 1 0.5 4.5t0.5 5t0.5 4.5t1.5 4.5t3 3.5t4.5 3t6 2t8.5 1q15 0 34.5 -8t27.5 -17q-6 -62 -28.5 -249.5t-27.5 -271.5q-4 -66 6 -91t33 -25q9 0 17 2.5t14 9t10 11t8 14.5
t5.5 14.5t5 15.5t3.5 12q2 0 6 -1t10 -8t6 -18q0 -40 -26 -80t-73 -40q-25 0 -39.5 18.5t-26.5 52.5q-10 -41 -47 -75.5t-94 -34.5q-157 0 -157 241q0 107 27 274t50 254q6 14 40 7t46 -20q-30 -106 -59.5 -282.5t-29.5 -283.5zM195 752q-9 -9 -26 6t-10 24q11 14 32 45
t36.5 50t27.5 23q10 3 25.5 -4.5t24.5 -19.5t1 -19q-83 -75 -111 -105zM335 752q-7 -5 -15.5 -0.5t-14.5 15t-2 15.5q12 15 31 45t34 49.5t27 23.5q11 4 26.5 -4t24 -20t0.5 -19q-83 -75 -111 -105z" />
    <glyph glyph-name="uhungarumlaut" unicode="&#x171;" horiz-adv-x="349" 
d="M215 139l-6 -1q-43 -152 -90 -152q-35 0 -74.5 43.5t-39.5 92.5q0 91 36 229.5t63 138.5q10 0 26.5 -8.5t22.5 -18.5q-64 -220 -64 -388l14 -5q50 82 90.5 210t50.5 216q1 12 17 12q22 0 44 -12.5t22 -25.5q0 -14 -24 -150.5t-24 -178.5q0 -26 10 -51.5t32 -25.5
q19 0 34.5 23t20.5 46l6 23q27 0 27 -25q0 -34 -35 -82t-74 -48q-35 0 -56 24t-26 52t-3 62zM163 578q-9 -9 -26 6t-10 24q11 14 32 45t36.5 50t27.5 23q10 3 25.5 -4.5t24.5 -19.5t1 -19q-83 -75 -111 -105zM303 578q-7 -5 -15.5 -0.5t-14.5 15t-2 15.5q12 15 31 45
t34 49.5t27 23.5q11 4 26.5 -4t24 -20t0.5 -19q-83 -75 -111 -105z" />
    <glyph glyph-name="Uogonek" unicode="&#x172;" horiz-adv-x="423" 
d="M276 -82q0 55 50 86q-8 12 -18 40q-10 -41 -47 -75.5t-94 -34.5q-157 0 -157 241q0 107 27 274t50 254q6 14 40 7t46 -20q-30 -106 -59.5 -282.5t-29.5 -283.5q0 -124 63 -124q29 0 50.5 20.5t36 58t25.5 98t19.5 133t18.5 168.5q13 126 21 197q0 1 0.5 4.5t0.5 5
t0.5 4.5t1.5 4.5t3 3.5t4.5 3t6 2t8.5 1q15 0 34.5 -8t27.5 -17q-6 -62 -28.5 -249.5t-27.5 -271.5q-4 -66 6 -91t33 -25q9 0 17 2.5t14 9t10 11t8 14.5t5.5 14.5t5 15.5t3.5 12q2 0 6 -1t10 -8t6 -18q0 -35 -21 -72.5t-60 -45.5q-64 -32 -64 -80q0 -13 11 -20.5t27 -7.5
q42 0 82 46q16 -4 29 -21t13 -32q0 -17 -28.5 -35t-76.5 -18q-50 0 -79.5 30.5t-29.5 80.5z" />
    <glyph glyph-name="uogonek" unicode="&#x173;" horiz-adv-x="349" 
d="M176 -58q0 57 61 90q-26 38 -22 107l-6 -1q-43 -152 -90 -152q-35 0 -74.5 43.5t-39.5 92.5q0 91 36 229.5t63 138.5q10 0 26.5 -8.5t22.5 -18.5q-64 -220 -64 -388l14 -5q50 82 90.5 210t50.5 216q1 12 17 12q22 0 44 -12.5t22 -25.5q0 -14 -24 -150.5t-24 -178.5
q0 -26 10 -51.5t32 -25.5q19 0 34.5 23t20.5 46l6 23q27 0 27 -25q0 -31 -32 -77.5t-69 -52.5q-75 -34 -75 -82q0 -13 11.5 -20.5t29.5 -7.5q45 0 89 46q18 -4 31.5 -21t13.5 -32q0 -17 -30.5 -35t-82.5 -18q-55 0 -87 30.5t-32 80.5z" />
    <glyph glyph-name="Wcircumflex" unicode="&#x174;" horiz-adv-x="568" 
d="M306 434h-7q-26 -62 -59.5 -228.5t-40.5 -261.5q-7 -13 -55 4q-43 48 -64 196t-17.5 310t25.5 271q6 4 24 3t36 -11t16 -23q-26 -222 -22 -376.5t28 -217.5l5 5q29 236 142 532q8 14 46 0.5t40 -21.5q-47 -244 14 -524q26 170 83.5 393t82.5 237q8 4 25 -1.5t29.5 -15
t9.5 -14.5q-124 -322 -188 -778q-44 -8 -74 9q-25 14 -49 190t-30 322zM302 756l-29 18q-22 14 9 36q87 69 111 84l33 -5q45 -60 82 -124q3 -6 -1 -12.5t-11 -9.5q-25 -11 -38 2q-6 6 -29.5 36t-29.5 37q-4 -4 -63 -56q-18 -16 -34 -6z" />
    <glyph glyph-name="wcircumflex" unicode="&#x175;" horiz-adv-x="372" 
d="M192 263h-5q-50 -131 -56 -273q-6 -11 -28 -11q-73 0 -73 274q0 76 11 165.5t31 89.5t42.5 -12.5t19.5 -28.5q-23 -118 -23 -231q0 -15 3 -48h5q57 159 87 327q4 18 23 18q13 0 34.5 -10t19.5 -22q-31 -190 -23 -348h7q8 46 18 96t30 136.5t43.5 141.5t45.5 55
q38 0 38 -23q0 -3 -4.5 -13t-12 -26.5t-12.5 -31.5q-114 -316 -114 -539q-9 -14 -28 -14q-63 0 -69 103q-10 170 -10 225zM171 602l-29 18q-22 14 9 36q87 69 111 84l33 -5q45 -60 82 -124q3 -6 -1 -12.5t-11 -9.5q-25 -11 -38 2q-6 6 -29.5 36t-29.5 37q-4 -4 -63 -56
q-18 -16 -34 -6z" />
    <glyph glyph-name="Ycircumflex" unicode="&#x176;" horiz-adv-x="381" 
d="M28 6q6 14 21 11.5t16 -0.5q40 88 100 232q-96 227 -134 303q-3 5 -14 1.5t-14 0.5q-9 14 -17.5 55.5t-3.5 48.5q33 46 59 8q35 -51 160 -329q78 184 130 284t84 100q16 0 36.5 -9.5t18.5 -22.5q-44 -47 -128 -238t-161 -386.5t-92 -222.5q-8 -1 -28 6t-37.5 18t-16.5 19
q13 101 21 121zM158 756l-29 18q-22 14 9 36q87 69 111 84l33 -5q45 -60 82 -124q3 -6 -1 -12.5t-11 -9.5q-25 -11 -38 2q-6 6 -29.5 36t-29.5 37q-4 -4 -63 -56q-18 -16 -34 -6z" />
    <glyph glyph-name="ycircumflex" unicode="&#x177;" horiz-adv-x="303" 
d="M5 140q0 151 67 356q3 9 24 9q16 0 33 -11.5t18 -29.5q-65 -230 -65 -362q0 -52 23 -52q22 0 49 51t36 93q2 8 13 96.5t25.5 158t29.5 69.5q25 0 45 -12t20 -28q0 -54 -26.5 -157t-30.5 -132q-46 -310 -46 -418q0 -8 -10 -8q-24 0 -63 22q-10 6 -10 25t15.5 115t18.5 134
q-26 -63 -71 -63q-28 0 -48 13.5t-29.5 37t-13.5 46t-4 47.5zM124 593l-29 18q-22 14 9 36q87 69 111 84l33 -5q45 -60 82 -124q3 -6 -1 -12.5t-11 -9.5q-25 -11 -38 2q-6 6 -29.5 36t-29.5 37q-4 -3 -63 -56q-18 -16 -34 -6z" />
    <glyph glyph-name="Ydieresis" unicode="&#x178;" horiz-adv-x="381" 
d="M28 6q6 14 21 11.5t16 -0.5q40 88 100 232q-96 227 -134 303q-3 5 -14 1.5t-14 0.5q-9 14 -17.5 55.5t-3.5 48.5q33 46 59 8q35 -51 160 -329q78 184 130 284t84 100q16 0 36.5 -9.5t18.5 -22.5q-44 -47 -128 -238t-161 -386.5t-92 -222.5q-8 -1 -28 6t-37.5 18t-16.5 19
q13 101 21 121zM129 779q-29 12 -29 39q0 26 21 51.5t62 25.5q15 0 28 -13.5t13 -39.5q0 -29 -14.5 -62t-46.5 -33q-21 0 -29.5 7t-4.5 25zM257 806q0 25 21 50.5t62 25.5q15 0 28 -13.5t13 -38.5q0 -29 -14.5 -62.5t-46.5 -33.5q-22 0 -42.5 24.5t-20.5 47.5z" />
    <glyph glyph-name="Zacute" unicode="&#x179;" horiz-adv-x="341" 
d="M61 305q-14 -2 -29 10t-20 25t1 20q25 17 145 42q99 163 144 217q-44 -1 -143.5 -21t-131.5 -36q-2 -1 -5.5 4t-7 14t-7 18.5t-6 19t-2.5 14.5q-1 33 160 63.5t208 27.5q12 -1 23 -21t11 -32q-29 -32 -166 -256q9 1 24 1q35 1 43 -16q4 -8 14 -9.5t16 -7.5q1 -1 6 -7
t8 -10.5t5.5 -10.5t-2.5 -9t-17 -2q-55 2 -147 -13q-139 -233 -146 -270q60 19 153.5 33.5t150.5 10.5q16 -3 27 -31.5t11 -40.5q0 -8 -33 -14t-99 -14t-112 -18q-85 -16 -140 -40q-16 -1 -24.5 12t-9.5 23.5t-2 30.5q0 57 144 302zM227 749q-8 -5 -24.5 -0.5t-31 15
t-10.5 15.5q11 14 32 45t36.5 50t27.5 23q36 12 69 -15q23 -18 12 -28q-83 -75 -111 -105z" />
    <glyph glyph-name="zacute" unicode="&#x17a;" horiz-adv-x="299" 
d="M-15 24q0 84 224 357q-25 -2 -59.5 -11t-71.5 -21t-47 -15q-3 -1 -10 12.5t-12 30.5t-5 26q0 32 121 58.5t171 26.5q12 0 22.5 -19t10.5 -31q-63 -73 -159.5 -198t-104.5 -163q14 3 53 12t56 12.5t47 7t59 3.5q17 -3 27.5 -30.5t10.5 -39.5q0 -8 -30.5 -14.5t-73 -11.5
t-53.5 -7q-80 -19 -141 -48q-16 -3 -24.5 9.5t-9.5 23.5t-1 30zM207 579q-8 -5 -24.5 -0.5t-31 15t-10.5 15.5q11 14 32 45t36.5 50t27.5 23q36 12 69 -15q23 -18 12 -28q-83 -75 -111 -105z" />
    <glyph glyph-name="Zdotaccent" unicode="&#x17b;" horiz-adv-x="341" 
d="M61 305q-14 -2 -29 10t-20 25t1 20q25 17 145 42q99 163 144 217q-44 -1 -143.5 -21t-131.5 -36q-2 -1 -5.5 4t-7 14t-7 18.5t-6 19t-2.5 14.5q-1 33 160 63.5t208 27.5q12 -1 23 -21t11 -32q-29 -32 -166 -256q9 1 24 1q35 1 43 -16q4 -8 14 -9.5t16 -7.5q1 -1 6 -7
t8 -10.5t5.5 -10.5t-2.5 -9t-17 -2q-55 2 -147 -13q-139 -233 -146 -270q60 19 153.5 33.5t150.5 10.5q16 -3 27 -31.5t11 -40.5q0 -8 -33 -14t-99 -14t-112 -18q-85 -16 -140 -40q-16 -1 -24.5 12t-9.5 23.5t-2 30.5q0 57 144 302zM192 776q-29 12 -29 39q0 26 21 51.5
t62 25.5q15 0 28 -13.5t13 -39.5q0 -29 -14.5 -62t-46.5 -33q-21 0 -29.5 7t-4.5 25z" />
    <glyph glyph-name="zdotaccent" unicode="&#x17c;" horiz-adv-x="299" 
d="M-15 24q0 84 224 357q-25 -2 -59.5 -11t-71.5 -21t-47 -15q-3 -1 -10 12.5t-12 30.5t-5 26q0 32 121 58.5t171 26.5q12 0 22.5 -19t10.5 -31q-63 -73 -159.5 -198t-104.5 -163q14 3 53 12t56 12.5t47 7t59 3.5q17 -3 27.5 -30.5t10.5 -39.5q0 -8 -30.5 -14.5t-73 -11.5
t-53.5 -7q-80 -19 -141 -48q-16 -3 -24.5 9.5t-9.5 23.5t-1 30zM172 603q-29 12 -29 39q0 26 21 51.5t62 25.5q15 0 28 -13.5t13 -39.5q0 -29 -14.5 -62t-46.5 -33q-21 0 -29.5 7t-4.5 25z" />
    <glyph glyph-name="Zcaron" unicode="&#x17d;" horiz-adv-x="341" 
d="M61 305q-14 -2 -29 10t-20 25t1 20q25 17 145 42q99 163 144 217q-44 -1 -143.5 -21t-131.5 -36q-2 -1 -5.5 4t-7 14t-7 18.5t-6 19t-2.5 14.5q-1 33 160 63.5t208 27.5q12 -1 23 -21t11 -32q-29 -32 -166 -256q9 1 24 1q35 1 43 -16q4 -8 14 -9.5t16 -7.5q1 -1 6 -7
t8 -10.5t5.5 -10.5t-2.5 -9t-17 -2q-55 2 -147 -13q-139 -233 -146 -270q60 19 153.5 33.5t150.5 10.5q16 -3 27 -31.5t11 -40.5q0 -8 -33 -14t-99 -14t-112 -18q-85 -16 -140 -40q-16 -1 -24.5 12t-9.5 23.5t-2 30.5q0 57 144 302zM236 885l27 -17q22 -14 -9 -36
q-87 -69 -111 -84l-33 5q-15 20 -51.5 73t-40.5 59q-3 6 1 12.5t11 9.5q25 11 38 -2q6 -6 33 -40.5t33 -40.5q51 42 65 55q20 17 37 6z" />
    <glyph glyph-name="zcaron" unicode="&#x17e;" horiz-adv-x="299" 
d="M-15 24q0 84 224 357q-25 -2 -59.5 -11t-71.5 -21t-47 -15q-3 -1 -10 12.5t-12 30.5t-5 26q0 32 121 58.5t171 26.5q12 0 22.5 -19t10.5 -31q-63 -73 -159.5 -198t-104.5 -163q14 3 53 12t56 12.5t47 7t59 3.5q17 -3 27.5 -30.5t10.5 -39.5q0 -8 -30.5 -14.5t-73 -11.5
t-53.5 -7q-80 -19 -141 -48q-16 -3 -24.5 9.5t-9.5 23.5t-1 30zM302 711l27 -17q22 -14 -9 -36q-87 -69 -111 -84l-33 5q-15 20 -51.5 73t-40.5 59q-3 6 1 12.5t11 9.5q25 11 38 -2q6 -6 33 -40.5t33 -40.5q51 42 65 55q20 17 37 6z" />
    <glyph glyph-name="florin" unicode="&#x192;" horiz-adv-x="443" 
d="M63 240q-19 -4 -34.5 18t-4.5 32q20 15 93 28q58 399 217 399q76 0 109 -57q24 -41 7 -73q-14 -26 -50 -17q1 28 -9.5 60t-29.5 32q-126 -1 -170 -335q8 0 12 1q48 4 73 -22q4 -4 12 -16.5t8 -16.5q0 -9 -15 -9q-52 -2 -98 -6q-5 -58 -9 -114q-25 -335 -89 -376
q-21 -13 -43 12q-23 29 -16.5 41.5t47.5 29.5q6 39 16 178t19 220q-31 -5 -45 -9z" />
    <glyph glyph-name="AEacute" unicode="&#x1fc;" horiz-adv-x="572" 
d="M211 37l75 23l-1 39q-3 81 0 163q-72 -12 -164 -30q-52 -150 -74 -300q-5 -18 -42.5 -4.5t-44.5 24.5q9 99 66 261q-17 1 -29.5 28.5t-1.5 36.5q9 7 64 20q63 152 138.5 272.5t141.5 157.5q24 -3 36.5 -8.5t21.5 -19.5q-6 -24 -8 -40q80 24 147 29q62 5 84 -22t22 -33
q0 -5 -25 -25.5t-38 -29.5q-15 -9 -31 -6q-6 1 -5 5q1 5 5 14t8 15l3 6q-24 -4 -45 -7t-30.5 -4.5t-16.5 -2.5t-15.5 -3t-13.5 -3.5t-24.5 -6.5t-36.5 -9q-13 -102 -16 -217q66 12 94 14q53 5 57 -7q3 -7 12 -8t14 -7l6 -8q5 -8 8.5 -14.5t3.5 -10.5q0 -21 -16 -21
q-38 -1 -180 -23q0 -100 5 -192q152 41 225 36q10 -1 28 -32q22 -40 0 -40q-86 -3 -248 -42l4 -35q-7 -11 -35 -4t-44 21q-26 -6 -39 -10q-19 -4 -40 27q-17 27 -5 33zM313 610q-89 -120 -159 -290q72 15 134 26q8 143 29 263zM465 748q-8 -5 -24.5 -0.5t-31 15t-10.5 15.5
q11 14 32 45t36.5 50t27.5 23q36 12 69 -15q23 -18 12 -28q-83 -75 -111 -105z" />
    <glyph glyph-name="aeacute" unicode="&#x1fd;" horiz-adv-x="503" 
d="M347 582q-8 -5 -24.5 -0.5t-31 15t-10.5 15.5q11 14 32 45t36.5 50t27.5 23q36 12 69 -15q23 -18 12 -28q-83 -75 -111 -105zM388 -79q-47 0 -85.5 32.5t-54.5 90.5q-14 -29 -42.5 -50t-62.5 -21q-54 0 -82.5 47t-28.5 124q0 97 46 153.5t95 56.5q26 0 47 -16t25 -42
q15 70 1.5 129t-56.5 59q-17 0 -30 -9.5t-21.5 -29.5t-11.5 -31t-8 -32q-26 0 -46.5 17.5t-4.5 58.5q29 74 124 74q48 0 77 -30t37 -74q50 113 104 113q33 0 57.5 -29.5t24.5 -92.5q0 -104 -29 -174t-85 -70q-19 0 -33.5 10.5t-19.5 20.5l-5 11q-18 -53 -18 -134
q0 -82 69 -82q53 0 96 67.5t43 123.5q0 11 14 11q12 0 20.5 -13.5t8.5 -34.5q0 -47 -17 -99t-56.5 -93.5t-91.5 -41.5zM88 83q4 -28 14 -40t29 -12q37 0 68 63.5t35 111.5q-15 -3 -25 4q7 28 7 51q0 39 -26 39q-32 0 -58.5 -41.5t-37.5 -92t-6 -83.5zM332 260q5 -25 25 -25
q25 0 45 66.5t20 138.5q0 47 -12 47q-7 0 -15 -18q-48 -107 -63 -209z" />
    <glyph glyph-name="Oslashacute" unicode="&#x1fe;" horiz-adv-x="428" 
d="M294 752q-8 -5 -24.5 -0.5t-31 15t-10.5 15.5q11 14 32 45t36.5 50t27.5 23q36 12 69 -15q23 -18 12 -28q-83 -75 -111 -105zM38 -11q5 16 15.5 26.5t10.5 11.5l2 5q-56 93 -56 239q0 134 58 275.5t123 160.5q5 -1 8.5 -3t6.5 -5t4.5 -4t4.5 -6t4 -6q26 17 55 17
q43 0 77 -18q32 49 53 49q13 0 20 -9t5 -23q-18 -20 -37 -53q46 -60 46 -193q0 -46 -6 -104t-22.5 -131t-41 -131.5t-68 -98.5t-97.5 -40q-52 0 -93 33q-24 -62 -37 -87q-13 -1 -30.5 9t-16.5 22q4 39 12 64zM364 521q0 34 -7 61q-26 -52 -60.5 -133.5t-54 -130t-63 -160.5
t-47.5 -123q19 -14 42 -14q54 0 94.5 64.5t59.5 156t27.5 163.5t8.5 116zM74 224q0 -79 19 -130q27 62 74.5 180.5t87.5 211.5t70 150q-11 8 -26 8q-31 0 -56 -18.5t-41.5 -49.5t-27 -62.5t-17.5 -67.5q0 -1 -3 -1q-6 0 -18.5 5.5t-17.5 10.5l-4 -11q-4 -10 -11 -31
t-13.5 -48.5t-11 -66.5t-4.5 -80z" />
    <glyph glyph-name="oslashacute" unicode="&#x1ff;" horiz-adv-x="323" 
d="M265 586q-8 -5 -24.5 -0.5t-31 15t-10.5 15.5q11 14 32 45t36.5 50t27.5 23q36 12 69 -15q23 -18 12 -28q-83 -75 -111 -105zM38 -11q2 7 5.5 13t6 9t6 6.5l4.5 4.5q-48 74 -44 193q4 100 44.5 200t86.5 114q22 -12 26 -25q14 12 35 12q36 0 60 -15q36 63 65 63
q13 0 20 -9t5 -23q-26 -27 -51 -75q22 -46 20 -142q-2 -48 -11 -102t-27 -112.5t-53 -96t-80 -37.5q-25 0 -47 11q-26 -67 -36 -84q-13 -1 -30.5 9t-16.5 22q4 39 12 64zM80 175q-3 -51 10 -90q24 56 77 189t78 185q-8 4 -14 4q-20 0 -40.5 -27.5t-35.5 -68t-24.5 -75.5
t-14.5 -61q-1 -3 -12.5 1t-16.5 8q-6 -28 -7 -65zM264 363v8q-49 -108 -132 -334h6q32 0 58 41.5t39.5 100.5t20.5 107t8 77z" />
    <glyph glyph-name="Scommaaccent" unicode="&#x218;" horiz-adv-x="401" 
d="M49 96q0 -34 22 -61.5t63 -27.5q71 0 119 47.5t48 126.5q0 54 -18.5 106t-47 89.5t-62 66.5t-63 44.5t-49.5 16.5q-6 1 -19 23.5t-13 29.5q-1 31 67.5 66.5t154 56.5t135.5 17q13 -1 34 -22t21 -30q0 -33 -39.5 -72t-61.5 -39q-9 0 -9 11q0 4 17.5 30t17.5 32
q0 11 -47.5 -1t-103 -35.5t-76.5 -41.5q18 -10 42 -27t61 -54t66.5 -79.5t51 -105t21.5 -129.5q0 -93 -58.5 -144.5t-136.5 -51.5q-89 0 -147.5 66t-58.5 141q0 38 19.5 74t50.5 36q46 0 55 -34q-19 -19 -37.5 -55.5t-18.5 -69.5zM68 -145q0 26 17 41t47 15q42 0 67 -21.5
t25 -60.5q0 -36 -32 -70t-71 -43q-30 -7 -53.5 -1t-30.5 20.5t3 32.5q96 -5 108 37q-23 -7 -51.5 4t-28.5 46z" />
    <glyph glyph-name="scommaaccent" unicode="&#x219;" horiz-adv-x="285" 
d="M90 367l1 -4q7 -3 19.5 -9.5t44.5 -30.5t56 -51t44 -71.5t20 -93.5q0 -81 -36.5 -119.5t-93.5 -38.5q-62 0 -113.5 56t-51.5 117q0 34 18 75t42 41q10 0 27.5 -15t17.5 -22q0 -19 -21.5 -68.5t-21.5 -51.5q0 -7 5 -19t22.5 -25.5t43.5 -13.5q46 0 69.5 30.5t23.5 83.5
q0 71 -52 124t-108 60q-13 11 -20.5 33.5t-5.5 42.5q3 27 122 78t140 51q8 0 20.5 -15.5t12.5 -28.5q0 -27 -36 -60t-57 -33q-5 0 -11.5 13.5t-11.5 13.5q-18 -1 -60 -21.5t-49 -27.5zM12 -145q0 26 17 41t47 15q42 0 67 -21.5t25 -60.5q0 -36 -32 -70t-71 -43
q-30 -7 -53.5 -1t-30.5 20.5t3 32.5q96 -5 108 37q-23 -7 -51.5 4t-28.5 46z" />
    <glyph glyph-name="uni021A" unicode="&#x21a;" horiz-adv-x="385" 
d="M53 560q-12 -3 -26.5 12.5t-19 30.5t2.5 21q70 29 206 48q1 3 13 46q45 -7 65 -28l-2 -8l82 7q64 5 76 -10q35 -44 35 -50t-6 -11t-15 -5q-82 -2 -187 -13q-47 -258 -77 -543q1 0 12 4t14 4t8 -4q3 -10 -8 -36.5t-24 -48.5l-12 -21q-10 -17 -43.5 -4.5t-41.5 24.5
q40 362 92 614q-68 -10 -144 -29zM65 -145q0 26 17 41t47 15q42 0 67 -21.5t25 -60.5q0 -36 -32 -70t-71 -43q-30 -7 -53.5 -1t-30.5 20.5t3 32.5q96 -5 108 37q-23 -7 -51.5 4t-28.5 46z" />
    <glyph glyph-name="uni021B" unicode="&#x21b;" horiz-adv-x="296" 
d="M47 415q-19 -4 -36.5 22t-6.5 36q16 13 107 31q30 115 47 127q12 8 40.5 -10t25.5 -27l-20 -74q28 4 47 6q16 3 29.5 2.5t17.5 -9.5q3 -7 12 -8t15 -7q5 -5 13 -17t8 -16q0 -15 -15 -15q-54 -1 -148 -16q-64 -248 -64 -361q0 -42 32 -42q44 0 92.5 42t51.5 82q1 -2 9 0
t17.5 -11t9.5 -40q0 -50 -54.5 -98t-104.5 -48q-52 0 -88.5 49t-36.5 125q0 94 45 287zM63 -145q0 26 17 41t47 15q42 0 67 -21.5t25 -60.5q0 -36 -32 -70t-71 -43q-30 -7 -53.5 -1t-30.5 20.5t3 32.5q96 -5 108 37q-23 -7 -51.5 4t-28.5 46z" />
    <glyph glyph-name="dotlessj" unicode="&#x237;" horiz-adv-x="154" 
d="M73 436q3 44 12 51q5 4 12 4q44 0 70 -23q-6 -45 -13 -115t-13 -131t-14 -131t-19 -125t-25 -101.5t-35 -72t-47 -25.5q-68 0 -119 19q-27 10 -24 40t31 34q44 -27 97 -39q27 23 51 215t36 400z" />
    <glyph glyph-name="circumflex" unicode="&#x2c6;" 
d="M185 608l-29 18q-22 14 9 36q87 69 111 84l33 -5q45 -60 82 -124q3 -6 -1 -12.5t-11 -9.5q-25 -11 -38 2q-6 6 -29.5 36t-29.5 37q-4 -4 -63 -56q-18 -16 -34 -6z" />
    <glyph glyph-name="caron" unicode="&#x2c7;" 
d="M367 720l27 -17q22 -14 -9 -36q-87 -69 -111 -84l-33 5q-15 20 -51.5 73t-40.5 59q-3 6 1 12.5t11 9.5q25 11 38 -2q6 -6 33 -40.5t33 -40.5q51 43 65 55q20 17 37 6z" />
    <glyph glyph-name="uni02C9" unicode="&#x2c9;" 
d="M143 673q42 13 124 16t108 -1q10 -1 27 -30q21 -38 -1 -38q-192 0 -215 -3q-21 -2 -40 28q-16 24 -3 28z" />
    <glyph glyph-name="breve" unicode="&#x2d8;" 
d="M318 723q8 14 32 3t31 -26q-16 -45 -46.5 -69t-67.5 -24q-34 0 -61 19.5t-35 49.5q-6 23 5.5 37t32.5 9q3 -24 14.5 -42.5t31.5 -18.5q22 0 36 15t27 47z" />
    <glyph glyph-name="dotaccent" unicode="&#x2d9;" 
d="M242 646q-29 12 -29 39q0 26 21 51.5t62 25.5q15 0 28 -13.5t13 -39.5q0 -29 -14.5 -62t-46.5 -33q-21 0 -29.5 7t-4.5 25z" />
    <glyph glyph-name="ring" unicode="&#x2da;" 
d="M176 755q0 36 29 65.5t80 29.5q52 0 70.5 -20.5t18.5 -61.5q0 -39 -30 -65.5t-77 -26.5q-43 0 -67 23t-24 56zM244 753q0 -11 7.5 -18t16.5 -7q18 0 29.5 11.5t11.5 32.5q0 27 -24 27q-41 0 -41 -46z" />
    <glyph glyph-name="ogonek" unicode="&#x2db;" 
d="M159 -86q0 73 99 106q41 14 61 -7q12 -11 3 -24q-2 -3 -30 -14.5t-52 -33t-24 -50.5q0 -13 11.5 -20.5t29.5 -7.5q45 0 89 46q18 -4 31.5 -21t13.5 -32q0 -17 -30.5 -35t-82.5 -18q-55 0 -87 30.5t-32 80.5z" />
    <glyph glyph-name="tilde" unicode="&#x2dc;" 
d="M179 622q-10 0 -17 19t-1 29q9 16 28.5 31t39.5 15q29 0 56 -18t38 -18q14 0 30.5 15t22.5 15q9 0 13.5 -18t-1.5 -33q-8 -17 -29 -32t-47 -15q-21 0 -50.5 16.5t-44.5 16.5q-11 0 -22.5 -11.5t-15.5 -11.5z" />
    <glyph glyph-name="hungarumlaut" unicode="&#x2dd;" 
d="M166 588q-9 -9 -26 6t-10 24q11 14 32 45t36.5 50t27.5 23q10 3 25.5 -4.5t24.5 -19.5t1 -19q-83 -75 -111 -105zM306 588q-7 -5 -15.5 -0.5t-14.5 15t-2 15.5q12 15 31 45t34 49.5t27 23.5q11 4 26.5 -4t24 -20t0.5 -19q-83 -75 -111 -105z" />
    <glyph glyph-name="Wgrave" unicode="&#x1e80;" horiz-adv-x="568" 
d="M306 434h-7q-26 -62 -59.5 -228.5t-40.5 -261.5q-7 -13 -55 4q-43 48 -64 196t-17.5 310t25.5 271q6 4 24 3t36 -11t16 -23q-26 -222 -22 -376.5t28 -217.5l5 5q29 236 142 532q8 14 46 0.5t40 -21.5q-47 -244 14 -524q26 170 83.5 393t82.5 237q8 4 25 -1.5t29.5 -15
t9.5 -14.5q-124 -322 -188 -778q-44 -8 -74 9q-25 14 -49 190t-30 322zM380 749l-93 134q-6 7 -3 16.5t14 13.5q12 5 32 5.5t31 -10.5l24 -48l31 -62t16 -31q3 -6 -1 -12.5t-11 -9.5q-29 -12 -40 4z" />
    <glyph glyph-name="wgrave" unicode="&#x1e81;" horiz-adv-x="372" 
d="M192 263h-5q-50 -131 -56 -273q-6 -11 -28 -11q-73 0 -73 274q0 76 11 165.5t31 89.5t42.5 -12.5t19.5 -28.5q-23 -118 -23 -231q0 -15 3 -48h5q57 159 87 327q4 18 23 18q13 0 34.5 -10t19.5 -22q-31 -190 -23 -348h7q8 46 18 96t30 136.5t43.5 141.5t45.5 55
q38 0 38 -23q0 -3 -4.5 -13t-12 -26.5t-12.5 -31.5q-114 -316 -114 -539q-9 -14 -28 -14q-63 0 -69 103q-10 170 -10 225zM252 591l-93 134q-6 7 -3 16.5t14 13.5q12 5 32 5.5t31 -10.5l24 -48l31 -62t16 -31q3 -6 -1 -12.5t-11 -9.5q-29 -12 -40 4z" />
    <glyph glyph-name="Wacute" unicode="&#x1e82;" horiz-adv-x="568" 
d="M306 434h-7q-26 -62 -59.5 -228.5t-40.5 -261.5q-7 -13 -55 4q-43 48 -64 196t-17.5 310t25.5 271q6 4 24 3t36 -11t16 -23q-26 -222 -22 -376.5t28 -217.5l5 5q29 236 142 532q8 14 46 0.5t40 -21.5q-47 -244 14 -524q26 170 83.5 393t82.5 237q8 4 25 -1.5t29.5 -15
t9.5 -14.5q-124 -322 -188 -778q-44 -8 -74 9q-25 14 -49 190t-30 322zM415 746q-8 -5 -24.5 -0.5t-31 15t-10.5 15.5q11 14 32 45t36.5 50t27.5 23q36 12 69 -15q23 -18 12 -28q-83 -75 -111 -105z" />
    <glyph glyph-name="wacute" unicode="&#x1e83;" horiz-adv-x="372" 
d="M192 263h-5q-50 -131 -56 -273q-6 -11 -28 -11q-73 0 -73 274q0 76 11 165.5t31 89.5t42.5 -12.5t19.5 -28.5q-23 -118 -23 -231q0 -15 3 -48h5q57 159 87 327q4 18 23 18q13 0 34.5 -10t19.5 -22q-31 -190 -23 -348h7q8 46 18 96t30 136.5t43.5 141.5t45.5 55
q38 0 38 -23q0 -3 -4.5 -13t-12 -26.5t-12.5 -31.5q-114 -316 -114 -539q-9 -14 -28 -14q-63 0 -69 103q-10 170 -10 225zM291 583q-8 -5 -24.5 -0.5t-31 15t-10.5 15.5q11 14 32 45t36.5 50t27.5 23q36 12 69 -15q23 -18 12 -28q-83 -75 -111 -105z" />
    <glyph glyph-name="Wdieresis" unicode="&#x1e84;" horiz-adv-x="568" 
d="M306 434h-7q-26 -62 -59.5 -228.5t-40.5 -261.5q-7 -13 -55 4q-43 48 -64 196t-17.5 310t25.5 271q6 4 24 3t36 -11t16 -23q-26 -222 -22 -376.5t28 -217.5l5 5q29 236 142 532q8 14 46 0.5t40 -21.5q-47 -244 14 -524q26 170 83.5 393t82.5 237q8 4 25 -1.5t29.5 -15
t9.5 -14.5q-124 -322 -188 -778q-44 -8 -74 9q-25 14 -49 190t-30 322zM275 781q-29 12 -29 39q0 26 21 51.5t62 25.5q15 0 28 -13.5t13 -39.5q0 -29 -14.5 -62t-46.5 -33q-21 0 -29.5 7t-4.5 25zM403 808q0 25 21 50.5t62 25.5q15 0 28 -13.5t13 -38.5q0 -29 -14.5 -62.5
t-46.5 -33.5q-22 0 -42.5 24.5t-20.5 47.5z" />
    <glyph glyph-name="wdieresis" unicode="&#x1e85;" horiz-adv-x="372" 
d="M192 263h-5q-50 -131 -56 -273q-6 -11 -28 -11q-73 0 -73 274q0 76 11 165.5t31 89.5t42.5 -12.5t19.5 -28.5q-23 -118 -23 -231q0 -15 3 -48h5q57 159 87 327q4 18 23 18q13 0 34.5 -10t19.5 -22q-31 -190 -23 -348h7q8 46 18 96t30 136.5t43.5 141.5t45.5 55
q38 0 38 -23q0 -3 -4.5 -13t-12 -26.5t-12.5 -31.5q-114 -316 -114 -539q-9 -14 -28 -14q-63 0 -69 103q-10 170 -10 225zM140 631q-29 12 -29 39q0 26 21 51.5t62 25.5q15 0 28 -13.5t13 -39.5q0 -29 -14.5 -62t-46.5 -33q-21 0 -29.5 7t-4.5 25zM268 658q0 25 21 50.5
t62 25.5q15 0 28 -13.5t13 -38.5q0 -29 -14.5 -62.5t-46.5 -33.5q-22 0 -42.5 24.5t-20.5 47.5z" />
    <glyph glyph-name="Ygrave" unicode="&#x1ef2;" horiz-adv-x="381" 
d="M28 6q6 14 21 11.5t16 -0.5q40 88 100 232q-96 227 -134 303q-3 5 -14 1.5t-14 0.5q-9 14 -17.5 55.5t-3.5 48.5q33 46 59 8q35 -51 160 -329q78 184 130 284t84 100q16 0 36.5 -9.5t18.5 -22.5q-44 -47 -128 -238t-161 -386.5t-92 -222.5q-8 -1 -28 6t-37.5 18t-16.5 19
q13 101 21 121zM228 755l-93 134q-6 7 -3 16.5t14 13.5q12 5 32 5.5t31 -10.5l24 -48l31 -62t16 -31q3 -6 -1 -12.5t-11 -9.5q-29 -12 -40 4z" />
    <glyph glyph-name="ygrave" unicode="&#x1ef3;" horiz-adv-x="303" 
d="M5 140q0 151 67 356q3 9 24 9q16 0 33 -11.5t18 -29.5q-65 -230 -65 -362q0 -52 23 -52q22 0 49 51t36 93q2 8 13 96.5t25.5 158t29.5 69.5q25 0 45 -12t20 -28q0 -54 -26.5 -157t-30.5 -132q-46 -310 -46 -418q0 -8 -10 -8q-24 0 -63 22q-10 6 -10 25t15.5 115t18.5 134
q-26 -63 -71 -63q-28 0 -48 13.5t-29.5 37t-13.5 46t-4 47.5zM196 591l-93 134q-6 7 -3 16.5t14 13.5q12 5 32 5.5t31 -10.5l24 -48l31 -62t16 -31q3 -6 -1 -12.5t-11 -9.5q-29 -12 -40 4z" />
    <glyph glyph-name="endash" unicode="&#x2013;" horiz-adv-x="503" 
d="M88 220q-12 -3 -26.5 15.5t-19 37t2.5 24.5q48 18 193 30t188 9q10 -1 27 -40q21 -49 -1 -49q-272 -6 -364 -27z" />
    <glyph glyph-name="emdash" unicode="&#x2014;" horiz-adv-x="658" 
d="M88 220q-12 -3 -26.5 15.5t-19 37t2.5 24.5q47 18 267 30t269 9q10 -1 27 -40q21 -49 -1 -49q-444 -10 -519 -27z" />
    <glyph glyph-name="quoteleft" unicode="&#x2018;" horiz-adv-x="244" 
d="M212 476q0 -30 -20 -59t-64 -29q-21 0 -39 23t-18 62q0 84 27.5 144.5t65.5 83.5q22 15 44.5 3t28.5 -45q-75 -47 -97 -141q22 5 47 -4t25 -38z" />
    <glyph glyph-name="quoteright" unicode="&#x2019;" horiz-adv-x="244" 
d="M86 621q0 30 20 59t64 29q21 0 39 -23t18 -62q0 -84 -27.5 -144.5t-65.5 -83.5q-22 -15 -44.5 -3t-28.5 45q75 47 97 141q-22 -5 -47 4t-25 38z" />
    <glyph glyph-name="quotesinglbase" unicode="&#x201a;" horiz-adv-x="244" 
d="M36 41q0 30 20 59t64 29q21 0 39 -23t18 -62q0 -84 -27.5 -144.5t-65.5 -83.5q-22 -15 -44.5 -3t-28.5 45q75 47 97 141q-22 -5 -47 4t-25 38z" />
    <glyph glyph-name="quotedblleft" unicode="&#x201c;" horiz-adv-x="422" 
d="M212 476q0 -30 -20 -59t-64 -29q-21 0 -39 23t-18 62q0 84 27.5 144.5t65.5 83.5q22 15 44.5 3t28.5 -45q-75 -47 -97 -141q22 5 47 -4t25 -38zM390 476q0 -30 -20 -59t-64 -29q-21 0 -39 23t-18 62q0 84 27.5 144.5t65.5 83.5q22 15 44.5 3t28.5 -45q-75 -47 -97 -141
q22 5 47 -4t25 -38z" />
    <glyph glyph-name="quotedblright" unicode="&#x201d;" horiz-adv-x="422" 
d="M264 621q0 30 20 59t64 29q21 0 39 -23t18 -62q0 -84 -27.5 -144.5t-65.5 -83.5q-22 -15 -44.5 -3t-28.5 45q75 47 97 141q-22 -5 -47 4t-25 38zM86 621q0 30 20 59t64 29q21 0 39 -23t18 -62q0 -84 -27.5 -144.5t-65.5 -83.5q-22 -15 -44.5 -3t-28.5 45q75 47 97 141
q-22 -5 -47 4t-25 38z" />
    <glyph glyph-name="quotedblbase" unicode="&#x201e;" horiz-adv-x="422" 
d="M214 41q0 30 20 59t64 29q21 0 39 -23t18 -62q0 -84 -27.5 -144.5t-65.5 -83.5q-22 -15 -44.5 -3t-28.5 45q75 47 97 141q-22 -5 -47 4t-25 38zM36 41q0 30 20 59t64 29q21 0 39 -23t18 -62q0 -84 -27.5 -144.5t-65.5 -83.5q-22 -15 -44.5 -3t-28.5 45q75 47 97 141
q-22 -5 -47 4t-25 38z" />
    <glyph glyph-name="dagger" unicode="&#x2020;" horiz-adv-x="405" 
d="M75 396q-12 -3 -26.5 12.5t-18.5 31t2 20.5q55 18 149 31q29 168 48 227q33 -5 55 -28q-14 -70 -33 -191q16 2 41 3.5t34 2.5q64 5 76 -10q35 -44 35 -50t-6 -11t-15 -5q-98 -2 -177 -9q-43 -282 -69 -525q1 0 12 4t14 4t8 -4q3 -10 -8 -36.5t-24 -48.5l-12 -21
q-10 -17 -38.5 -4.5t-36.5 24.5q32 290 82 599q-52 -7 -92 -16z" />
    <glyph glyph-name="daggerdbl" unicode="&#x2021;" horiz-adv-x="405" 
d="M75 396q-12 -3 -26.5 12.5t-18.5 31t2 20.5q55 18 149 31q29 168 48 227q33 -5 55 -28q-14 -70 -33 -191q16 2 41 3.5t34 2.5q64 5 76 -10q35 -44 35 -50t-6 -11t-15 -5q-98 -2 -177 -9q-23 -151 -40 -283l82 7q64 5 76 -10q35 -44 35 -50t-6 -11t-15 -5q-116 -2 -182 -9
q-10 -73 -19 -164q3 -7 4 -16t0 -18.5t-2.5 -19.5t-3.5 -18.5t-3.5 -15t-2.5 -10.5l-2 -4q-10 -17 -38.5 -4.5t-36.5 24.5q16 139 29 237q-40 -6 -84 -15q-12 -3 -26.5 12.5t-18.5 31t2 20.5q47 16 138 29q25 181 42 284q-52 -7 -92 -16z" />
    <glyph glyph-name="bullet" unicode="&#x2022;" horiz-adv-x="314" 
d="M84 229q-19 15 -26.5 29.5t-7.5 42.5q0 43 33 86.5t93 43.5q38 0 63 -25t25 -81q0 -60 -24 -102.5t-82 -42.5q-33 0 -53.5 12.5t-20.5 36.5z" />
    <glyph glyph-name="ellipsis" unicode="&#x2026;" horiz-adv-x="628" 
d="M80 30q0 29 22.5 57.5t67.5 28.5q16 0 30 -15t14 -44q0 -12 -3 -28.5t-10 -35t-20.5 -31t-32.5 -12.5q-22 0 -31.5 8t-4.5 28q-32 13 -32 44zM269 36q0 27 21 53t62 26q14 0 27 -14t13 -40q0 -30 -14.5 -64t-46.5 -34q-18 0 -25.5 5.5t-17.5 23.5q-2 3 -8 11t-8.5 15
t-2.5 18zM454 1q0 12 3 28.5t10 35t20.5 31t32.5 12.5h9.5h9t7.5 -0.5t8 -1t6.5 -2.5t6.5 -4.5t5.5 -6t5.5 -8.5q10 -20 10 -57q0 -27 -19 -56.5t-49 -29.5q-23 0 -44.5 19.5t-21.5 39.5z" />
    <glyph glyph-name="perthousand" unicode="&#x2030;" horiz-adv-x="1021" 
d="M417 115q0 80 39 158t84 89q21 -9 24 -19q14 9 33 9q93 0 101 -121q16 52 41.5 88t53.5 43q21 -9 24 -19q14 9 33 9q62 0 87 -44.5t25 -107.5q0 -110 -43.5 -186t-117.5 -76q-54 0 -82.5 37.5t-36.5 94.5q-38 -132 -134 -132q-65 0 -98 53.5t-33 123.5zM170 -65
q1 7 3.5 31t4.5 37t5.5 30.5t8.5 26t11 8.5q3 0 7 -1.5t5 -1.5t3 2q129 278 261 538q-21 -20 -67 -20q-20 0 -41.5 9t-30.5 21q6 -14 6 -62q0 -22 -6 -57t-21 -81t-48.5 -78t-78.5 -32q-46 0 -77 30.5t-42.5 70.5t-11.5 86q0 93 54 160t126 67q19 0 30 -15q1 0 5 4t8 6.5
t6 2.5q8 0 24.5 -21.5t42 -43.5t56.5 -22q22 0 43 7t31 14l10 7q1 2 13.5 23t23.5 32t22 11q10 0 23 -10.5t13 -21.5q0 -17 -13.5 -42.5t-30.5 -31.5q-49 -68 -187 -387t-149 -339q-13 0 -27.5 14.5t-14.5 28.5zM176 366q43 0 76 95.5t29 165.5q-3 3 -8 7.5t-7 6.5l-5.5 5.5
t-4.5 6.5t-3 7.5t-3 10.5q-48 0 -83.5 -63t-35.5 -152q0 -90 45 -90zM487 91q0 -99 45 -99q27 0 49 34t33.5 81t17 85.5t5.5 59.5q0 52 -27 52q-31 0 -51 -34t-26 -73q0 -1 -2 -1q-13 0 -22 7q-22 -45 -22 -112zM740 91q0 -99 45 -99q27 0 49 34t33.5 81t17 85.5t5.5 59.5
q0 52 -27 52q-31 0 -51 -34t-26 -73q0 -1 -2 -1q-13 0 -22 7q-22 -45 -22 -112z" />
    <glyph glyph-name="guilsinglleft" unicode="&#x2039;" horiz-adv-x="318" 
d="M40 256l2 24q51 56 115.5 111t80.5 55q13 0 33 -18.5t16 -29.5q-24 -13 -72 -56.5t-91 -92.5q27 -42 74 -93.5t51 -55.5q15 -18 -2 -26l-19 -9q-18 -8 -31 8q-123 132 -157 183z" />
    <glyph glyph-name="guilsinglright" unicode="&#x203a;" horiz-adv-x="315" 
d="M295 262l-2 -24q-56 -62 -112 -113.5t-71 -51.5q-13 0 -33 18.5t-16 29.5q41 23 150 148q-42 64 -112 150q-15 18 2 26l19 9q18 8 31 -8q77 -82 144 -184z" />
    <glyph glyph-name="fraction" unicode="&#x2044;" horiz-adv-x="144" 
d="M-88 59q6 14 16 11.5t11 -0.5q19 42 50.5 112t56 125t55 121t55.5 114.5t50 91t46 65t36 22.5q14 0 25.5 -9.5t9.5 -22.5q-45 -47 -130.5 -224t-165.5 -361t-94 -209q-12 -1 -27.5 14.5t-14.5 28.5q13 101 21 121z" />
    <glyph glyph-name="zerosuperior" unicode="&#x2070;" horiz-adv-x="326" 
d="M174 603q0 96 47 176.5t99 89.5q9 -2 18 -13q19 9 38 9q47 0 71.5 -31.5t24.5 -83.5q0 -50 -9.5 -99t-29.5 -95.5t-58.5 -75.5t-89.5 -29q-58 0 -84.5 44t-26.5 108zM251 576q-1 -33 7.5 -48t28.5 -15q44 0 76 85.5t35 172.5q4 46 -21 46q-30 0 -56 -61q0 -1 -1 -1
q-15 0 -21 8l-22 -55q-24 -72 -26 -132z" />
    <glyph glyph-name="foursuperior" unicode="&#x2074;" horiz-adv-x="332" 
d="M225 588l-51 50q-2 16 26 109t46 123q6 8 39 -4t35 -21q-51 -130 -64 -189q6 0 43 10t43 14q27 108 40 188q13 3 41.5 -7t30.5 -23l-27 -144q1 0 9 1.5t10 1.5q14 -1 25 -22.5t11 -35.5l-71 -16q-2 -7 -12 -65t-18 -87q-3 -8 -14 -7q-7 1 -34.5 11.5t-27.5 13.5v2l25 119
l-2 1q-69 -19 -103 -23z" />
    <glyph glyph-name="fivesuperior" unicode="&#x2075;" horiz-adv-x="300" 
d="M269 785l-5 -38q26 13 60 13q48 0 84.5 -35t36.5 -83q0 -66 -53.5 -120t-119.5 -54q-37 0 -73 28t-42 54q1 1 1.5 2t3.5 4.5t5.5 6.5t6 7t6.5 5.5t6.5 2.5t5.5 -1q8 -6 28.5 -25t29.5 -24q42 9 81.5 50t39.5 90q0 33 -31 33q-28 0 -90 -33q-44 21 -55 43q1 11 5 45t5 45
q0 7 0.5 18.5t1 18.5t0.5 9q3 22 69 22l1 -13q8 2 30.5 7t50.5 11.5t41 9.5q11 -6 27.5 -24t20.5 -29l-4 -11q-17 -5 -174 -35z" />
    <glyph glyph-name="sixsuperior" unicode="&#x2076;" horiz-adv-x="326" 
d="M174 612q0 93 59.5 175t121.5 82q33 0 72 -23.5t46 -47.5q-1 -1 -2.5 -3.5t-6 -8.5t-9 -10t-9.5 -7t-8 -1q-10 6 -26 22.5t-25 20.5q-32 -6 -66 -44.5t-45 -75.5q44 38 79 38q41 0 75 -31.5t34 -60.5q0 -62 -43.5 -116t-105.5 -54q-68 0 -104.5 44t-36.5 101zM262 574
q-3 -60 25 -60q34 0 62.5 50t30.5 96q0 20 -15 20q-20 0 -37.5 -14t-28.5 -27.5t-14 -13.5q-11 0 -17 3q-5 -17 -6 -54z" />
    <glyph glyph-name="sevensuperior" unicode="&#x2077;" horiz-adv-x="338" 
d="M251 617q-9 -1 -20.5 8.5t-17 21.5t-0.5 15q15 9 103 22l79 120q-67 -17 -143 -19q11 -32 14 -56q2 -15 -14 -15q-43 8 -52 18q-14 41 -31 85q-14 35 27 35q60 0 141.5 8t114.5 22q30 -10 39 -59l-25 -9l12 -17q-38 -50 -70 -101h6q33 2 37 -4q2 -4 9 -4.5t12 -3.5
q3 -2 11 -15.5t8 -15.5q0 -8 -12 -8q-51 -2 -106 -9q-47 -82 -100 -196q-9 -6 -41.5 7t-34.5 25q26 57 80 149z" />
    <glyph glyph-name="eightsuperior" unicode="&#x2078;" horiz-adv-x="335" 
d="M166 579q1 43 118 123q-30 24 -44.5 37.5t-26.5 31.5t-12 34q1 35 53.5 56.5t130.5 21.5q7 -2 7.5 -10.5t1.5 -9.5q8 3 15 3q24 0 51 -28.5t26 -50.5q-1 -39 -94 -108q46 -37 68 -62.5t21 -55.5q-1 -38 -53.5 -62t-116.5 -24q-62 0 -104 34.5t-41 69.5zM249 548
q0 -22 23 -22q30 0 75 19.5t46 38.5q0 20 -46 63q-98 -71 -98 -99zM284 781q0 -15 43 -50q83 57 83 78q0 8 -8 13.5t-18 5.5q-31 0 -65.5 -15t-34.5 -32z" />
    </font>
</defs>
</svg>
